<?xml version="1.0" encoding="UTF-8" standalone="no"?>
<svg
   xmlns:dc="http://purl.org/dc/elements/1.1/"
   xmlns:cc="http://creativecommons.org/ns#"
   xmlns:rdf="http://www.w3.org/1999/02/22-rdf-syntax-ns#"
   xmlns:svg="http://www.w3.org/2000/svg"
   xmlns="http://www.w3.org/2000/svg"
   xmlns:xlink="http://www.w3.org/1999/xlink"
   xmlns:sodipodi="http://sodipodi.sourceforge.net/DTD/sodipodi-0.dtd"
   xmlns:inkscape="http://www.inkscape.org/namespaces/inkscape"
   height="32"
   version="1.1"
   width="32"
   viewBox="0 0 4 4"
   id="svg3936"
   inkscape:version="0.48.0 r9654"
   sodipodi:docname="audio.reciter.backup.svg">
  <metadata
     id="metadata3983">
    <rdf:RDF>
      <cc:Work
         rdf:about="">
        <dc:format>image/svg+xml</dc:format>
        <dc:type
           rdf:resource="http://purl.org/dc/dcmitype/StillImage" />
      </cc:Work>
    </rdf:RDF>
  </metadata>
  <sodipodi:namedview
     pagecolor="#ffffff"
     bordercolor="#666666"
     borderopacity="1"
     objecttolerance="10"
     gridtolerance="10"
     guidetolerance="10"
     inkscape:pageopacity="0"
     inkscape:pageshadow="2"
     inkscape:window-width="1920"
     inkscape:window-height="1027"
     id="namedview3981"
     showgrid="false"
     inkscape:zoom="9.28125"
     inkscape:cx="10.254899"
     inkscape:cy="-2.0831108"
     inkscape:window-x="0"
     inkscape:window-y="30"
     inkscape:window-maximized="1"
     inkscape:current-layer="svg3936" />
  <defs
     id="defs3938">
    <linearGradient
       id="active-stroke"
       x1="0"
       y1="0"
       x2="0"
       y2="1">
      <stop
         offset="0%"
         style="stop-color:#fff;stop-opacity:0.86"
         id="stop3941" />
      <stop
         offset="100%"
         style="stop-color:#fff;stop-opacity:0.62"
         id="stop3943" />
    </linearGradient>
    <linearGradient
       id="active-fill"
       x1="0"
       y1="0"
       x2="0"
       y2="1">
      <stop
         offset="0%"
         style="stop-color:#333;stop-opacity:0.86"
         id="stop3946" />
      <stop
         offset="100%"
         style="stop-color:#000;stop-opacity:0.62"
         id="stop3948" />
    </linearGradient>
    <linearGradient
       id="hover-stroke"
       x1="0"
       y1="0"
       x2="0"
       y2="1">
      <stop
         offset="0%"
         style="stop-color:#fff;stop-opacity:1"
         id="stop3951" />
      <stop
         offset="100%"
         style="stop-color:#ddd;stop-opacity:0.62"
         id="stop3953" />
    </linearGradient>
    <linearGradient
       id="hover-fill"
       x1="0"
       y1="0"
       x2="0"
       y2="1">
      <stop
         offset="0%"
         style="stop-color:#88B;stop-opacity:0.62"
         id="stop3956" />
      <stop
         offset="100%"
         style="stop-color:#78C;stop-opacity:1"
         id="stop3958" />
    </linearGradient>
    <linearGradient
       id="default-stroke"
       x1="-8.8114882"
       y1="-11.702971"
       x2="-8.8114882"
       y2="17.51874"
       gradientTransform="scale(0.92848327,1.0770253)"
       gradientUnits="userSpaceOnUse">
      <stop
         offset="0%"
         style="stop-color:#fff;stop-opacity:0.62"
         id="stop3961" />
      <stop
         offset="100%"
         style="stop-color:#fff;stop-opacity:0.38"
         id="stop3963" />
    </linearGradient>
    <linearGradient
       id="default-fill"
       x1="-6.7363563"
       y1="-9.7306538"
       x2="-6.7363563"
       y2="15.478289"
       gradientTransform="scale(0.91760569,1.0897927)"
       gradientUnits="userSpaceOnUse">
      <stop
         offset="0%"
         style="stop-color:#999;stop-opacity:1"
         id="stop3966" />
      <stop
         offset="100%"
         style="stop-color:#666;stop-opacity:1"
         id="stop3968" />
    </linearGradient>
    <path
       id="path"
       d="m 0,0 c 2.442802,0 4.423077,-1.980275 4.423077,-4.423077 0,-2.442802 -1.980275,-4.423077 -4.423077,-4.423077 -2.442802,0 -4.423077,1.980275 -4.423077,4.423077 C -4.423077,-1.980275 -2.442802,0 0,0 m 11.010549,9.254451 c 0.66044,0.660385 1.943791,0.54489 2.56533,-0.076593 C 14.197582,8.5561 14.312967,7.272913 13.652472,6.612473 13.240494,6.200495 8.578351,1.538352 5.479505,-1.560494 c -0.59033,1.127582 -1.518132,2.05044 -2.64967,2.634176 3.098846,3.098846 7.768462,7.768516 8.180714,8.180769 M 0,-10.604396 c 3.413846,0 6.181319,2.767473 6.181319,6.181319 0,0.339615 -0.027802,0.672637 -0.080495,0.997363 l 8.718407,8.718736 c 1.156703,1.156429 1.368132,2.9 0.63533,4.271703 0.0081,0.011099 0.01632,0.022088 0.02412,0.033791 2.905604,3.268736 1.089615,6.537637 -1.815989,6.537637 -2.905604,0 -6.537582,-3.268901 -8.716703,-3.268901 -2.179286,0 -3.268901,1.816044 -2.542473,3.268901 -0.363187,1.08956 -1.384725,0.907857 -1.952198,-0.181703 -0.522088,-3.631868 2.678571,-4.971209 4.131374,-4.903077 3.268791,-0.06813 6.537582,3.268791 9.08,3.268791 1.815989,0 1.452802,-2.542418 0.363187,-3.268791 -0.0077,-0.0059 -0.01484,-0.01176 -0.02242,-0.01764 -1.377912,0.759341 -3.144341,0.555824 -4.312637,-0.612747 L 0.954505,1.684835 C 0.643352,1.733077 0.324615,1.758242 0,1.758242 c -3.413846,0 -6.181319,-2.767473 -6.181319,-6.181319 0,-3.413846 2.767473,-6.181319 6.181319,-6.181319"
       inkscape:connector-curvature="0" />
    <linearGradient
       inkscape:collect="always"
       xlink:href="#default-stroke"
       id="linearGradient3988"
       gradientUnits="userSpaceOnUse"
       gradientTransform="scale(0.92848327,1.0770253)"
       x1="-8.8114882"
       y1="-11.702971"
       x2="-8.8114882"
       y2="17.51874" />
    <linearGradient
       inkscape:collect="always"
       xlink:href="#default-fill"
       id="linearGradient3990"
       gradientUnits="userSpaceOnUse"
       gradientTransform="scale(0.91760569,1.0897927)"
       x1="-6.7363563"
       y1="-9.7306538"
       x2="-6.7363563"
       y2="15.478289" />
  </defs>
  <use
     xlink:href="#path"
     class="fill default"
     id="use3979"
     style="fill:#000000;fill-opacity:1;fill-rule:evenodd;stroke:#000000;stroke-opacity:1"
     x="0"
     y="0"
     width="32"
     height="32"
     transform="matrix(0.12292553,0,0,0.12292553,0.82130468,1.3650138)" />
</svg>
