<svg height="28" version="1.1" width="28" xmlns="http://www.w3.org/2000/svg" viewBox="-4 -4 40 40">
	<path fill="none" stroke="#ffffff" stroke-width="6" stroke-linejoin="round" opacity="0" class="stroke" d="M15.499,5.125c-0.553,0-0.999,0.448-0.999,1v9.221L8.454,17.99c-0.506,0.222-0.736,0.812-0.514,1.318c0.164,0.375,0.53,0.599,0.915,0.599c0.134,0,0.271-0.027,0.401-0.085l6.626-2.898c0.005-0.002,0.009-0.004,0.013-0.006l0.004-0.002c0.015-0.006,0.023-0.02,0.037-0.025c0.104-0.052,0.201-0.113,0.279-0.195c0.034-0.034,0.053-0.078,0.079-0.117c0.048-0.064,0.101-0.127,0.13-0.204c0.024-0.06,0.026-0.125,0.038-0.189c0.013-0.064,0.038-0.121,0.038-0.186V6.124C16.5,5.573,16.052,5.125,15.499,5.125zM31.125,6.832c0-3.832-3.105-6.938-6.938-6.938c-1.938,0-3.686,0.796-4.94,2.077C18.05,1.652,16.798,1.466,15.5,1.466c-1.334,0-2.62,0.195-3.847,0.531c-1.259-1.295-3.016-2.103-4.965-2.103C2.856-0.106-0.25,3-0.25,6.832c0,1.845,0.726,3.517,1.901,4.76c-0.443,1.39-0.685,2.87-0.685,4.408c0,8.027,6.507,14.534,14.534,14.534c8.027,0,14.534-6.507,14.534-14.534c0-1.575-0.259-3.087-0.722-4.508C30.436,10.261,31.125,8.629,31.125,6.832zM15.5,27.533C9.139,27.533,3.966,22.359,3.966,16c0-6.36,5.173-11.534,11.534-11.534c6.361,0,11.533,5.173,11.533,11.534C27.033,22.361,21.859,27.533,15.5,27.533z"/>
	<path fill="#000000" stroke="none" opacity="1" class="fill" d="M15.499,5.125c-0.553,0-0.999,0.448-0.999,1v9.221L8.454,17.99c-0.506,0.222-0.736,0.812-0.514,1.318c0.164,0.375,0.53,0.599,0.915,0.599c0.134,0,0.271-0.027,0.401-0.085l6.626-2.898c0.005-0.002,0.009-0.004,0.013-0.006l0.004-0.002c0.015-0.006,0.023-0.02,0.037-0.025c0.104-0.052,0.201-0.113,0.279-0.195c0.034-0.034,0.053-0.078,0.079-0.117c0.048-0.064,0.101-0.127,0.13-0.204c0.024-0.06,0.026-0.125,0.038-0.189c0.013-0.064,0.038-0.121,0.038-0.186V6.124C16.5,5.573,16.052,5.125,15.499,5.125zM31.125,6.832c0-3.832-3.105-6.938-6.938-6.938c-1.938,0-3.686,0.796-4.94,2.077C18.05,1.652,16.798,1.466,15.5,1.466c-1.334,0-2.62,0.195-3.847,0.531c-1.259-1.295-3.016-2.103-4.965-2.103C2.856-0.106-0.25,3-0.25,6.832c0,1.845,0.726,3.517,1.901,4.76c-0.443,1.39-0.685,2.87-0.685,4.408c0,8.027,6.507,14.534,14.534,14.534c8.027,0,14.534-6.507,14.534-14.534c0-1.575-0.259-3.087-0.722-4.508C30.436,10.261,31.125,8.629,31.125,6.832zM15.5,27.533C9.139,27.533,3.966,22.359,3.966,16c0-6.36,5.173-11.534,11.534-11.534c6.361,0,11.533,5.173,11.533,11.534C27.033,22.361,21.859,27.533,15.5,27.533z"/>
</svg>
