<svg height="28" version="1.1" width="28" xmlns="http://www.w3.org/2000/svg" viewBox="-4 -4 40 40">
	<path fill="none" stroke="#ffffff" stroke-width="6" stroke-linejoin="round" opacity="0" class="stroke" d="M24.36,18.424l-2.327,1.215c0.708,1.174,1.384,2.281,1.844,3.033l2.043-1.066C25.538,20.822,24.966,19.653,24.36,18.424zM19.143,14.688c0.445,0.84,1.342,2.367,2.274,3.926l2.414-1.26c-0.872-1.763-1.72-3.452-2.087-4.116c-0.896-1.621-1.982-3.108-3.454-5.417c-1.673-2.625-3.462-5.492-4.052-4.947c-1.194,0.384,1.237,4.094,1.876,5.715C16.73,10.147,17.991,12.512,19.143,14.688zM26.457,22.673l-1.961,1.022l1.982,4.598c0,0,0.811,0.683,1.92,0.213c1.108-0.469,0.81-1.706,0.81-1.706L26.457,22.673zM24.35,15.711c0.168,0.339,0.349,0.701,0.541,1.09l0.001-0.001l0.261,0.531l0.268,0.54l-0.001,0.001l0.013,0.024c0.614,1.248,1.188,2.421,1.562,3.186l0.271,0.558h1.986v-5.929H24.35zM20.973,20.191l-0.002,0.001l-0.283-0.474l-0.333-0.552l0.002-0.001c-0.91-1.521-1.586-2.68-2.017-3.455h-4.726l-0.336,0.583l-0.023,0.039l-3.065,5.307h11.659c-0.29-0.479-0.57-0.941-0.838-1.385L20.973,20.191zM3.231,21.613l3.437-5.902H2.083v5.929h1.133L3.231,21.613zM15.048,10.145c0-0.93-0.754-1.685-1.685-1.685c-0.661,0-1.231,0.381-1.507,0.936l2.976,1.572C14.97,10.725,15.048,10.444,15.048,10.145zM14.343,12.06l-3.188-1.684l-1.535,2.636l3.197,1.689L14.343,12.06zM3.192,26.886l-0.384,1.108v0.299l0.298-0.128l0.725-0.896l2.997-2.349l-3.137-1.657L3.192,26.886zM9.02,14.044l-4.757,8.17l3.23,1.706l4.728-8.186L9.02,14.044z"/>
	<path fill="#000000" stroke="none" opacity="1" class="fill" d="M24.36,18.424l-2.327,1.215c0.708,1.174,1.384,2.281,1.844,3.033l2.043-1.066C25.538,20.822,24.966,19.653,24.36,18.424zM19.143,14.688c0.445,0.84,1.342,2.367,2.274,3.926l2.414-1.26c-0.872-1.763-1.72-3.452-2.087-4.116c-0.896-1.621-1.982-3.108-3.454-5.417c-1.673-2.625-3.462-5.492-4.052-4.947c-1.194,0.384,1.237,4.094,1.876,5.715C16.73,10.147,17.991,12.512,19.143,14.688zM26.457,22.673l-1.961,1.022l1.982,4.598c0,0,0.811,0.683,1.92,0.213c1.108-0.469,0.81-1.706,0.81-1.706L26.457,22.673zM24.35,15.711c0.168,0.339,0.349,0.701,0.541,1.09l0.001-0.001l0.261,0.531l0.268,0.54l-0.001,0.001l0.013,0.024c0.614,1.248,1.188,2.421,1.562,3.186l0.271,0.558h1.986v-5.929H24.35zM20.973,20.191l-0.002,0.001l-0.283-0.474l-0.333-0.552l0.002-0.001c-0.91-1.521-1.586-2.68-2.017-3.455h-4.726l-0.336,0.583l-0.023,0.039l-3.065,5.307h11.659c-0.29-0.479-0.57-0.941-0.838-1.385L20.973,20.191zM3.231,21.613l3.437-5.902H2.083v5.929h1.133L3.231,21.613zM15.048,10.145c0-0.93-0.754-1.685-1.685-1.685c-0.661,0-1.231,0.381-1.507,0.936l2.976,1.572C14.97,10.725,15.048,10.444,15.048,10.145zM14.343,12.06l-3.188-1.684l-1.535,2.636l3.197,1.689L14.343,12.06zM3.192,26.886l-0.384,1.108v0.299l0.298-0.128l0.725-0.896l2.997-2.349l-3.137-1.657L3.192,26.886zM9.02,14.044l-4.757,8.17l3.23,1.706l4.728-8.186L9.02,14.044z"/>
</svg>
