<svg height="28" version="1.1" width="28" xmlns="http://www.w3.org/2000/svg" viewBox="-4 -4 40 40">
	<path fill="none" stroke="#ffffff" stroke-width="6" stroke-linejoin="round" opacity="0" class="stroke" d="M16,30.534c8.027,0,14.534-6.507,14.534-14.534c0-8.027-6.507-14.534-14.534-14.534C7.973,1.466,1.466,7.973,1.466,16C1.466,24.027,7.973,30.534,16,30.534zM18.335,6.276l3.536,3.538l-6.187,6.187l6.187,6.187l-3.536,3.537l-9.723-9.724L18.335,6.276z"/>
	<path fill="#000000" stroke="none" opacity="1" class="fill" d="M16,30.534c8.027,0,14.534-6.507,14.534-14.534c0-8.027-6.507-14.534-14.534-14.534C7.973,1.466,1.466,7.973,1.466,16C1.466,24.027,7.973,30.534,16,30.534zM18.335,6.276l3.536,3.538l-6.187,6.187l6.187,6.187l-3.536,3.537l-9.723-9.724L18.335,6.276z"/>
</svg>
