<svg height="28" version="1.1" width="28" xmlns="http://www.w3.org/2000/svg" viewBox="-4 -4 40 40">
	<path fill="none" stroke="#ffffff" stroke-width="6" stroke-linejoin="round" opacity="0" class="stroke" d="M16,1.466C7.973,1.466,1.466,7.973,1.466,16c0,8.027,6.507,14.534,14.534,14.534c8.027,0,14.534-6.507,14.534-14.534C30.534,7.973,24.027,1.466,16,1.466zM13.665,25.725l-3.536-3.539l6.187-6.187l-6.187-6.187l3.536-3.536l9.724,9.723L13.665,25.725z"/>
	<path fill="#000000" stroke="none" opacity="1" class="fill" d="M16,1.466C7.973,1.466,1.466,7.973,1.466,16c0,8.027,6.507,14.534,14.534,14.534c8.027,0,14.534-6.507,14.534-14.534C30.534,7.973,24.027,1.466,16,1.466zM13.665,25.725l-3.536-3.539l6.187-6.187l-6.187-6.187l3.536-3.536l9.724,9.723L13.665,25.725z"/>
</svg>
