<svg height="256" version="1.1" width="256" xmlns="http://www.w3.org/2000/svg" xmlns:xlink="http://www.w3.org/1999/xlink" viewBox="-2 -2 32 32">
	<defs>
		<linearGradient id="active-stroke" x1="0%" y1="0%" x2="0%" y2="100%">
			<stop offset="0%" style="stop-color:#fff;stop-opacity:0.86"/>
			<stop offset="100%" style="stop-color:#fff;stop-opacity:0.62"/>
		</linearGradient>
		<linearGradient id="active-fill" x1="0%" y1="0%" x2="0%" y2="100%">
			<stop offset="0%" style="stop-color:#333;stop-opacity:1"/>
			<stop offset="100%" style="stop-color:#000;stop-opacity:1"/>
		</linearGradient>
		<linearGradient id="hover-stroke" x1="0%" y1="0%" x2="0%" y2="100%">
			<stop offset="0%" style="stop-color:#fff;stop-opacity:1"/>
			<stop offset="100%" style="stop-color:#ddd;stop-opacity:0.62"/>
		</linearGradient>
		<linearGradient id="hover-fill" x1="0%" y1="0%" x2="0%" y2="100%">
			<stop offset="0%" style="stop-color:#88B;stop-opacity:1"/>
			<stop offset="100%" style="stop-color:#78C;stop-opacity:1"/>
		</linearGradient>
		<linearGradient id="default-stroke" x1="0%" y1="0%" x2="0%" y2="100%">
			<stop offset="0%" style="stop-color:#fff;stop-opacity:0.62"/>
			<stop offset="100%" style="stop-color:#fff;stop-opacity:0.38"/>
		</linearGradient>
		<linearGradient id="default-fill" x1="0%" y1="0%" x2="0%" y2="100%">
			<stop offset="0%" style="stop-color:#999;stop-opacity:1"/>
			<stop offset="100%" style="stop-color:#666;stop-opacity:1"/>
		</linearGradient>
		<path id="path" d="
M 1.378204 9.327572
c -1.447749 -1.664593 -1.738734 -3.936666 -0.951082 -5.846801
l 2.906659 3.389774
l 2.865204 -0.557256
L 7.148472 3.553317
l -2.899484 -3.381801
c 1.994641 -0.502247 4.191776 0.103638 5.633147 1.761853
c 1.520296 1.748300 1.769028 4.168656 0.828310 6.133003
L 18.287211 16.779175
c 0.805988 0.926368 0.707931 2.331068 -0.218438 3.137056
c -0.926368 0.805191 -2.331068 0.707931 -3.137056 -0.218438
l -7.567997 -8.704033
C 5.280589 11.665017 2.905674 11.083845 1.378204 9.327572
z
Z
		"/>
		<style type="text/css"><![CDATA[
			.fill {
				stroke: none;
			}
			.fill.default {
				fill: url(#default-fill);
			}
			.fill.hover {
				fill: url(#hover-fill);
			}
			.fill.active {
				fill: url(#active-fill);
			}
			.stroke {
				fill: none;
				stroke-width: 4;
				stroke-linejoin: round;
			}
			.stroke.default {
				stroke: url(#default-stroke)
			}
			.stroke.hover {
				stroke: url(#hover-stroke)
			}
			.stroke.active {
				stroke: url(#active-stroke)
			}
		]]></style>
	</defs>
	<rect x="-2" y="-2" width="100%" height="100%" r="0" rx="0" ry="0" fill="white" stroke="none" opacity="0"/>
	<g transform="translate(0,0)">
		<g transform="scale(1)">
			<use id="stroke" xlink:href="#path" stroke="url(#hover-stroke)" fill="none"/>
			<use id="fill" xlink:href="#path" stroke="none" fill="url(#hover-fill)"/>
		</g>
	</g>
</svg>
