<svg height="256" version="1.1" width="256" xmlns="http://www.w3.org/2000/svg" xmlns:xlink="http://www.w3.org/1999/xlink" viewBox="-2 -2 32 32">
	<defs>
		<linearGradient id="active-stroke" x1="0%" y1="0%" x2="0%" y2="100%">
			<stop offset="0%" style="stop-color:#fff;stop-opacity:0.86"/>
			<stop offset="100%" style="stop-color:#fff;stop-opacity:0.62"/>
		</linearGradient>
		<linearGradient id="active-fill" x1="0%" y1="0%" x2="0%" y2="100%">
			<stop offset="0%" style="stop-color:#333;stop-opacity:1"/>
			<stop offset="100%" style="stop-color:#000;stop-opacity:1"/>
		</linearGradient>
		<linearGradient id="hover-stroke" x1="0%" y1="0%" x2="0%" y2="100%">
			<stop offset="0%" style="stop-color:#fff;stop-opacity:1"/>
			<stop offset="100%" style="stop-color:#ddd;stop-opacity:0.62"/>
		</linearGradient>
		<linearGradient id="hover-fill" x1="0%" y1="0%" x2="0%" y2="100%">
			<stop offset="0%" style="stop-color:#88B;stop-opacity:1"/>
			<stop offset="100%" style="stop-color:#78C;stop-opacity:1"/>
		</linearGradient>
		<linearGradient id="default-stroke" x1="0%" y1="0%" x2="0%" y2="100%">
			<stop offset="0%" style="stop-color:#fff;stop-opacity:0.62"/>
			<stop offset="100%" style="stop-color:#fff;stop-opacity:0.38"/>
		</linearGradient>
		<linearGradient id="default-fill" x1="0%" y1="0%" x2="0%" y2="100%">
			<stop offset="0%" style="stop-color:#999;stop-opacity:1"/>
			<stop offset="100%" style="stop-color:#666;stop-opacity:1"/>
		</linearGradient>
		<path id="path" d="
M 0.000000 5.248854
v 7.305650
h 4.158928
l 6.225901 5.112844
l 0.003701 -17.531338
l -6.226826 5.112844
H 4.624321
z
M 12.775634 4.408741
c -0.363617 -0.359916 -0.947440 -0.359916 -1.309207 0.001850
c -0.360841 0.361767 -0.360841 0.947440 0.001850 1.310132
v -0.001850
c 0.798477 0.799402 1.290701 1.895805 1.290701 3.114338
c 0.000000 1.217608 -0.491299 2.310310 -1.288851 3.109712
c -0.364542 0.359916 -0.364542 0.945589 -0.001850 1.309207
c 0.180420 0.180420 0.417281 0.271093 0.654141 0.271093
c 0.237785 0.000000 0.474645 -0.090673 0.655066 -0.271093
c 1.130636 -1.128786 1.831964 -2.697058 1.831039 -4.418918
C 14.609449 7.107649 13.905345 5.537527 12.775634 4.408741
z
Z
		"/>
		<style type="text/css"><![CDATA[
			.fill {
				stroke: none;
			}
			.fill.default {
				fill: url(#default-fill);
			}
			.fill.hover {
				fill: url(#hover-fill);
			}
			.fill.active {
				fill: url(#active-fill);
			}
			.stroke {
				fill: none;
				stroke-width: 4;
				stroke-linejoin: round;
			}
			.stroke.default {
				stroke: url(#default-stroke)
			}
			.stroke.hover {
				stroke: url(#hover-stroke)
			}
			.stroke.active {
				stroke: url(#active-stroke)
			}
		]]></style>
	</defs>
	<rect x="-2" y="-2" width="100%" height="100%" r="0" rx="0" ry="0" fill="white" stroke="none" opacity="0"/>
	<g transform="translate(0,0)">
		<g transform="scale(1)">
			<use id="stroke" xlink:href="#path" stroke="url(#default-stroke)" fill="none"/>
			<use id="fill" xlink:href="#path" stroke="none" fill="url(#default-fill)"/>
		</g>
	</g>
</svg>
