<?xml version="1.0" encoding="UTF-8" standalone="no"?>
<!-- Created with Inkscape (http://www.inkscape.org/) -->

<svg
   xmlns:dc="http://purl.org/dc/elements/1.1/"
   xmlns:cc="http://creativecommons.org/ns#"
   xmlns:rdf="http://www.w3.org/1999/02/22-rdf-syntax-ns#"
   xmlns:svg="http://www.w3.org/2000/svg"
   xmlns="http://www.w3.org/2000/svg"
   xmlns:sodipodi="http://sodipodi.sourceforge.net/DTD/sodipodi-0.dtd"
   xmlns:inkscape="http://www.inkscape.org/namespaces/inkscape"
   width="398.89096"
   height="452.91388"
   id="svg2"
   sodipodi:version="0.32"
   inkscape:version="0.48.0 r9654"
   sodipodi:docname="ayah.svg"
   inkscape:output_extension="org.inkscape.output.svg.inkscape"
   version="1.1">
  <defs
     id="defs4">
    <inkscape:perspective
       sodipodi:type="inkscape:persp3d"
       inkscape:vp_x="0 : 526.18109 : 1"
       inkscape:vp_y="0 : 1000 : 0"
       inkscape:vp_z="744.09448 : 526.18109 : 1"
       inkscape:persp3d-origin="372.04724 : 350.78739 : 1"
       id="perspective10" />
  </defs>
  <sodipodi:namedview
     id="base"
     pagecolor="#ffffff"
     bordercolor="#666666"
     borderopacity="1.0"
     gridtolerance="10000"
     guidetolerance="10"
     objecttolerance="10"
     inkscape:pageopacity="0.0"
     inkscape:pageshadow="2"
     inkscape:zoom="0.7"
     inkscape:cx="104.48129"
     inkscape:cy="-35.085822"
     inkscape:document-units="px"
     inkscape:current-layer="layer1"
     showgrid="false"
     inkscape:window-width="1920"
     inkscape:window-height="1027"
     inkscape:window-x="0"
     inkscape:window-y="30"
     fit-margin-top="0"
     fit-margin-left="0"
     fit-margin-right="0"
     fit-margin-bottom="0"
     inkscape:window-maximized="1" />
  <metadata
     id="metadata7">
    <rdf:RDF>
      <cc:Work
         rdf:about="">
        <dc:format>image/svg+xml</dc:format>
        <dc:type
           rdf:resource="http://purl.org/dc/dcmitype/StillImage" />
        <dc:title></dc:title>
      </cc:Work>
    </rdf:RDF>
  </metadata>
  <g
     inkscape:label="Layer 1"
     inkscape:groupmode="layer"
     id="layer1"
     transform="translate(-144.2693,-215.67007)">
    <path
       style="fill:#000000;fill-opacity:1;fill-rule:evenodd;stroke:none;stroke-opacity:1;stroke-width:10;stroke-miterlimit:4;stroke-dasharray:none;stroke-linecap:butt;stroke-linejoin:miter"
       d="M 198.75 -5.03125 C 198.40479 -5.0332325 198.12536 -5.01016 197.90625 -4.96875 C 197.46803 -4.88595 197.27495 -4.76158 197.34375 -4.78125 L 195.5625 -4.28125 L 194.5625 -2.75 C 183.13238 14.46552 161.42638 21.80448 140.875 29.59375 C 140.866 29.59675 140.85275 29.59075 140.84375 29.59375 C 121.6263 36.82437 102.61353 44.02362 83.0625 48.9375 L 82.9375 48.96875 L 82.84375 49 C 57.72093 56.58732 30.75173 62.37742 6.8125 76.53125 L 6.84375 76.59375 C 6.19599 76.8904 5.57223 77.13043 4.8125 77.84375 C 3.85124 78.74629 2.64485 81.05163 3.09375 83.125 C 3.54265 85.19837 4.6527 86.04616 5.3125 86.5625 C 5.9723 87.07884 6.48016 87.32163 6.9375 87.5625 C 7.81282 88.02352 8.47292 88.37902 8.84375 88.59375 L 9.25 89.0625 C 17.79298 99.38619 17.62631 115.06743 15.78125 129.59375 C 13.32312 144.84806 4.1421 159.45603 0.78125 177.15625 C 0.77625 177.17605 0.78625 177.19885 0.78125 177.21875 C 0.76705 177.29415 0.73275 177.36203 0.71875 177.4375 C -9.91474 220.97824 -5.48183 267.6606 12.34375 308.53125 L 12.3125 308.53125 C 17.61773 325.42074 17.81824 345.09623 8.9375 359.9375 L 8.6875 360.3125 L 8.5625 360.625 C 8.531986 360.53104 7.84956 361.48288 6.75 362.40625 C 6.12168 362.93389 5.41411 363.4764 4.65625 364.21875 C 3.89839 364.9611 2.84319 365.78345 2.3125 368.03125 L 1.53125 371.4375 L 4.4375 373.34375 C 25.31501 387.15336 49.63734 392.55603 71.84375 399.40625 L 71.90625 399.4375 L 71.96875 399.4375 C 94.48411 405.64258 116.72283 411.93235 137.625 421.375 L 137.6875 421.40625 L 137.75 421.40625 C 158.83217 430.34236 180.77362 438.58107 194.53125 455.21875 C 195.04992 455.961 195.71734 456.73023 196.875 457.3125 C 198.36982 458.06435 200.47794 458.00861 201.75 457.5 C 204.29411 456.48279 204.80746 455.17703 205.5 454.21875 C 206.19254 453.26047 206.7482 452.40485 207.15625 451.84375 C 207.34713 451.58128 207.52831 451.43129 207.59375 451.375 C 207.59875 451.371 207.6218 451.34655 207.625 451.34375 L 207.84375 451.25 L 208.40625 450.65625 C 228.12985 430.70253 257.44646 423.39803 284.75 411.90625 C 318.13734 400.37974 354.62807 394.27045 387.3125 376.75 L 387.78125 376.5 L 388.21875 376.125 C 388.02424 376.29436 388.63552 375.84551 389.40625 375.40625 C 390.17698 374.96699 391.13266 374.45348 392.21875 373.59375 C 392.76179 373.16389 393.38092 372.66449 394 371.71875 C 394.61908 370.77301 395.22796 369.0955 394.90625 367.34375 C 394.58454 365.592 393.53093 364.35054 392.625 363.625 C 392.19258 363.27869 391.7663 363.13618 391.34375 362.90625 C 380.1417 351.65008 380.3311 332.66032 384.03125 316.5625 C 384.03625 316.5428 384.02625 316.5197 384.03125 316.5 C 388.54007 301.46646 396.17761 286.51292 399.15625 269.40625 C 399.16725 269.34295 399.1767 269.28211 399.1875 269.21875 C 408.07727 226.9846 404.72606 181.47192 386 142.03125 C 380.36022 125.82936 379.1509 106.79021 387.15625 92.125 L 387.28125 91.90625 L 387.375 91.65625 C 387.49345 91.37551 388.28922 90.36612 389.46875 89.3125 C 390.64828 88.25888 392.03678 87.32251 393.5 85.5625 L 397.0625 81.28125 L 392.40625 78.21875 C 370.37071 63.59597 344.78564 57.99649 321.25 50.5625 L 321.15625 50.53125 L 321.0625 50.53125 C 300.06573 44.87341 279.48329 38.1419 259.3125 30 L 259.28125 29.96875 C 240.01374 22.25165 219.99757 15.92468 206.71875 1.96875 L 206.375 1.59375 L 205.96875 1.3125 C 206.83508 1.92043 205.82146 0.99241 205.125 -0.1875 C 204.77677 -0.77746 204.39465 -1.435 203.84375 -2.1875 C 203.29285 -2.94 202.89183 -4.2997 199.96875 -4.90625 C 199.50619 -5.00223 199.09521 -5.0292675 198.75 -5.03125 z M 195.78125 3.71875 C 195.7911 3.7321955 195.8397 3.8169738 195.875 3.875 C 195.86576 3.8864921 195.853 3.8947672 195.84375 3.90625 C 195.75555 3.769087 195.75457 3.6823088 195.78125 3.71875 z M 200.53125 36.625 C 209.23449 36.93945 215.78523 48.88606 210.71875 56.3125 L 210.5625 56.5 L 210.46875 56.71875 C 206.0567 64.77573 191.97342 64.43461 188 56.125 L 187.90625 55.9375 L 187.8125 55.75 C 183.28392 47.99793 189.64997 36.98553 198.40625 36.65625 C 198.68535 36.64575 198.99642 36.64555 199.28125 36.65625 L 199.46875 36.65625 L 199.6875 36.65625 C 200.18526 36.63455 200.46138 36.6224 200.53125 36.625 z M 102.65625 74.65625 C 93.22329 82.09211 85.90827 92.0477 82.53125 103.90625 C 77.08214 103.98995 71.41237 104.35141 65.75 106.03125 C 65.6835 106.04695 65.62869 106.07765 65.5625 106.09375 C 65.521 106.10625 65.479 106.1124 65.4375 106.125 C 57.81397 108.00785 52.08736 112.42339 47.46875 117.65625 C 47.65466 109.29726 46.79534 100.87466 44.3125 92.6875 C 44.86416 92.46511 45.00284 92.41445 45.84375 92.09375 C 45.86575 92.08775 45.88425 92.0689 45.90625 92.0625 C 64.9084 86.52952 83.83947 80.75442 102.65625 74.65625 z M 297.25 74.75 C 316.92958 80.5746 336.49592 86.23434 355.3125 93.53125 C 353.28016 101.22134 352.18879 109.12448 352.125 117.09375 C 342.76598 108.21108 330.03596 103.20331 317.03125 103.15625 C 313.91849 91.64144 306.50597 81.79725 297.25 74.75 z M 167.96875 76.875 C 171.91445 77.34609 175.3402 79.42076 178.78125 82.6875 C 182.36079 86.08572 185.71344 90.6077 189.1875 94.78125 L 189.25 94.875 L 189.3125 94.9375 C 190.02389 95.73239 191.12207 97.36981 192.25 99.09375 C 193.37793 100.81769 194.35021 102.58757 196.40625 104.28125 L 200.5625 107.71875 L 203.6875 103.34375 C 211.2232 92.70986 218.57894 81.85675 228.9375 77.21875 C 236.8351 76.50801 245.26781 82.45903 255.625 86.375 C 266.03595 91.41881 276.6719 95.96774 284 102.90625 C 288.42685 109.73484 287.52015 119.89731 290.03125 130.875 L 290.96875 134.90625 L 295.125 134.75 C 308.08269 134.20121 320.46278 131.0941 329.21875 136.1875 C 342.02461 153.11802 350.11132 173.8193 354.53125 194.90625 C 354.53525 194.92645 354.52725 194.94855 354.53125 194.96875 C 362.73889 236.02006 354.00735 280.61162 329.875 314.78125 C 322.62598 319.64971 311.63556 317.94122 300.375 317.40625 C 298.62114 316.83513 296.76374 316.49685 294.75 317.21875 C 292.26262 318.11044 290.77883 320.41146 290.21875 322.0625 C 289.10436 325.34757 289.4635 327.91684 289.3125 329.4375 C 289.31172 329.4455 289.31331 329.46095 289.3125 329.46875 C 288.78411 334.52378 288.02849 339.88763 286.375 344.15625 C 284.71819 348.43343 282.4893 351.43421 278.5 353.15625 L 278.15625 353.3125 L 277.875 353.46875 C 264.39198 361.67332 249.92848 368.49914 235.0625 373.875 L 234.875 373.90625 L 234.71875 374 C 231.13541 375.58317 228.58704 374.80179 225.125 372.53125 C 221.68934 370.27801 218.12897 366.40616 215 362.90625 C 214.9759 362.87815 214.9616 362.8406 214.9375 362.8125 C 210.88176 358.07591 207.11855 352.92699 203.5 347.625 L 199.625 341.90625 L 195.40625 347.40625 C 187.14702 358.18338 180.22216 369.72373 169.8125 374.40625 C 162.21707 375.07778 154.0121 369.45931 144.0625 365.59375 L 144.0625 365.5625 C 133.43713 360.60173 122.83851 355.58451 114.5625 348.65625 C 109.24485 341.7503 108.30141 331.73737 108.40625 321.71875 L 108.46875 316.71875 L 103.46875 316.65625 C 96.67421 316.56235 90.1017 317.76384 84.15625 318.0625 C 78.5534 318.34395 73.79405 317.8149 69.65625 315.5 C 45.956 282.67898 36.68028 239.80737 43.4375 199.8125 C 47.32565 177.11525 55.73858 154.86093 69.28125 136.53125 C 76.97933 131.81561 88.38206 134.43022 100.375 134.6875 C 101.25724 134.90099 102.19468 135.05046 103.28125 134.90625 C 104.73001 134.71397 106.33232 133.85473 107.3125 132.75 C 109.27287 130.54054 109.2004 128.59283 109.25 127.15625 C 109.2996 125.71967 109.1937 124.49232 109.1875 123.625 C 109.18375 123.08292 109.29056 122.69686 109.28125 122.65625 L 109.5 122.1875 L 109.5625 121.3125 C 110.01782 116.3206 110.91676 111.00885 112.71875 106.8125 C 114.52074 102.61615 116.93315 99.64257 121.03125 97.96875 L 121.40625 97.8125 L 121.71875 97.625 C 134.89286 89.70406 149.03582 83.11433 163.5 77.84375 C 165.38994 77.368 166.8613 76.97907 167.96875 76.875 z M 46.4375 333.9375 C 55.66277 343.26223 68.55973 348.66849 81.8125 348.78125 C 85.29791 360.41215 93.07664 370.20656 102.4375 377.25 C 82.23325 371.31648 62.06425 365.78011 42.78125 358.53125 C 44.85143 350.70322 46.16329 342.40015 46.4375 333.9375 z M 352.40625 334.59375 C 352.29937 342.65759 353.10853 350.76372 355.65625 358.59375 C 336.831 365.49987 317.31725 371.26929 297.71875 377.25 C 306.90683 369.91809 314.02596 360.10477 317.34375 348.5 C 323.34426 348.31982 329.6485 347.76484 335.84375 345.59375 C 335.95762 345.55385 336.07378 345.5409 336.1875 345.5 L 336.1875 345.46875 C 343.07372 343.45379 348.24474 339.37729 352.40625 334.59375 z M 200.53125 391.25 C 209.23448 391.56443 215.78523 403.51106 210.71875 410.9375 L 210.5625 411.125 L 210.4375 411.375 C 206.03742 419.46878 191.98459 419.07721 188.03125 410.75 L 187.9375 410.5625 L 187.8125 410.375 C 183.28391 402.62289 189.64996 391.61053 198.40625 391.28125 C 198.68535 391.27075 198.99642 391.27055 199.28125 391.28125 L 199.46875 391.28125 L 199.6875 391.28125 C 200.18515 391.25945 200.46127 391.2474 200.53125 391.25 z "
       transform="translate(144.2693,215.67007)"
       id="path2383" />
  </g>
</svg>
