<svg height="28" version="1.1" width="28" xmlns="http://www.w3.org/2000/svg" viewBox="-4 -4 40 40">
	<path fill="none" stroke="#ffffff" stroke-width="6" stroke-linejoin="round" opacity="1" class="stroke" d="M17.396,1.841L6.076,25.986l7.341-4.566l1.186,8.564l11.32-24.146L17.396,1.841zM19.131,9.234c-0.562-0.264-0.805-0.933-0.541-1.495c0.265-0.562,0.934-0.805,1.496-0.541s0.805,0.934,0.541,1.496S19.694,9.498,19.131,9.234z"/>
	<path fill="#333333" stroke="none" opacity="0.62" class="fill" d="M17.396,1.841L6.076,25.986l7.341-4.566l1.186,8.564l11.32-24.146L17.396,1.841zM19.131,9.234c-0.562-0.264-0.805-0.933-0.541-1.495c0.265-0.562,0.934-0.805,1.496-0.541s0.805,0.934,0.541,1.496S19.694,9.498,19.131,9.234z"/>
</svg>
