<svg height="28" version="1.1" width="28" xmlns="http://www.w3.org/2000/svg" viewBox="-4 -4 40 40">
	<path fill="none" stroke="#ffffff" stroke-width="6" stroke-linejoin="round" opacity="0" class="stroke" d="M16,1.466C7.973,1.466,1.466,7.973,1.466,16c0,8.027,6.507,14.534,14.534,14.534c8.027,0,14.534-6.507,14.534-14.534C30.534,7.973,24.027,1.466,16,1.466zM16,27.533C9.639,27.533,4.466,22.359,4.466,16C4.466,9.64,9.639,4.466,16,4.466c6.361,0,11.533,5.173,11.533,11.534C27.533,22.361,22.359,27.533,16,27.533zM15.999,5.125c-0.553,0-0.999,0.448-0.999,1v9.221L8.954,17.99c-0.506,0.222-0.736,0.812-0.514,1.318c0.164,0.375,0.53,0.599,0.915,0.599c0.134,0,0.271-0.027,0.401-0.085l6.626-2.898c0.005-0.002,0.009-0.004,0.013-0.006l0.004-0.002c0.015-0.006,0.023-0.02,0.037-0.025c0.104-0.052,0.201-0.113,0.279-0.195c0.034-0.034,0.053-0.078,0.079-0.117c0.048-0.064,0.101-0.127,0.13-0.204c0.024-0.06,0.026-0.125,0.038-0.189C16.975,16.121,17,16.064,17,15.999V6.124C17,5.573,16.552,5.125,15.999,5.125z"/>
	<path fill="#000000" stroke="none" opacity="1" class="fill" d="M16,1.466C7.973,1.466,1.466,7.973,1.466,16c0,8.027,6.507,14.534,14.534,14.534c8.027,0,14.534-6.507,14.534-14.534C30.534,7.973,24.027,1.466,16,1.466zM16,27.533C9.639,27.533,4.466,22.359,4.466,16C4.466,9.64,9.639,4.466,16,4.466c6.361,0,11.533,5.173,11.533,11.534C27.533,22.361,22.359,27.533,16,27.533zM15.999,5.125c-0.553,0-0.999,0.448-0.999,1v9.221L8.954,17.99c-0.506,0.222-0.736,0.812-0.514,1.318c0.164,0.375,0.53,0.599,0.915,0.599c0.134,0,0.271-0.027,0.401-0.085l6.626-2.898c0.005-0.002,0.009-0.004,0.013-0.006l0.004-0.002c0.015-0.006,0.023-0.02,0.037-0.025c0.104-0.052,0.201-0.113,0.279-0.195c0.034-0.034,0.053-0.078,0.079-0.117c0.048-0.064,0.101-0.127,0.13-0.204c0.024-0.06,0.026-0.125,0.038-0.189C16.975,16.121,17,16.064,17,15.999V6.124C17,5.573,16.552,5.125,15.999,5.125z"/>
</svg>
