<svg height="28" version="1.1" width="28" xmlns="http://www.w3.org/2000/svg" viewBox="-4 -4 40 40">
	<path fill="none" stroke="#ffffff" stroke-width="6" stroke-linejoin="round" opacity="0" class="stroke" d="M16,1.466C7.973,1.466,1.466,7.973,1.466,16c0,8.027,6.507,14.534,14.534,14.534c8.027,0,14.534-6.507,14.534-14.534C30.534,7.973,24.027,1.466,16,1.466zM16,28.792c-1.549,0-2.806-1.256-2.806-2.806s1.256-2.806,2.806-2.806c1.55,0,2.806,1.256,2.806,2.806S17.55,28.792,16,28.792zM16,21.087l-7.858-6.562h3.469V5.747h8.779v8.778h3.468L16,21.087z"/>
	<path fill="#000000" stroke="none" opacity="1" class="fill" d="M16,1.466C7.973,1.466,1.466,7.973,1.466,16c0,8.027,6.507,14.534,14.534,14.534c8.027,0,14.534-6.507,14.534-14.534C30.534,7.973,24.027,1.466,16,1.466zM16,28.792c-1.549,0-2.806-1.256-2.806-2.806s1.256-2.806,2.806-2.806c1.55,0,2.806,1.256,2.806,2.806S17.55,28.792,16,28.792zM16,21.087l-7.858-6.562h3.469V5.747h8.779v8.778h3.468L16,21.087z"/>
</svg>
