<svg height="28" version="1.1" width="28" xmlns="http://www.w3.org/2000/svg" viewBox="-4 -4 40 40">
	<path fill="none" stroke="#ffffff" stroke-width="6" stroke-linejoin="round" opacity="0" class="stroke" d="M24.086,20.904c-1.805,3.113-5.163,5.212-9.023,5.219c-5.766-0.01-10.427-4.672-10.438-10.435C4.636,9.922,9.297,5.261,15.063,5.25c3.859,0.007,7.216,2.105,9.022,5.218l3.962,2.284l0.143,0.082C26.879,6.784,21.504,2.25,15.063,2.248C7.64,2.25,1.625,8.265,1.624,15.688c0.002,7.42,6.017,13.435,13.439,13.437c6.442-0.002,11.819-4.538,13.127-10.589l-0.141,0.081L24.086,20.904zM28.4,15.688l-7.15-4.129v2.297H10.275v3.661H21.25v2.297L28.4,15.688z"/>
	<path fill="#000000" stroke="none" opacity="1" class="fill" d="M24.086,20.904c-1.805,3.113-5.163,5.212-9.023,5.219c-5.766-0.01-10.427-4.672-10.438-10.435C4.636,9.922,9.297,5.261,15.063,5.25c3.859,0.007,7.216,2.105,9.022,5.218l3.962,2.284l0.143,0.082C26.879,6.784,21.504,2.25,15.063,2.248C7.64,2.25,1.625,8.265,1.624,15.688c0.002,7.42,6.017,13.435,13.439,13.437c6.442-0.002,11.819-4.538,13.127-10.589l-0.141,0.081L24.086,20.904zM28.4,15.688l-7.15-4.129v2.297H10.275v3.661H21.25v2.297L28.4,15.688z"/>
</svg>
