<svg height="28" version="1.1" width="28" xmlns="http://www.w3.org/2000/svg" viewBox="-4 -4 40 40">
	<path fill="none" stroke="#ffffff" stroke-width="6" stroke-linejoin="round" opacity="0" class="stroke" d="M4.135,16.762c3.078,0,5.972,1.205,8.146,3.391c2.179,2.187,3.377,5.101,3.377,8.202h4.745c0-9.008-7.299-16.335-16.269-16.335V16.762zM4.141,8.354c10.973,0,19.898,8.975,19.898,20.006h4.743c0-13.646-11.054-24.749-24.642-24.749V8.354zM10.701,25.045c0,1.815-1.471,3.287-3.285,3.287s-3.285-1.472-3.285-3.287c0-1.813,1.471-3.285,3.285-3.285S10.701,23.231,10.701,25.045z"/>
	<path fill="#000000" stroke="none" opacity="1" class="fill" d="M4.135,16.762c3.078,0,5.972,1.205,8.146,3.391c2.179,2.187,3.377,5.101,3.377,8.202h4.745c0-9.008-7.299-16.335-16.269-16.335V16.762zM4.141,8.354c10.973,0,19.898,8.975,19.898,20.006h4.743c0-13.646-11.054-24.749-24.642-24.749V8.354zM10.701,25.045c0,1.815-1.471,3.287-3.285,3.287s-3.285-1.472-3.285-3.287c0-1.813,1.471-3.285,3.285-3.285S10.701,23.231,10.701,25.045z"/>
</svg>
