<svg height="28" version="1.1" width="28" xmlns="http://www.w3.org/2000/svg" viewBox="-4 -4 40 40">
	<path fill="none" stroke="#ffffff" stroke-width="6" stroke-linejoin="round" opacity="0" class="stroke" d="M21.77,8.895c-2.379,0-4.479,1.174-5.77,2.969c-1.289-1.795-3.39-2.969-5.77-2.969c-3.924,0-7.105,3.181-7.105,7.105c0,3.924,3.181,7.105,7.105,7.105c2.379,0,4.48-1.175,5.77-2.97c1.29,1.795,3.391,2.97,5.77,2.97c3.925,0,7.105-3.182,7.105-7.105C28.875,12.075,25.694,8.895,21.77,8.895zM21.769,21.822c-3.211,0-5.821-2.61-5.821-5.821c0-3.213,2.61-5.824,5.821-5.824c3.213,0,5.824,2.611,5.824,5.824C27.593,19.212,24.981,21.822,21.769,21.822z"/>
	<path fill="#000000" stroke="none" opacity="1" class="fill" d="M21.77,8.895c-2.379,0-4.479,1.174-5.77,2.969c-1.289-1.795-3.39-2.969-5.77-2.969c-3.924,0-7.105,3.181-7.105,7.105c0,3.924,3.181,7.105,7.105,7.105c2.379,0,4.48-1.175,5.77-2.97c1.29,1.795,3.391,2.97,5.77,2.97c3.925,0,7.105-3.182,7.105-7.105C28.875,12.075,25.694,8.895,21.77,8.895zM21.769,21.822c-3.211,0-5.821-2.61-5.821-5.821c0-3.213,2.61-5.824,5.821-5.824c3.213,0,5.824,2.611,5.824,5.824C27.593,19.212,24.981,21.822,21.769,21.822z"/>
</svg>
