<svg height="28" version="1.1" width="28" xmlns="http://www.w3.org/2000/svg" viewBox="-4 -4 40 40">
	<path fill="none" stroke="#ffffff" stroke-width="6" stroke-linejoin="round" opacity="0" class="stroke" d="M15.5,21.082h1.001v-2.001H15.5V21.082zM15.5,25.082h1.001v-2H15.5V25.082zM15.5,29.082h1.001v-2H15.5V29.082zM15.5,32.127h1.001v-1.045H15.5V32.127zM15.5,17.083h1.001v-2H15.5V17.083zM15.5,1.083h1.001v-2H15.5V1.083zM15.5,5.083h1.001v-2H15.5V5.083zM15.5,9.083h1.001v-2H15.5V9.083zM15.5,13.083h1.001v-2H15.5V13.083zM18.832,1.203v25.962h14.093L18.832,1.203zM19.832,5.136l11.41,21.03h-11.41V5.136zM13.113,27.165V1.203L-0.979,27.165H13.113z"/>
	<path fill="#000000" stroke="none" opacity="1" class="fill" d="M15.5,21.082h1.001v-2.001H15.5V21.082zM15.5,25.082h1.001v-2H15.5V25.082zM15.5,29.082h1.001v-2H15.5V29.082zM15.5,32.127h1.001v-1.045H15.5V32.127zM15.5,17.083h1.001v-2H15.5V17.083zM15.5,1.083h1.001v-2H15.5V1.083zM15.5,5.083h1.001v-2H15.5V5.083zM15.5,9.083h1.001v-2H15.5V9.083zM15.5,13.083h1.001v-2H15.5V13.083zM18.832,1.203v25.962h14.093L18.832,1.203zM19.832,5.136l11.41,21.03h-11.41V5.136zM13.113,27.165V1.203L-0.979,27.165H13.113z"/>
</svg>
