<svg height="28" version="1.1" width="28" xmlns="http://www.w3.org/2000/svg" viewBox="-4 -4 40 40">
	<path fill="none" stroke="#ffffff" stroke-width="6" stroke-linejoin="round" opacity="0" class="stroke" d="M21.45,16.078v-1.001h-2.001v1.001H21.45zM25.45,16.078v-1.001h-2v1.001H25.45zM29.45,16.078v-1.001h-2v1.001H29.45zM32.495,16.078v-1.001H31.45v1.001H32.495zM17.451,16.078v-1.001h-2v1.001H17.451zM1.451,16.078v-1.001h-2v1.001H1.451zM5.451,16.078v-1.001h-2v1.001H5.451zM9.452,16.078v-1.001h-2v1.001H9.452zM13.452,16.078v-1.001h-2v1.001H13.452zM1.571,12.745h25.962V-1.348L1.571,12.745zM5.504,11.745l21.03-11.41v11.41H5.504zM27.533,18.464H1.571l25.962,14.093V18.464z"/>
	<path fill="#000000" stroke="none" opacity="1" class="fill" d="M21.45,16.078v-1.001h-2.001v1.001H21.45zM25.45,16.078v-1.001h-2v1.001H25.45zM29.45,16.078v-1.001h-2v1.001H29.45zM32.495,16.078v-1.001H31.45v1.001H32.495zM17.451,16.078v-1.001h-2v1.001H17.451zM1.451,16.078v-1.001h-2v1.001H1.451zM5.451,16.078v-1.001h-2v1.001H5.451zM9.452,16.078v-1.001h-2v1.001H9.452zM13.452,16.078v-1.001h-2v1.001H13.452zM1.571,12.745h25.962V-1.348L1.571,12.745zM5.504,11.745l21.03-11.41v11.41H5.504zM27.533,18.464H1.571l25.962,14.093V18.464z"/>
</svg>
