<svg height="28" version="1.1" width="28" xmlns="http://www.w3.org/2000/svg" viewBox="-4 -4 40 40">
	<path fill="none" stroke="#ffffff" stroke-width="6" stroke-linejoin="round" opacity="0" class="stroke" d="M29.124,12.75c-0.004-2.208-1.792-3.997-3.999-4V8.749H12.868c-0.505-1.622-2.011-2.808-3.805-2.811H6.188c-2.208,0.002-3.997,1.792-4.001,4v14.188c0.004,2.206,1.793,3.995,4.001,3.999h18.938c2.205-0.004,3.995-1.793,3.999-3.999V12.75zM6.188,7.937h2.875c1.046-0.004,1.917,0.834,1.983,1.876l0.058,0.937h14.022c1.093,0.002,1.997,0.906,1.999,2v0.495c-0.591-0.345-1.268-0.557-2-0.558H6.187c-0.732,0.001-1.41,0.214-2,0.559V9.937C4.19,8.843,5.094,7.939,6.188,7.937zM25.125,26.125H6.188c-1.093-0.002-1.997-0.908-2.001-2v-7.438h0.001c0.002-1.095,0.906-1.999,2-2.001h18.938c1.093,0.002,1.991,0.901,2,1.991v7.447C27.122,25.219,26.218,26.123,25.125,26.125z"/>
	<path fill="#000000" stroke="none" opacity="1" class="fill" d="M29.124,12.75c-0.004-2.208-1.792-3.997-3.999-4V8.749H12.868c-0.505-1.622-2.011-2.808-3.805-2.811H6.188c-2.208,0.002-3.997,1.792-4.001,4v14.188c0.004,2.206,1.793,3.995,4.001,3.999h18.938c2.205-0.004,3.995-1.793,3.999-3.999V12.75zM6.188,7.937h2.875c1.046-0.004,1.917,0.834,1.983,1.876l0.058,0.937h14.022c1.093,0.002,1.997,0.906,1.999,2v0.495c-0.591-0.345-1.268-0.557-2-0.558H6.187c-0.732,0.001-1.41,0.214-2,0.559V9.937C4.19,8.843,5.094,7.939,6.188,7.937zM25.125,26.125H6.188c-1.093-0.002-1.997-0.908-2.001-2v-7.438h0.001c0.002-1.095,0.906-1.999,2-2.001h18.938c1.093,0.002,1.991,0.901,2,1.991v7.447C27.122,25.219,26.218,26.123,25.125,26.125z"/>
</svg>
