<svg height="28" version="1.1" width="28" xmlns="http://www.w3.org/2000/svg" viewBox="-4 -4 40 40">
	<path fill="none" stroke="#ffffff" stroke-width="6" stroke-linejoin="round" opacity="0" class="stroke" d="M26.268,22.562l3.514-2.03l-3.514-2.028l-3.515-2.028v2.256c-0.922-0.002-2.45-0.002-2.883-0.002c-1.28-0.03-2.12-0.431-2.994-1.148c-1.303-1.07-2.415-2.997-3.756-4.853c-0.682-0.923-1.442-1.839-2.454-2.575C9.664,9.415,8.355,8.902,6.9,8.912H0.593v3.604H6.9c0.877,0.016,1.432,0.302,2.189,1.012c1.12,1.055,2.212,3.072,3.718,4.983c1.476,1.893,3.747,3.804,7.041,3.823h2.905v2.256L26.268,22.562zM11.401,8.912c0.04,0.028,0.082,0.053,0.121,0.082c1.202,0.874,2.07,1.947,2.757,2.88c0.158,0.218,0.298,0.428,0.448,0.642h8.026v2.257l3.515-2.028l3.514-2.029l-3.514-2.029l-3.515-2.03v2.255H11.401z"/>
	<path fill="#000000" stroke="none" opacity="1" class="fill" d="M26.268,22.562l3.514-2.03l-3.514-2.028l-3.515-2.028v2.256c-0.922-0.002-2.45-0.002-2.883-0.002c-1.28-0.03-2.12-0.431-2.994-1.148c-1.303-1.07-2.415-2.997-3.756-4.853c-0.682-0.923-1.442-1.839-2.454-2.575C9.664,9.415,8.355,8.902,6.9,8.912H0.593v3.604H6.9c0.877,0.016,1.432,0.302,2.189,1.012c1.12,1.055,2.212,3.072,3.718,4.983c1.476,1.893,3.747,3.804,7.041,3.823h2.905v2.256L26.268,22.562zM11.401,8.912c0.04,0.028,0.082,0.053,0.121,0.082c1.202,0.874,2.07,1.947,2.757,2.88c0.158,0.218,0.298,0.428,0.448,0.642h8.026v2.257l3.515-2.028l3.514-2.029l-3.514-2.029l-3.515-2.03v2.255H11.401z"/>
</svg>
