<svg height="28" version="1.1" width="28" xmlns="http://www.w3.org/2000/svg" viewBox="-4 -4 40 40">
	<path fill="none" stroke="#ffffff" stroke-width="6" stroke-linejoin="round" opacity="0" class="stroke" d="M28.832,16.104c0-1.477-0.574-2.863-1.617-3.905l-7.002-7.001L20.211,5.2c-1.027-1.03-2.445-1.62-3.9-1.62c-1.455,0-2.871,0.59-3.9,1.621l-0.002-0.002l-7,7c-1.033,1.031-1.619,2.445-1.619,3.905c0,1.458,0.586,2.872,1.619,3.903l6.312,6.312c0.253,0.284,0.519,0.55,0.8,0.794c1.049,0.994,2.463,1.54,3.908,1.51c1.417-0.028,2.783-0.612,3.785-1.615l6.811-6.811c0.018-0.017,0.035-0.034,0.053-0.052l0.137-0.138c0.27-0.268,0.49-0.564,0.713-0.868l-0.002-0.002C28.516,18.244,28.832,17.198,28.832,16.104zM23.08,21.252l-0.051,0.006l-0.955,0.974c0.01,0-3.305,3.332-3.305,3.332c-1.121,1.119-2.906,1.337-4.261,0.511l0.002-0.002c-0.213-0.141-0.414-0.299-0.61-0.467c-0.016-0.015-0.032-0.027-0.047-0.042l-3.024-3.024h-0.001l-3.976-3.976c-1.34-1.339-1.342-3.581,0-4.921l2.689-2.689l0.052-0.005l0.956-0.973c-0.01,0,3.303-3.332,3.303-3.332c1.121-1.12,2.908-1.337,4.261-0.511v0.002c0.211,0.14,0.414,0.299,0.609,0.467c0.016,0.015,0.031,0.028,0.047,0.042l3.025,3.024l0,0l3.975,3.976c0.389,0.388,0.66,0.852,0.824,1.348l-2.617,0.008c-0.537-3.754-3.764-6.64-7.666-6.64c-4.277,0-7.744,3.467-7.745,7.746c0.001,4.277,3.468,7.743,7.745,7.744c3.919-0.001,7.156-2.911,7.671-6.688l2.635-0.009c-0.16,0.52-0.441,1.007-0.846,1.412L23.08,21.252zM16.311,17.184c0.002,0,0.002,0,0.004,0l5.476-0.018c-0.5,2.573-2.76,4.516-5.48,4.52c-3.084-0.005-5.578-2.5-5.584-5.582c0.006-3.084,2.5-5.579,5.584-5.584c2.707,0.005,4.96,1.929,5.472,4.485l-5.476,0.018c-0.596,0.002-1.078,0.488-1.076,1.084C15.233,16.702,15.715,17.184,16.311,17.184z"/>
	<path fill="#000000" stroke="none" opacity="1" class="fill" d="M28.832,16.104c0-1.477-0.574-2.863-1.617-3.905l-7.002-7.001L20.211,5.2c-1.027-1.03-2.445-1.62-3.9-1.62c-1.455,0-2.871,0.59-3.9,1.621l-0.002-0.002l-7,7c-1.033,1.031-1.619,2.445-1.619,3.905c0,1.458,0.586,2.872,1.619,3.903l6.312,6.312c0.253,0.284,0.519,0.55,0.8,0.794c1.049,0.994,2.463,1.54,3.908,1.51c1.417-0.028,2.783-0.612,3.785-1.615l6.811-6.811c0.018-0.017,0.035-0.034,0.053-0.052l0.137-0.138c0.27-0.268,0.49-0.564,0.713-0.868l-0.002-0.002C28.516,18.244,28.832,17.198,28.832,16.104zM23.08,21.252l-0.051,0.006l-0.955,0.974c0.01,0-3.305,3.332-3.305,3.332c-1.121,1.119-2.906,1.337-4.261,0.511l0.002-0.002c-0.213-0.141-0.414-0.299-0.61-0.467c-0.016-0.015-0.032-0.027-0.047-0.042l-3.024-3.024h-0.001l-3.976-3.976c-1.34-1.339-1.342-3.581,0-4.921l2.689-2.689l0.052-0.005l0.956-0.973c-0.01,0,3.303-3.332,3.303-3.332c1.121-1.12,2.908-1.337,4.261-0.511v0.002c0.211,0.14,0.414,0.299,0.609,0.467c0.016,0.015,0.031,0.028,0.047,0.042l3.025,3.024l0,0l3.975,3.976c0.389,0.388,0.66,0.852,0.824,1.348l-2.617,0.008c-0.537-3.754-3.764-6.64-7.666-6.64c-4.277,0-7.744,3.467-7.745,7.746c0.001,4.277,3.468,7.743,7.745,7.744c3.919-0.001,7.156-2.911,7.671-6.688l2.635-0.009c-0.16,0.52-0.441,1.007-0.846,1.412L23.08,21.252zM16.311,17.184c0.002,0,0.002,0,0.004,0l5.476-0.018c-0.5,2.573-2.76,4.516-5.48,4.52c-3.084-0.005-5.578-2.5-5.584-5.582c0.006-3.084,2.5-5.579,5.584-5.584c2.707,0.005,4.96,1.929,5.472,4.485l-5.476,0.018c-0.596,0.002-1.078,0.488-1.076,1.084C15.233,16.702,15.715,17.184,16.311,17.184z"/>
</svg>
