<svg height="28" version="1.1" width="28" xmlns="http://www.w3.org/2000/svg" viewBox="-4 -4 40 40">
	<path fill="none" stroke="#ffffff" stroke-width="6" stroke-linejoin="round" opacity="0" class="stroke" d="M27.812,16l-3.062-3.062V5.625h-2.625v4.688L16,4.188L4.188,16L7,15.933v11.942h17.875V16H27.812zM16,26.167h-5.833v-7H16V26.167zM21.667,23.167h-3.833v-4.042h3.833V23.167z"/>
	<path fill="#000000" stroke="none" opacity="1" class="fill" d="M27.812,16l-3.062-3.062V5.625h-2.625v4.688L16,4.188L4.188,16L7,15.933v11.942h17.875V16H27.812zM16,26.167h-5.833v-7H16V26.167zM21.667,23.167h-3.833v-4.042h3.833V23.167z"/>
</svg>
