<svg height="28" version="1.1" width="28" xmlns="http://www.w3.org/2000/svg" viewBox="-4 -4 40 40">
	<path fill="none" stroke="#ffffff" stroke-width="6" stroke-linejoin="round" opacity="0" class="stroke" d="M15.067,2.25c-5.979,0-11.035,3.91-12.778,9.309h3.213c1.602-3.705,5.271-6.301,9.565-6.309c5.764,0.01,10.428,4.674,10.437,10.437c-0.009,5.764-4.673,10.428-10.437,10.438c-4.294-0.007-7.964-2.605-9.566-6.311H2.289c1.744,5.399,6.799,9.31,12.779,9.312c7.419-0.002,13.437-6.016,13.438-13.438C28.504,8.265,22.486,2.252,15.067,2.25zM10.918,19.813l7.15-4.126l-7.15-4.129v2.297H-0.057v3.661h10.975V19.813z"/>
	<path fill="#000000" stroke="none" opacity="1" class="fill" d="M15.067,2.25c-5.979,0-11.035,3.91-12.778,9.309h3.213c1.602-3.705,5.271-6.301,9.565-6.309c5.764,0.01,10.428,4.674,10.437,10.437c-0.009,5.764-4.673,10.428-10.437,10.438c-4.294-0.007-7.964-2.605-9.566-6.311H2.289c1.744,5.399,6.799,9.31,12.779,9.312c7.419-0.002,13.437-6.016,13.438-13.438C28.504,8.265,22.486,2.252,15.067,2.25zM10.918,19.813l7.15-4.126l-7.15-4.129v2.297H-0.057v3.661h10.975V19.813z"/>
</svg>
