<svg height="28" version="1.1" width="28" xmlns="http://www.w3.org/2000/svg" viewBox="-4 -4 40 40">
	<path fill="none" stroke="#ffffff" stroke-width="6" stroke-linejoin="round" opacity="0" class="stroke" d="M16,1.466C7.973,1.466,1.466,7.973,1.466,16c0,8.027,6.507,14.534,14.534,14.534c8.027,0,14.534-6.507,14.534-14.534C30.534,7.973,24.027,1.466,16,1.466z M14.757,8h2.42v2.574h-2.42V8z M18.762,23.622H16.1c-1.034,0-1.475-0.44-1.475-1.496v-6.865c0-0.33-0.176-0.484-0.484-0.484h-0.88V12.4h2.662c1.035,0,1.474,0.462,1.474,1.496v6.887c0,0.309,0.176,0.484,0.484,0.484h0.88V23.622z"/>
	<path fill="#000000" stroke="none" opacity="1" class="fill" d="M16,1.466C7.973,1.466,1.466,7.973,1.466,16c0,8.027,6.507,14.534,14.534,14.534c8.027,0,14.534-6.507,14.534-14.534C30.534,7.973,24.027,1.466,16,1.466z M14.757,8h2.42v2.574h-2.42V8z M18.762,23.622H16.1c-1.034,0-1.475-0.44-1.475-1.496v-6.865c0-0.33-0.176-0.484-0.484-0.484h-0.88V12.4h2.662c1.035,0,1.474,0.462,1.474,1.496v6.887c0,0.309,0.176,0.484,0.484,0.484h0.88V23.622z"/>
</svg>
