<svg height="256" version="1.1" width="256" xmlns="http://www.w3.org/2000/svg" xmlns:xlink="http://www.w3.org/1999/xlink" viewBox="-2 -2 32 32">
	<defs>
		<linearGradient id="active-stroke" x1="0%" y1="0%" x2="0%" y2="100%">
			<stop offset="0%" style="stop-color:#fff;stop-opacity:0.86"/>
			<stop offset="100%" style="stop-color:#fff;stop-opacity:0.62"/>
		</linearGradient>
		<linearGradient id="active-fill" x1="0%" y1="0%" x2="0%" y2="100%">
			<stop offset="0%" style="stop-color:#333;stop-opacity:1"/>
			<stop offset="100%" style="stop-color:#000;stop-opacity:1"/>
		</linearGradient>
		<linearGradient id="hover-stroke" x1="0%" y1="0%" x2="0%" y2="100%">
			<stop offset="0%" style="stop-color:#fff;stop-opacity:1"/>
			<stop offset="100%" style="stop-color:#ddd;stop-opacity:0.62"/>
		</linearGradient>
		<linearGradient id="hover-fill" x1="0%" y1="0%" x2="0%" y2="100%">
			<stop offset="0%" style="stop-color:#88B;stop-opacity:1"/>
			<stop offset="100%" style="stop-color:#78C;stop-opacity:1"/>
		</linearGradient>
		<linearGradient id="default-stroke" x1="0%" y1="0%" x2="0%" y2="100%">
			<stop offset="0%" style="stop-color:#fff;stop-opacity:0.62"/>
			<stop offset="100%" style="stop-color:#fff;stop-opacity:0.38"/>
		</linearGradient>
		<linearGradient id="default-fill" x1="0%" y1="0%" x2="0%" y2="100%">
			<stop offset="0%" style="stop-color:#999;stop-opacity:1"/>
			<stop offset="100%" style="stop-color:#666;stop-opacity:1"/>
		</linearGradient>
		<path id="path" d="
M 12.384737 0.000121
C 5.544823 0.000121 0.000121 5.544823 0.000121 12.384737
c 0.000000 6.839914 5.544701 12.384615 12.384615 12.384615
c 6.839914 0.000000 12.384615 -5.544701 12.384615 -12.384615
C 24.769352 5.544823 19.224651 0.000121 12.384737 0.000121
z
M 15.075711 18.578749
c -0.067317 0.054536 -0.155936 0.110775 -0.089472 0.176388
c 0.066465 0.066465 -0.076690 0.111627 -0.076690 0.144859
s 0.088620 0.209620 0.044310 0.286310
c -0.044310 0.078395 -0.077543 0.190022 -0.110775 0.256486
c -0.033232 0.065613 -0.111627 0.132078 -0.088620 0.231775
c 0.021302 0.098845 -0.088620 0.065613 -0.088620 0.165310
c 0.000000 0.098845 0.098845 0.055388 0.076690 0.177240
c -0.021302 0.122704 -0.076690 0.155936 -0.076690 0.242853
c 0.000000 0.088620 0.054536 0.210472 0.054536 0.243704
s -0.054536 0.144859 -0.132078 0.231775
c -0.078395 0.088620 -0.132078 0.144859 -0.122704 0.198542
c 0.011930 0.055388 0.088620 0.122704 0.077543 0.156789
c -0.011077 0.031529 -0.109922 0.143155 -0.098845 0.220697
c 0.011930 0.076690 0.109922 0.045162 0.132078 0.098845
c 0.022155 0.055388 -0.132078 0.100550 -0.066465 0.155936
c 0.066465 0.054536 0.155936 0.043458 0.132929 0.177240
c -0.016190 0.095437 0.054536 0.138894 0.107367 0.168718
c -0.759233 0.188317 -1.549142 0.299944 -2.366319 0.299944
C 6.964443 22.212160 2.556462 17.804178 2.556462 12.384737
c 0.000000 -1.766431 0.474627 -3.421235 1.293509 -4.854490
c 0.067317 -0.035789 0.116739 -0.058796 0.145711 -0.052831
c 0.055388 0.011077 0.067317 0.088620 0.155936 0.110775
c 0.088620 0.022155 0.166162 -0.066465 0.221549 -0.099697
c 0.054536 -0.033232 0.098845 -0.166162 0.043458 -0.155085
c -0.055388 0.011077 -0.199395 0.000000 -0.199395 0.000000
s 0.155936 -0.088620 0.155936 -0.144007
s 0.021302 -0.144007 0.109922 -0.177240
C 4.570857 6.978077 4.570857 7.000232 4.515470 7.133163
C 4.460082 7.266092 4.627097 7.210704 4.692709 7.155317
s 0.110775 -0.011077 0.231775 -0.088620
c 0.121852 -0.077543 0.121852 -0.121852 0.188317 -0.121852
c 0.066465 0.000000 0.188317 0.121852 0.254782 0.077543
c 0.065613 -0.044310 0.254782 0.055388 0.365557 0.055388
c 0.109922 0.000000 0.464402 0.144007 0.531718 0.144007
c 0.066465 0.000000 0.265860 0.076690 0.276937 0.220697
c 0.011077 0.144007 0.076690 0.132929 0.143155 0.132929
s 0.221549 0.055388 0.221549 0.110775
c 0.000000 0.055388 -0.044310 0.276937 0.066465 0.332324
c 0.109922 0.054536 0.210472 0.144007 0.254782 0.121852
c 0.044310 -0.022155 0.000000 -0.198542 -0.054536 -0.221549
c -0.055388 -0.022155 -0.023007 -0.099697 -0.044310 -0.144007
c -0.022155 -0.043458 0.066465 -0.043458 0.099697 0.033232
c 0.033232 0.077543 0.121852 0.221549 0.177240 0.221549
c 0.054536 0.000000 0.177240 0.132929 0.143155 0.210472
c -0.033232 0.077543 0.033232 0.188317 0.132929 0.188317
c 0.098845 0.000000 0.221549 0.155085 0.265860 0.166162
c 0.044310 0.011077 0.099697 0.066465 0.099697 0.099697
c 0.000000 0.034084 0.055388 0.221549 0.055388 0.299092
c 0.000000 0.076690 -0.034084 0.386859 -0.045162 0.508711
s 0.088620 0.332324 0.199395 0.443099
c 0.109922 0.110775 0.209620 0.321246 0.276085 0.365557
c 0.067317 0.044310 0.110775 0.166162 0.210472 0.155085
c 0.099697 -0.011077 0.166162 0.066465 0.254782 0.221549
c 0.088620 0.155085 0.177240 0.409014 0.243704 0.431170
c 0.066465 0.022155 0.177240 0.099697 0.121000 0.155085
c -0.054536 0.054536 -0.143155 0.177240 -0.043458 0.177240
c 0.099697 0.000000 0.132929 -0.055388 0.210472 0.045162
c 0.076690 0.098845 0.177240 0.154233 0.165310 0.221549
c -0.011077 0.065613 0.088620 0.087768 0.132929 0.098845
c 0.044310 0.011077 0.144007 0.210472 0.243704 0.121852
c 0.099697 -0.088620 -0.132078 -0.220697 -0.199395 -0.277789
c -0.066465 -0.054536 0.000000 -0.176388 -0.155085 -0.298239
c -0.155085 -0.121852 -0.132929 -0.210472 -0.243704 -0.299092
c -0.110775 -0.088620 -0.198542 -0.166162 -0.088620 -0.243704
c 0.110775 -0.077543 0.121852 0.077543 0.166162 0.177240
c 0.044310 0.098845 0.276085 0.299092 0.375782 0.386859
c 0.099697 0.088620 0.277789 0.398789 0.332324 0.398789
s 0.210472 0.177240 0.210472 0.177240
s 0.087768 0.143155 0.054536 0.187465
c -0.033232 0.044310 0.045162 0.210472 0.122704 0.254782
c 0.076690 0.044310 0.387712 0.187465 0.432021 0.210472
c 0.044310 0.023007 0.132078 0.188317 0.254782 0.188317
c 0.121000 0.000000 0.210472 0.011930 0.243704 0.045162
c 0.033232 0.032380 0.132078 0.165310 0.199395 0.088620
c 0.066465 -0.078395 0.076690 -0.111627 0.177240 -0.111627
c 0.099697 0.000000 0.143155 0.077543 0.198542 0.132929
c 0.055388 0.055388 0.210472 0.200247 0.288014 0.189169
c 0.077543 -0.011077 0.177240 0.088620 0.232627 0.054536
s 0.144007 0.021302 0.187465 0.044310
c 0.046014 0.022155 0.199395 0.100550 0.189169 0.231775
c -0.011077 0.133782 0.087768 0.166162 0.155085 0.199395
c 0.066465 0.033232 0.155085 0.110775 0.211324 0.166162
c 0.054536 0.053683 0.175535 0.065613 0.209620 0.098845
c 0.033232 0.033232 0.055388 0.099697 0.155085 0.044310
c 0.098845 -0.054536 0.078395 -0.154233 0.078395 -0.154233
s 0.109922 -0.022155 0.165310 0.022155
c 0.054536 0.042606 0.088620 0.187465 0.122704 0.209620
c 0.032380 0.022155 0.097993 0.188317 0.053683 0.308465
c -0.043458 0.123556 -0.032380 0.243704 -0.077543 0.243704
c -0.044310 0.000000 -0.098845 0.144859 -0.166162 0.178092
c -0.064761 0.033232 -0.242853 0.188317 -0.231775 0.243704
c 0.011077 0.053683 0.111627 0.219845 0.088620 0.298239
c -0.021302 0.077543 -0.165310 0.166162 -0.131226 0.288014
c 0.032380 0.122704 0.265860 0.155936 0.275233 0.265860
c 0.011930 0.111627 0.178092 0.355331 0.200247 0.465254
c 0.021302 0.110775 0.209620 0.231775 0.209620 0.386007
c 0.000000 0.156789 0.265860 0.255634 0.321246 0.265860
c 0.053683 0.011077 0.155085 0.111627 0.231775 0.144859
s 0.144007 0.098845 0.198542 0.188317
s 0.045162 0.222401 0.045162 0.254782
c 0.000000 0.033232 -0.033232 0.374930 -0.066465 0.574324
C 15.064633 18.367424 15.141324 18.522510 15.075711 18.578749
z
M 7.924776 8.284367
c 0.033232 0.011077 0.099697 0.077543 0.132929 0.077543
c 0.034084 0.000000 0.199395 0.132929 0.243704 0.177240
c 0.045162 0.044310 0.045162 0.166162 -0.011077 0.177240
s -0.088620 -0.121852 -0.099697 -0.177240
c -0.011077 -0.055388 -0.121852 -0.055388 -0.177240 -0.088620
C 7.958008 8.417297 7.834451 8.253692 7.924776 8.284367
z
M 22.192561 12.734103
c -0.122704 0.155085 -0.110775 0.231775 -0.166162 0.243704
c -0.054536 0.011077 0.055388 0.055388 0.076690 0.165310
c 0.018747 0.095437 -0.055388 0.190873 0.053683 0.278641
c -0.414127 3.935911 -3.161340 7.186724 -6.830541 8.339634
c -0.005965 -0.009373 -0.016190 -0.021302 -0.017894 -0.028972
c -0.023007 -0.066465 -0.023007 -0.198542 0.054536 -0.242853
c 0.077543 -0.045162 0.265860 -0.198542 0.309317 -0.231775
c 0.044310 -0.034084 0.110775 -0.188317 0.077543 -0.210472
c -0.032380 -0.022155 -0.197690 0.000000 -0.221549 -0.033232
c -0.022155 -0.033232 -0.022155 -0.078395 0.088620 -0.155085
c 0.110775 -0.077543 0.166162 -0.189169 0.210472 -0.221549
c 0.044310 -0.033232 0.132078 -0.099697 0.166162 -0.178092
c 0.032380 -0.076690 -0.034937 -0.033232 -0.100550 -0.033232
s -0.099697 -0.121000 -0.099697 -0.176388
s 0.166162 0.022155 0.288867 0.044310
c 0.121852 0.020451 0.065613 -0.055388 0.054536 -0.121000
c -0.011077 -0.066465 0.022155 -0.178092 0.089472 -0.144859
c 0.064761 0.033232 0.408162 -0.011077 0.452472 -0.022155
c 0.044310 -0.011077 0.165310 -0.209620 0.209620 -0.265860
c 0.045162 -0.055388 0.054536 -0.109922 0.000000 -0.143155
c -0.055388 -0.034084 -0.121852 -0.156789 -0.143155 -0.188317
c -0.022155 -0.034937 -0.033232 -0.233479 -0.011077 -0.289719
c 0.021302 -0.053683 0.000000 0.321246 0.154233 0.366409
c 0.155936 0.044310 0.243704 0.066465 0.387712 -0.066465
c 0.144007 -0.132078 0.253930 -0.221549 0.265860 -0.309317
c 0.011077 -0.088620 0.044310 -0.178092 0.099697 -0.209620
c 0.055388 -0.033232 0.088620 0.087768 0.155085 -0.055388
c 0.066465 -0.144859 0.132929 -0.133782 0.199395 -0.254782
c 0.065613 -0.122704 -0.110775 -0.276937 0.020451 -0.366409
c 0.133782 -0.087768 0.366409 -0.198542 0.366409 -0.198542
s 0.066465 -0.033232 0.199395 -0.066465
c 0.132078 -0.032380 0.276085 -0.011930 0.320394 -0.076690
c 0.044310 -0.067317 0.088620 -0.210472 0.155085 -0.288014
c 0.067317 -0.078395 0.144007 -0.199395 0.110775 -0.254782
c -0.033232 -0.055388 0.088620 -0.299944 0.077543 -0.365557
c -0.011077 -0.066465 -0.110775 -0.222401 0.055388 -0.354480
s 0.342550 -0.333176 0.354480 -0.386859
c 0.010225 -0.055388 0.144007 -0.288014 0.131226 -0.399641
c -0.010225 -0.109922 -0.131226 -0.242853 -0.208767 -0.276937
c -0.078395 -0.031529 -0.243704 -0.042606 -0.310169 -0.131226
s -0.254782 -0.177240 -0.321246 -0.155085
c -0.065613 0.022155 -0.177240 0.043458 -0.265860 -0.012782
c -0.088620 -0.053683 -0.231775 -0.121852 -0.287162 -0.165310
c -0.056239 -0.043458 -0.199395 -0.076690 -0.265860 -0.076690
s -0.055388 -0.045162 -0.155085 0.087768
c -0.099697 0.133782 0.000000 0.178092 -0.177240 0.155085
c -0.178092 -0.020451 0.021302 -0.032380 0.122704 -0.165310
c 0.097993 -0.132078 -0.011930 -0.210472 -0.122704 -0.176388
c -0.110775 0.033232 -0.033232 0.099697 -0.210472 0.132929
c -0.176388 0.032380 -0.176388 -0.078395 -0.065613 -0.099697
c 0.110775 -0.022155 0.309317 -0.121852 0.309317 -0.165310
c 0.000000 -0.045162 -0.022155 -0.167015 -0.110775 -0.167015
s -0.066465 -0.109922 -0.198542 -0.253078
c -0.132929 -0.144859 -0.299092 -0.233479 -0.432873 -0.212176
c -0.131226 0.022155 -0.231775 0.055388 -0.298239 -0.064761
c -0.066465 -0.122704 -0.144007 -0.144859 -0.189169 -0.210472
c -0.043458 -0.066465 -0.155085 0.000000 -0.188317 -0.033232
s -0.033232 -0.033232 -0.033232 -0.033232
s -0.144007 0.033232 -0.065613 -0.066465
c 0.076690 -0.099697 0.109922 -0.288014 0.076690 -0.276937
c -0.032380 0.011077 -0.088620 0.167015 -0.143155 0.155936
c -0.054536 -0.011077 -0.011930 -0.034084 -0.122704 -0.099697
c -0.110775 -0.066465 -0.287162 -0.011077 -0.287162 0.044310
c 0.000000 0.055388 -0.055388 0.099697 -0.055388 0.099697
s -0.033232 -0.032380 -0.066465 -0.099697
c -0.033232 -0.066465 -0.188317 -0.077543 -0.265860 -0.011077
c -0.076690 0.066465 -0.121000 -0.167015 -0.176388 -0.167015
s -0.165310 0.055388 -0.221549 0.156789
c -0.054536 0.098845 -0.032380 0.242853 -0.078395 0.231775
c -0.042606 -0.011077 -0.053683 -0.198542 -0.042606 -0.265860
c 0.010225 -0.067317 0.132078 -0.177240 0.042606 -0.199395
c -0.087768 -0.022155 -0.220697 0.110775 -0.275233 0.121852
c -0.055388 0.011077 -0.166162 0.088620 -0.232627 0.178092
c -0.065613 0.087768 -0.098845 0.143155 -0.166162 0.176388
c -0.065613 0.033232 -0.164458 0.000000 -0.142303 -0.033232
c 0.021302 -0.033232 -0.189169 -0.154233 -0.222401 -0.110775
c -0.034084 0.044310 -0.132078 0.077543 -0.231775 0.122704
c -0.099697 0.044310 -0.189169 -0.055388 -0.210472 -0.099697
s -0.067317 -0.054536 -0.077543 -0.199395
c -0.011077 -0.143155 0.023007 -0.299092 0.055388 -0.386859
c 0.032380 -0.088620 -0.166162 -0.265860 -0.243704 -0.255634
c -0.077543 0.012782 -0.155085 0.089472 -0.231775 0.077543
c -0.078395 -0.010225 -0.044310 -0.032380 -0.166162 -0.032380
c -0.121852 0.000000 -0.022155 -0.021302 0.000000 -0.121852
c 0.021302 -0.098845 -0.044310 -0.232627 0.078395 -0.321246
c 0.121000 -0.088620 0.077543 -0.299092 0.000000 -0.309317
c -0.078395 -0.011930 -0.222401 0.033232 -0.321246 0.022155
c -0.098845 -0.011930 -0.177240 0.077543 -0.144007 0.176388
c 0.033232 0.099697 -0.055388 0.166162 -0.088620 0.155936
c -0.033232 -0.011077 -0.076690 -0.066465 -0.199395 0.022155
c -0.121000 0.087768 -0.165310 0.054536 -0.287162 -0.044310
c -0.121852 -0.100550 -0.254782 -0.199395 -0.276937 -0.354480
c -0.022155 -0.155085 -0.034084 -0.310169 0.011077 -0.398789
c 0.043458 -0.088620 0.043458 -0.242853 -0.022155 -0.265860
c -0.066465 -0.021302 0.076690 -0.132078 0.154233 -0.154233
c 0.078395 -0.022155 0.199395 -0.121852 0.221549 -0.166162
c 0.022155 -0.044310 0.132929 -0.034084 0.253930 -0.034084
c 0.121852 0.000000 0.144007 0.000000 0.265860 0.066465
c 0.121852 0.066465 0.144007 -0.033232 0.144007 -0.066465
c 0.000000 -0.033232 0.044310 -0.099697 0.177240 -0.088620
c 0.132929 0.011077 0.320394 -0.044310 0.354480 -0.011077
s 0.098845 0.166162 0.165310 0.121852
c 0.067317 -0.043458 0.088620 -0.121852 0.111627 0.011930
c 0.021302 0.132078 0.076690 0.332324 0.177240 0.365557
c 0.098845 0.033232 0.044310 0.165310 0.143155 0.176388
c 0.097993 0.011077 0.144859 -0.209620 0.111627 -0.287162
c -0.034084 -0.076690 -0.100550 -0.309317 -0.155936 -0.364705
c -0.054536 -0.055388 -0.054536 -0.199395 0.054536 -0.243704
c 0.110775 -0.044310 0.376634 -0.265860 0.453325 -0.331472
c 0.078395 -0.067317 0.288014 -0.122704 0.222401 -0.211324
c -0.066465 -0.088620 -0.088620 -0.143155 -0.088620 -0.210472
s 0.066465 -0.044310 0.099697 0.000000
s 0.165310 -0.066465 0.132078 -0.121852
c -0.032380 -0.054536 -0.022155 -0.132078 0.055388 -0.121852
c 0.077543 0.011077 0.098845 -0.055388 0.066465 -0.099697
c -0.033232 -0.044310 0.077543 -0.099697 0.155085 -0.077543
c 0.078395 0.022155 0.276937 -0.011077 0.310169 -0.055388
c 0.032380 -0.044310 -0.066465 -0.088620 -0.066465 -0.177240
c 0.000000 -0.088620 0.132078 -0.166162 0.210472 -0.177240
c 0.077543 -0.011077 0.176388 0.000000 0.188317 -0.033232
c 0.010225 -0.033232 0.121852 -0.121852 0.132078 -0.044310
c 0.011930 0.077543 0.000000 0.210472 0.088620 0.210472
c 0.088620 0.000000 0.197690 -0.099697 0.231775 -0.109922
c 0.032380 -0.011077 0.243704 -0.055388 0.288014 -0.066465
c 0.044310 -0.011077 0.309317 -0.033232 0.276937 -0.110775
c -0.033232 -0.076690 -0.066465 -0.154233 -0.100550 -0.187465
c -0.033232 -0.033232 -0.065613 0.011077 -0.110775 0.066465
c -0.043458 0.055388 -0.121852 0.055388 -0.143155 0.011077
c -0.022155 -0.043458 0.010225 -0.176388 -0.066465 -0.132929
c -0.078395 0.044310 -0.088620 0.088620 -0.133782 0.066465
c -0.044310 -0.022155 -0.087768 -0.099697 -0.087768 -0.099697
s 0.109922 -0.054536 0.032380 -0.155085
c -0.076690 -0.099697 -0.188317 -0.077543 -0.298239 -0.021302
c -0.110775 0.054536 -0.100550 0.043458 -0.232627 0.076690
s -0.199395 0.066465 -0.199395 0.066465
s 0.178092 -0.109922 0.254782 -0.177240
c 0.077543 -0.066465 0.178092 -0.099697 0.243704 -0.166162
c 0.066465 -0.066465 0.242853 0.033232 0.242853 0.033232
s 0.089472 -0.088620 0.089472 -0.033232
s -0.023007 0.199395 0.043458 0.199395
c 0.067317 0.000000 0.254782 -0.088620 0.178944 -0.111627
c -0.079246 -0.022155 0.109922 0.000000 0.186613 -0.055388
c 0.078395 -0.055388 0.165310 -0.055388 0.210472 -0.076690
c 0.044310 -0.022155 0.078395 -0.121852 0.155085 -0.121852
c 0.078395 0.000000 0.110775 0.099697 0.000000 0.166162
s -0.121852 0.232627 -0.177240 0.276937
c -0.054536 0.044310 -0.022155 0.099697 0.066465 0.088620
c 0.088620 -0.011077 0.165310 0.011077 0.243704 -0.011077
s 0.121852 0.022155 0.143155 0.055388
c 0.022155 0.033232 0.088620 -0.033232 0.088620 -0.033232
s 0.144007 -0.033232 0.188317 0.022155
c 0.045162 0.054536 0.078395 -0.033232 0.045162 -0.088620
c -0.033232 -0.054536 -0.078395 -0.109922 -0.110775 -0.177240
c -0.033232 -0.066465 -0.077543 -0.088620 -0.165310 -0.066465
c -0.088620 0.022155 -0.110775 -0.022155 -0.166162 -0.054536
c -0.055388 -0.034084 -0.100550 0.044310 -0.055388 -0.034084
c 0.045162 -0.076690 0.066465 -0.099697 0.099697 -0.166162
c 0.033232 -0.066465 0.178092 -0.188317 0.033232 -0.220697
c -0.144007 -0.034084 -0.189169 -0.055388 -0.210472 -0.121852
c -0.022155 -0.066465 -0.188317 -0.188317 -0.231775 -0.188317
c -0.045162 0.000000 -0.198542 0.000000 -0.210472 -0.055388
c -0.011077 -0.055388 -0.121852 -0.177240 -0.177240 -0.232627
c -0.054536 -0.055388 -0.265860 -0.299092 -0.299092 -0.321246
c -0.033232 -0.022155 -0.077543 -0.011077 -0.177240 0.121852
c -0.098845 0.133782 -0.187465 0.155936 -0.265860 0.122704
c -0.077543 -0.033232 -0.088620 -0.022155 -0.164458 -0.110775
c -0.079246 -0.088620 0.076690 -0.099697 0.043458 -0.155085
c -0.034084 -0.054536 -0.210472 -0.077543 -0.321246 -0.088620
c -0.110775 -0.011077 -0.188317 -0.132929 -0.354480 -0.144007
c -0.165310 -0.011077 -0.364705 0.022155 -0.420091 0.022155
c -0.054536 0.000000 -0.054536 0.077543 -0.076690 0.199395
c -0.023007 0.121852 0.076690 0.155085 -0.023007 0.177240
c -0.098845 0.022155 -0.144007 0.033232 -0.044310 0.077543
c 0.099697 0.044310 0.232627 0.221549 0.232627 0.221549
s 0.000000 0.099697 -0.078395 0.155085
c -0.076690 0.055388 -0.155085 0.110775 -0.198542 0.045162
c -0.045162 -0.067317 -0.166162 -0.055388 -0.132078 0.011077
c 0.032380 0.066465 0.098845 0.099697 0.098845 0.166162
c 0.000000 0.065613 0.099697 0.231775 0.033232 0.287162
c -0.066465 0.055388 -0.143155 0.011930 -0.198542 0.022155
s -0.111627 -0.088620 -0.066465 -0.110775
c 0.043458 -0.022155 -0.011930 -0.188317 -0.011930 -0.188317
s -0.132078 0.188317 -0.121852 0.088620
c 0.011930 -0.099697 -0.054536 -0.110775 -0.054536 -0.188317
c 0.000000 -0.077543 -0.067317 -0.110775 -0.165310 -0.088620
c -0.100550 0.022155 -0.221549 -0.034084 -0.410719 -0.067317
c -0.187465 -0.033232 -0.265007 -0.054536 -0.420091 -0.132929
c -0.155085 -0.077543 -0.210472 -0.022155 -0.288014 -0.011077
c -0.077543 0.011077 -0.044310 -0.155085 -0.144007 -0.176388
c -0.098845 -0.023007 -0.154233 0.021302 -0.176388 -0.122704
c -0.022155 -0.143155 0.033232 -0.177240 0.276085 -0.332324
c 0.243704 -0.155085 0.210472 -0.221549 0.398789 -0.243704
c 0.187465 -0.022155 0.276937 0.022155 0.276937 -0.033232
s 0.044310 -0.276937 0.044310 -0.166162
S 13.194245 6.512823 13.093695 6.590366
c -0.098845 0.077543 -0.044310 0.088620 0.034084 0.088620
c 0.077543 0.000000 0.220697 -0.077543 0.220697 -0.077543
s 0.177240 -0.077543 0.221549 -0.011077
c 0.045162 0.066465 0.045162 0.132929 0.122704 0.132929
s 0.242853 -0.088620 0.098845 -0.166162
c -0.143155 -0.077543 -0.231775 -0.066465 -0.320394 -0.155085
s -0.066465 -0.055388 -0.166162 -0.033232
c -0.098845 0.022155 -0.098845 -0.033232 -0.132929 -0.033232
s -0.088620 0.022155 -0.110775 -0.022155
c -0.021302 -0.044310 0.011930 -0.055388 0.123556 -0.055388
c 0.109922 0.000000 0.242853 0.033232 0.242853 0.033232
s 0.132078 -0.044310 0.165310 -0.055388
c 0.033232 -0.011077 0.210472 -0.033232 0.177240 -0.132078
c -0.034084 -0.099697 -0.144007 -0.099697 -0.177240 -0.132929
s 0.066465 -0.076690 0.121852 -0.099697
c 0.055388 -0.022155 0.210472 0.000000 0.210472 0.000000
s 0.099697 0.011077 0.099697 -0.033232
S 14.001196 5.738252 14.068513 5.771485
s 0.000000 0.132929 0.099697 0.110775
c 0.098845 -0.022155 0.121852 0.000000 0.176388 0.033232
c 0.055388 0.033232 -0.011077 0.166162 -0.065613 0.188317
c -0.055388 0.021302 -0.144007 0.065613 -0.022155 0.076690
c 0.122704 0.011930 0.209620 0.011930 0.209620 0.011930
s 0.078395 -0.077543 0.111627 -0.144007
c 0.032380 -0.066465 0.088620 -0.022155 0.132078 0.000000
c 0.044310 0.021302 0.210472 0.055388 0.055388 0.099697
c -0.155936 0.044310 -0.188317 0.099697 -0.221549 0.155085
c -0.032380 0.055388 -0.045162 0.088620 -0.188317 0.055388
c -0.144859 -0.033232 -0.221549 -0.022155 -0.254782 0.033232
c -0.033232 0.054536 -0.011077 0.232627 0.045162 0.210472
c 0.053683 -0.022155 0.109922 -0.022155 0.176388 -0.044310
c 0.066465 -0.022155 0.332324 0.022155 0.397937 0.011077
c 0.066465 -0.011077 0.178092 0.110775 0.211324 0.088620
c 0.033232 -0.022155 0.099697 0.044310 0.165310 0.088620
c 0.066465 0.044310 0.044310 -0.099697 0.165310 -0.011077
c 0.122704 0.088620 0.055388 0.088620 0.122704 0.088620
c 0.064761 0.000000 0.209620 0.011077 0.209620 0.011077
s 0.011930 -0.109922 0.122704 -0.088620
c 0.110775 0.022155 0.208767 0.144007 0.197690 0.054536
c -0.010225 -0.087768 0.011077 -0.154233 -0.076690 -0.220697
c -0.088620 -0.066465 -0.231775 -0.110775 -0.254782 -0.144007
c -0.022155 -0.033232 -0.044310 -0.077543 -0.011077 -0.099697
c 0.033232 -0.021302 0.188317 0.011077 0.276085 0.067317
c 0.088620 0.055388 0.166162 0.110775 0.232627 0.066465
c 0.065613 -0.044310 0.144859 -0.066465 0.177240 -0.099697
c 0.032380 -0.034084 0.110775 -0.132929 0.110775 -0.132929
s -0.333176 -0.043458 -0.375782 -0.099697
c -0.045162 -0.055388 -0.200247 -0.132929 -0.244556 -0.132929
s -0.165310 0.077543 -0.209620 -0.033232
s -0.044310 -0.243704 -0.089472 -0.254782
c -0.042606 -0.011077 -0.508711 -0.077543 -0.574324 -0.110775
c -0.066465 -0.033232 -0.332324 -0.110775 -0.432021 -0.166162
s -0.243704 -0.132929 -0.331472 -0.132929
c -0.088620 0.000000 -0.454177 0.044310 -0.520641 0.033232
c -0.066465 -0.011077 -0.265860 0.022155 -0.343402 0.033232
c -0.077543 0.011077 0.099697 0.155085 -0.065613 0.188317
c -0.166162 0.033232 -0.144007 0.055388 -0.110775 -0.110775
c 0.032380 -0.166162 -0.111627 -0.210472 -0.254782 -0.144007
c -0.144007 0.066465 -0.376634 0.110775 -0.321246 0.188317
c 0.055388 0.077543 -0.010225 0.133782 0.099697 0.210472
c 0.110775 0.077543 0.155936 0.099697 0.298239 0.088620
c 0.144859 -0.011077 0.288867 0.021302 0.288867 0.021302
s 0.000000 0.133782 -0.054536 0.155085
c -0.055388 0.022155 -0.144007 0.022155 -0.167015 0.088620
c -0.021302 0.066465 -0.132078 0.099697 -0.132078 0.066465
s 0.055388 -0.144007 -0.022155 -0.199395
c -0.076690 -0.055388 -0.099697 -0.066465 -0.188317 -0.011077
c -0.088620 0.055388 -0.098845 0.077543 -0.144007 -0.011077
C 12.429899 5.815795 12.296969 5.738252 12.296969 5.738252
s -0.088620 -0.109922 -0.155085 -0.165310
c -0.065613 -0.055388 -0.187465 -0.044310 -0.199395 0.011077
c -0.011077 0.054536 0.022155 0.109922 0.066465 0.210472
c 0.044310 0.099697 0.088620 0.287162 0.011077 0.299092
c -0.077543 0.011077 -0.088620 0.022155 -0.166162 0.044310
c -0.077543 0.022155 -0.110775 -0.033232 -0.110775 -0.121852
s -0.034084 -0.166162 -0.011077 -0.199395
c 0.022155 -0.033232 -0.088620 0.023007 -0.199395 0.000000
c -0.110775 -0.021302 -0.198542 0.044310 -0.088620 0.078395
c 0.110775 0.033232 0.133782 0.165310 0.033232 0.198542
c -0.099697 0.033232 -0.476332 0.000000 -0.598184 0.000000
s -0.298239 0.033232 -0.332324 -0.033232
c -0.033232 -0.066465 0.100550 -0.109922 0.177240 -0.109922
c 0.077543 0.000000 0.309317 0.010225 0.397937 -0.110775
c 0.088620 -0.121852 -0.110775 -0.144007 -0.198542 -0.144007
c -0.088620 0.000000 -0.155936 -0.033232 -0.254782 -0.132078
c -0.100550 -0.099697 0.066465 -0.166162 0.044310 -0.210472
c -0.022155 -0.044310 -0.132929 -0.011930 -0.231775 -0.011930
c -0.099697 0.000000 -0.254782 -0.076690 -0.254782 0.011930
c 0.000000 0.088620 0.121852 0.342550 0.044310 0.287162
c -0.077543 -0.054536 -0.066465 -0.132929 -0.121852 -0.199395
c -0.055388 -0.066465 -0.143155 -0.055388 -0.254782 -0.044310
c -0.109922 0.011077 -0.298239 0.044310 -0.353627 0.033232
c -0.054536 -0.011077 -0.011077 -0.011077 -0.132929 -0.066465
c -0.121000 -0.055388 -0.177240 -0.044310 -0.265860 -0.099697
C 9.053825 5.206534 9.131368 5.185231 8.976283 5.174153
c -0.154233 -0.011077 -0.143155 0.076690 -0.298239 0.055388
c -0.155085 -0.022155 -0.199395 0.011077 -0.354480 0.000000
c -0.155085 -0.011077 -0.231775 -0.022155 -0.254782 0.055388
c -0.021302 0.077543 -0.066465 0.210472 -0.132929 0.210472
c -0.065613 0.000000 -0.144007 0.077543 0.066465 0.088620
c 0.210472 0.011077 0.089472 0.109922 0.276937 0.099697
c 0.188317 -0.011077 0.354480 -0.011077 0.398789 -0.099697
c 0.044310 -0.088620 0.077543 -0.088620 0.099697 -0.055388
c 0.021302 0.033232 0.187465 0.231775 0.187465 0.231775
s 0.111627 0.088620 0.155936 0.110775
c 0.043458 0.022155 -0.044310 0.121852 -0.132929 0.066465
c -0.088620 -0.055388 -0.254782 -0.043458 -0.321246 -0.098845
c -0.066465 -0.055388 -0.365557 -0.055388 -0.443099 -0.044310
c -0.076690 0.011077 -0.210472 -0.033232 -0.254782 -0.033232
c -0.043458 0.000000 -0.188317 0.110775 -0.188317 0.110775
S 7.725381 5.782563 7.693000 5.738252
c -0.033232 -0.044310 -0.088620 0.044310 -0.132929 0.055388
c -0.044310 0.011077 -0.177240 -0.088620 -0.310169 -0.044310
C 7.116972 5.793640 7.161282 5.837949 6.972965 5.826872
s -0.231775 -0.044310 -0.298239 -0.033232
C 6.607408 5.804717 6.607408 5.804717 6.607408 5.804717
S 6.618485 5.849027 6.541795 5.893337
C 6.464254 5.937647 6.408013 5.993035 6.352627 5.926569
C 6.298091 5.860105 6.264859 5.860105 6.231626 5.849027
c -0.034084 -0.011077 -0.100550 -0.066465 -0.243704 -0.034084
C 5.843914 5.849027 5.622365 5.771485 5.578907 5.771485
c -0.034084 0.000000 -0.266712 -0.012782 -0.418388 -0.028120
c 1.797107 -1.953044 4.366229 -3.186904 7.224217 -3.186904
c 1.813297 0.000000 3.508151 0.501895 4.967820 1.361677
c -0.099697 0.061353 -0.271824 0.051127 -0.330620 0.019599
c -0.066465 -0.036641 -0.134634 -0.066465 -0.404754 -0.051979
c -0.270120 0.015338 -0.566655 0.103958 -0.507008 0.192577
c 0.061353 0.088620 -0.121000 0.140599 -0.167866 0.096289
c -0.046866 -0.044310 -0.263303 0.051127 -0.249669 0.140599
c 0.013634 0.088620 -0.033232 0.191725 -0.149120 0.169570
c -0.114184 -0.023007 -0.195134 0.051127 -0.201951 0.124409
c -0.005965 0.074133 -0.263303 0.125261 -0.282902 0.125261
c -0.020451 0.000000 -0.351071 -0.006817 -0.230071 0.080951
c 0.082655 0.058796 0.127817 0.023007 0.230071 0.044310
c 0.101402 0.022155 0.182352 0.184909 0.236036 0.207064
c 0.052831 0.022155 0.127817 0.000000 0.161050 -0.044310
c 0.034084 -0.044310 0.080951 -0.199395 0.080951 -0.199395
s 0.000000 0.147416 0.082655 0.177240
c 0.080951 0.029824 0.282050 -0.022155 0.336585 -0.014486
c 0.054536 0.006817 0.372374 0.051979 0.458437 0.095437
c 0.088620 0.044310 0.303352 0.074133 0.364705 0.169570
c 0.060500 0.096289 0.068169 0.428613 0.101402 0.465254
c 0.034084 0.036641 0.148268 -0.118444 0.174683 -0.155085
c 0.026416 -0.037493 0.168718 -0.015338 0.216437 0.035789
c 0.047718 0.051979 0.155085 0.177240 0.149120 0.229219
C 17.412206 5.878851 17.392607 5.958950 17.352557 5.929978
c -0.040901 -0.028972 -0.108219 -0.021302 -0.081803 -0.080951
c 0.027267 -0.058796 0.040901 -0.184909 -0.012782 -0.184909
c -0.054536 0.000000 -0.101402 0.000000 -0.101402 0.000000
s -0.102254 -0.029824 -0.169570 0.080951
s -0.012782 0.221549 0.034084 0.221549
s 0.156789 0.000000 0.156789 0.028972
c 0.000000 0.029824 -0.115887 0.118444 -0.109070 0.170423
c 0.007669 0.051979 0.093732 0.228366 0.122704 0.265860
c 0.026416 0.036641 0.167866 0.073282 0.207916 0.081803
c 0.041754 0.006817 -0.094585 0.014486 -0.059648 0.065613
c 0.034084 0.051979 0.086915 0.177240 0.161050 0.207064
c 0.074133 0.029824 0.283754 0.161901 0.309317 0.221549
c 0.027267 0.058796 0.189169 -0.044310 0.223254 -0.051979
c 0.034084 -0.006817 0.027267 0.155085 0.121852 0.162753
c 0.093732 0.006817 0.127817 -0.015338 0.208767 -0.081803
s 0.061353 -0.155085 0.067317 -0.221549
c 0.007669 -0.066465 0.000000 -0.117592 0.088620 -0.096289
c 0.088620 0.022155 0.134634 -0.015338 0.127817 -0.088620
c -0.006817 -0.074133 -0.080951 -0.162753 0.059648 -0.184909
c 0.142303 -0.022155 0.216437 -0.117592 0.304204 -0.117592
c 0.087768 0.000000 0.331472 0.036641 0.357035 0.000000
c 0.027267 -0.036641 0.142303 -0.207064 0.216437 -0.213881
c 0.057091 -0.005965 0.190873 -0.017894 0.328064 -0.035789
c 1.348043 1.606233 2.182262 3.650454 2.277699 5.883842
c -0.100550 0.135486 -0.010225 0.259895 0.017894 0.347662
c 0.000852 0.025564 0.004260 0.049423 0.004260 0.074986
c 0.000000 0.115887 -0.013634 0.229219 -0.017894 0.344253
C 22.194266 12.730695 22.194266 12.732399 22.192561 12.734103
z
M 13.913428 9.047861
c -0.054536 0.011077 -0.144007 -0.044310 -0.144007 -0.121852
s -0.077543 0.144007 -0.034084 0.210472
c 0.045162 0.066465 -0.088620 0.144007 -0.132078 0.144007
s -0.077543 -0.098845 -0.066465 -0.198542
c 0.011930 -0.099697 -0.065613 -0.188317 -0.188317 -0.177240
c -0.121852 0.011930 -0.177240 0.110775 -0.220697 0.144007
c -0.045162 0.033232 -0.045162 0.220697 -0.034084 0.265860
s 0.011077 0.200247 -0.098845 0.188317
c -0.100550 -0.011077 -0.078395 -0.198542 -0.067317 -0.265860
c 0.011930 -0.066465 -0.033232 -0.232627 0.011930 -0.320394
c 0.045162 -0.088620 0.176388 -0.121852 0.265860 -0.132929
s 0.276085 0.055388 0.309317 0.044310
c 0.034084 -0.011930 0.189169 -0.011930 0.265860 0.000000
C 13.858041 8.837389 13.967963 9.036783 13.913428 9.047861
z
M 14.111970 9.081094
c 0.034084 0.022155 0.265007 -0.033232 0.310169 0.022155
c 0.043458 0.055388 -0.046014 0.066465 -0.155936 0.110775
c -0.109922 0.044310 -0.144007 0.033232 -0.188317 0.088620
s -0.188317 0.076690 -0.254782 0.143155
c -0.066465 0.067317 -0.184909 0.106514 -0.209620 0.055388
c -0.034084 -0.066465 0.011077 -0.033232 0.021302 -0.066465
c 0.011077 -0.033232 0.208767 -0.109922 0.208767 -0.109922
S 14.078738 9.058938 14.111970 9.081094
z
M 13.226625 8.693382
c -0.032380 0.011077 -0.155085 -0.022155 -0.255634 -0.022155
c -0.098845 0.000000 -0.077543 -0.066465 -0.121852 -0.054536
c -0.043458 0.011077 -0.143155 0.033232 -0.210472 0.066465
c -0.066465 0.033232 -0.177240 0.025564 -0.177240 -0.034084
c 0.000000 -0.088620 0.044310 -0.066465 0.188317 -0.121852
c 0.144007 -0.055388 0.299944 -0.210472 0.365557 -0.144007
c 0.066465 0.066465 0.188317 0.144007 0.265860 0.155085
C 13.359554 8.550227 13.259005 8.682305 13.226625 8.693382
z
M 12.094166 5.258513
c -0.067317 0.022155 -0.295684 0.118444 -0.273528 0.169570
c 0.008521 0.019599 0.066465 0.058796 0.161901 0.044310
c 0.096289 -0.015338 0.235183 -0.029824 0.302500 -0.036641
c 0.066465 -0.007669 0.080951 -0.118444 0.007669 -0.125261
C 12.218575 5.302823 12.159779 5.236358 12.094166 5.258513
z
M 11.275285 5.347133
c -0.051979 0.022155 -0.207064 -0.036641 -0.288014 0.015338
c -0.051979 0.032380 -0.022155 0.139746 0.059648 0.146563
c 0.080951 0.007669 0.220697 -0.051127 0.235183 -0.006817
c 0.015338 0.044310 0.066465 0.243704 0.199395 0.177240
c 0.132929 -0.066465 0.125261 -0.125261 0.161901 -0.132929
c 0.036641 -0.007669 -0.006817 -0.169570 -0.066465 -0.207064
C 11.518137 5.302823 11.326412 5.324978 11.275285 5.347133
z
M 11.008573 4.719977
c 0.014486 0.037493 -0.006817 0.066465 0.096289 0.080951
c 0.103105 0.015338 0.147416 0.029824 0.207064 0.029824
c 0.058796 0.000000 0.035789 -0.096289 -0.015338 -0.161901
c -0.051979 -0.066465 -0.036641 -0.058796 -0.169570 -0.096289
c -0.132929 -0.036641 -0.265860 -0.036641 -0.354480 -0.029824
c -0.088620 0.007669 -0.184909 -0.014486 -0.207064 0.088620
c -0.011077 0.052831 0.059648 0.095437 0.148268 0.095437
S 10.994088 4.683336 11.008573 4.719977
z
M 11.201151 5.125583
c 0.036641 0.080951 0.036641 0.043458 0.140599 0.051979
C 11.444004 5.185231 11.524954 5.074456 11.532623 5.037816
c 0.007669 -0.037493 -0.051979 -0.110775 -0.191725 -0.096289
c -0.140599 0.014486 -0.568359 -0.022155 -0.627155 0.028972
c -0.056239 0.049423 0.000000 0.198542 -0.022155 0.213881
c -0.022155 0.014486 0.007669 0.080951 0.065613 0.066465
c 0.058796 -0.014486 0.088620 -0.155085 0.133782 -0.155085
C 10.935292 5.096612 11.164511 5.044632 11.201151 5.125583
z
M 9.813059 4.823083
c 0.044310 0.036641 0.155936 0.006817 0.147416 -0.029824
c -0.006817 -0.036641 0.045162 -0.184909 -0.043458 -0.191725
C 9.828396 4.594716 9.703988 4.683336 9.570206 4.727646
c -0.086063 0.028120 -0.066465 0.110775 -0.007669 0.110775
S 9.769601 4.786442 9.813059 4.823083
z
M 10.441919 4.956013
c -0.074133 0.036641 -0.097141 0.058796 -0.162753 0.044310
c -0.066465 -0.014486 -0.066465 -0.132929 -0.184909 -0.110775
c -0.117592 0.022155 -0.139746 0.088620 -0.176388 0.118444
s -0.118444 0.051979 -0.147416 0.036641
c -0.028972 -0.014486 -0.199395 -0.109922 -0.199395 -0.109922
s -0.354480 -0.015338 -0.368965 -0.059648
c -0.014486 -0.044310 -0.073282 -0.117592 -0.236036 -0.103105
s -0.443099 0.110775 -0.487409 0.110775
c -0.044310 0.000000 0.052831 0.088620 -0.007669 0.088620
c -0.058796 0.000000 -0.132078 -0.006817 -0.154233 0.058796
c -0.015338 0.045162 0.066465 0.044310 0.161050 0.044310
c 0.095437 0.000000 0.251373 0.000000 0.295684 -0.022155
c 0.044310 -0.022155 0.265860 -0.074133 0.258190 -0.007669
c -0.007669 0.067317 0.088620 0.169570 0.139746 0.155085
c 0.051979 -0.014486 0.155936 -0.110775 0.207064 -0.073282
c 0.051979 0.036641 0.059648 0.124409 0.110775 0.147416
c 0.051979 0.021302 0.192577 0.021302 0.259043 0.000000
c 0.065613 -0.023007 0.250521 -0.023007 0.331472 -0.007669
c 0.080951 0.015338 0.317838 0.058796 0.339993 0.015338
c 0.022155 -0.045162 0.088620 -0.051979 0.095437 -0.096289
s 0.043458 -0.184057 0.043458 -0.184057
S 10.515200 4.919372 10.441919 4.956013
z
M 14.178435 12.588392
c -0.101402 0.017894 -0.077543 0.214732 0.044310 0.178944
C 14.344598 12.731547 14.278985 12.569645 14.178435 12.588392
z
M 15.141324 12.324237
c -0.088620 -0.022155 -0.188317 0.000000 -0.254782 0.011077
c -0.066465 0.011077 -0.254782 0.177240 -0.254782 0.177240
s 0.121852 0.022155 0.198542 0.022155
c 0.078395 0.000000 0.122704 0.043458 0.188317 0.076690
c 0.066465 0.034084 0.188317 -0.044310 0.231775 -0.044310
c 0.045162 0.000000 0.100550 0.132929 0.111627 -0.011077
C 15.373950 12.412004 15.229943 12.346391 15.141324 12.324237
z
M 12.057525 5.147738
c -0.036641 -0.088620 -0.220697 -0.118444 -0.259043 -0.029824
C 11.766102 5.195457 12.094166 5.236358 12.057525 5.147738
z
M 14.168210 11.781440
c 0.121852 -0.022155 0.054536 -0.122704 -0.045162 -0.110775
C 14.022498 11.681743 14.045506 11.803596 14.168210 11.781440
z
M 15.639810 12.465688
c -0.101402 0.018747 -0.078395 0.215584 0.043458 0.179796
C 15.805972 12.609694 15.739507 12.447793 15.639810 12.465688
z
M 14.299435 12.135920
c -0.076690 0.011077 -0.242853 -0.076690 -0.331472 -0.155085
c -0.088620 -0.077543 -0.254782 -0.077543 -0.321246 -0.077543
c -0.065613 0.000000 -0.332324 0.077543 -0.332324 0.077543
c -0.011077 0.110775 0.099697 0.077543 0.232627 0.077543
s 0.365557 -0.022155 0.408162 0.033232
c 0.045162 0.054536 0.243704 0.143155 0.299944 0.188317
c 0.054536 0.044310 0.231775 0.055388 0.242853 0.011077
S 14.376978 12.124842 14.299435 12.135920
z
M 12.979512 5.066787
c -0.110775 -0.007669 -0.251373 -0.007669 -0.339993 0.000000
c -0.088620 0.006817 -0.155085 -0.058796 -0.221549 -0.096289
c -0.065613 -0.036641 -0.213881 -0.155085 -0.301649 -0.169570
c -0.088620 -0.014486 -0.073282 -0.014486 -0.258190 -0.058796
c -0.093732 -0.023007 -0.250521 -0.051979 -0.250521 -0.073282
c 0.000000 -0.022155 -0.044310 0.103105 0.036641 0.140599
c 0.080951 0.036641 0.213881 0.103105 0.309317 0.139746
c 0.097141 0.036641 0.280345 0.044310 0.339993 0.118444
c 0.058796 0.073282 0.258190 0.132929 0.258190 0.132929
l 0.236036 0.022155
c 0.000000 0.000000 0.162753 -0.036641 0.332324 -0.022155
c 0.169570 0.014486 0.420091 0.036641 0.561542 0.029824
c 0.138894 -0.006817 0.161050 -0.051979 0.177240 -0.080951
c 0.013634 -0.029824 -0.259043 -0.088620 -0.326359 -0.080951
C 13.467773 5.073605 13.089434 5.073605 12.979512 5.066787
z
M 13.391935 6.764197
c -0.028972 0.033232 0.133782 0.080951 0.162753 0.036641
C 13.583660 6.757380 13.467773 6.683246 13.391935 6.764197
z
M 13.887864 6.918429
c 0.073282 -0.029824 0.036641 -0.118444 -0.067317 -0.088620
C 13.702956 6.863894 13.812878 6.948253 13.887864 6.918429zZ		"/>
		<style type="text/css"><![CDATA[
			.fill {
				stroke: none;
			}
			.fill.default {
				fill: url(#default-fill);
			}
			.fill.hover {
				fill: url(#hover-fill);
			}
			.fill.active {
				fill: url(#active-fill);
			}
			.stroke {
				fill: none;
				stroke-width: 4;
				stroke-linejoin: round;
			}
			.stroke.default {
				stroke: url(#default-stroke)
			}
			.stroke.hover {
				stroke: url(#hover-stroke)
			}
			.stroke.active {
				stroke: url(#active-stroke)
			}
		]]></style>
	</defs>
	<rect x="-2" y="-2" width="100%" height="100%" r="0" rx="0" ry="0" fill="white" stroke="none" opacity="0"/>
	<g transform="translate(0,0)">
		<g transform="scale(1)">
			<use id="stroke" xlink:href="#path" stroke="url(#default-stroke)" fill="none"/>
			<use id="fill" xlink:href="#path" stroke="none" fill="url(#default-fill)"/>
		</g>
	</g>
</svg>
