<svg height="256" version="1.1" width="256" xmlns="http://www.w3.org/2000/svg" xmlns:xlink="http://www.w3.org/1999/xlink" viewBox="-2 -2 32 32">
	<defs>
		<linearGradient id="active-stroke" x1="0%" y1="0%" x2="0%" y2="100%">
			<stop offset="0%" style="stop-color:#fff;stop-opacity:0.86"/>
			<stop offset="100%" style="stop-color:#fff;stop-opacity:0.62"/>
		</linearGradient>
		<linearGradient id="active-fill" x1="0%" y1="0%" x2="0%" y2="100%">
			<stop offset="0%" style="stop-color:#333;stop-opacity:1"/>
			<stop offset="100%" style="stop-color:#000;stop-opacity:1"/>
		</linearGradient>
		<linearGradient id="hover-stroke" x1="0%" y1="0%" x2="0%" y2="100%">
			<stop offset="0%" style="stop-color:#fff;stop-opacity:1"/>
			<stop offset="100%" style="stop-color:#ddd;stop-opacity:0.62"/>
		</linearGradient>
		<linearGradient id="hover-fill" x1="0%" y1="0%" x2="0%" y2="100%">
			<stop offset="0%" style="stop-color:#88B;stop-opacity:1"/>
			<stop offset="100%" style="stop-color:#78C;stop-opacity:1"/>
		</linearGradient>
		<linearGradient id="default-stroke" x1="0%" y1="0%" x2="0%" y2="100%">
			<stop offset="0%" style="stop-color:#fff;stop-opacity:0.62"/>
			<stop offset="100%" style="stop-color:#fff;stop-opacity:0.38"/>
		</linearGradient>
		<linearGradient id="default-fill" x1="0%" y1="0%" x2="0%" y2="100%">
			<stop offset="0%" style="stop-color:#999;stop-opacity:1"/>
			<stop offset="100%" style="stop-color:#666;stop-opacity:1"/>
		</linearGradient>
		<path id="path" d="
M 12.384737 0.000121
C 5.544823 0.000121 0.000121 5.544823 0.000121 12.384737
c 0.000000 6.839914 5.544701 12.384615 12.384615 12.384615
c 6.839914 0.000000 12.384615 -5.544701 12.384615 -12.384615
C 24.769352 5.544823 19.224651 0.000121 12.384737 0.000121
z
M 22.129505 13.569174
c 0.000852 0.001705 0.003408 0.001705 0.004260 0.003408
c -0.018747 0.159345 -0.046014 0.315282 -0.072430 0.472071
c -0.012782 -0.010225 -0.028972 -0.021302 -0.040049 -0.030676
c -0.087768 -0.076690 -0.216437 -0.109070 -0.270972 -0.097993
c -0.133782 0.027267 0.195134 0.259895 0.227514 0.291422
c 0.007669 0.007669 0.026416 0.025564 0.052831 0.049423
c -0.876825 4.526427 -4.864715 7.957034 -9.645071 7.957034
c -3.513263 0.000000 -6.591949 -1.857607 -8.330260 -4.636349
c 0.104810 -0.013634 0.204507 -0.013634 0.238591 -0.064761
c 0.043458 -0.065613 0.086915 -0.205359 0.151676 -0.282050
c 0.065613 -0.075838 0.140599 -0.195134 0.108219 -0.248818
c -0.033232 -0.054536 0.086063 -0.293127 0.074986 -0.357035
c -0.011077 -0.064761 -0.108219 -0.218141 0.054536 -0.346810
s 0.335733 -0.325508 0.346810 -0.378339
c 0.010225 -0.053683 0.141451 -0.282050 0.129521 -0.390268
c -0.010225 -0.108219 -0.129521 -0.238591 -0.204507 -0.270972
c -0.076690 -0.031529 -0.238591 -0.042606 -0.303352 -0.128669
c -0.065613 -0.087768 -0.248818 -0.172979 -0.313578 -0.151676
c -0.064761 0.021302 -0.173831 0.042606 -0.259895 -0.012782
c -0.086915 -0.052831 -0.227514 -0.118444 -0.281197 -0.161050
c -0.055388 -0.042606 -0.195134 -0.074986 -0.259895 -0.074986
c -0.065613 0.000000 -0.055388 -0.044310 -0.151676 0.086063
c -0.097141 0.130374 0.000000 0.173831 -0.173831 0.150824
c -0.173831 -0.019599 0.021302 -0.030676 0.120148 -0.161050
c 0.096289 -0.129521 -0.011077 -0.206212 -0.120148 -0.172979
c -0.107367 0.032380 -0.032380 0.097993 -0.205359 0.130374
c -0.172979 0.030676 -0.172979 -0.076690 -0.064761 -0.097993
s 0.302500 -0.118444 0.302500 -0.161901
c 0.000000 -0.043458 -0.021302 -0.162753 -0.108219 -0.162753
s -0.065613 -0.107367 -0.195134 -0.247965
c -0.078395 -0.086063 -0.167015 -0.139746 -0.254782 -0.173831
c -0.076690 -0.493374 -0.127817 -0.994417 -0.127817 -1.509093
c 0.000000 -2.423410 0.885346 -4.640609 2.344164 -6.355061
c 0.020451 -0.017042 0.040901 -0.028972 0.058796 -0.030676
c 0.071578 -0.007669 0.264155 -0.021302 0.434578 -0.050274
c 0.172127 -0.028972 0.356183 -0.137191 0.416683 -0.130374
c 0.058796 0.006817 0.205359 0.006817 0.158493 -0.035789
C 5.923161 5.738252 5.856696 5.637703 5.757851 5.637703
S 5.751034 5.479210 5.777450 5.479210
c 0.025564 0.000000 0.158493 0.021302 0.151676 0.093732
C 5.923161 5.645372 5.969175 5.738252 6.100401 5.710133
c 0.132929 -0.028972 0.112479 -0.138042 0.086915 -0.166162
C 6.160048 5.514998 6.140450 5.442570 6.114887 5.392294
c -0.026416 -0.051127 -0.019599 -0.115887 0.119296 -0.130374
C 6.372225 5.248288 6.563099 5.319013 6.556281 5.203977
s 0.000000 -0.238591 0.039197 -0.303352
C 6.635528 4.836717 6.721592 4.792407 6.674725 4.771104
C 6.629563 4.749801 6.569916 4.800076 6.523049 4.691858
c -0.046014 -0.108219 0.040049 -0.187465 0.092028 -0.230923
c 0.017042 -0.012782 0.057091 -0.051127 0.105662 -0.095437
C 8.323565 3.230483 10.274904 2.556462 12.384737 2.556462
c 2.737840 0.000000 5.216638 1.127346 6.999259 2.939791
c -0.006817 0.018747 -0.008521 0.044310 -0.026416 0.047718
c -0.065613 0.011077 -0.141451 0.053683 -0.152528 -0.043458
c -0.011077 -0.097141 -0.011077 -0.282050 -0.086915 -0.172979
c -0.075838 0.108219 -0.108219 0.108219 -0.108219 0.162753
c 0.000000 0.053683 0.064761 0.108219 0.043458 0.205359
C 19.031221 5.792788 19.031221 5.858401 19.065305 5.858401
c 0.030676 0.000000 0.107367 -0.097993 0.203655 -0.120148
c 0.098845 -0.021302 0.271824 -0.074986 0.282902 0.022155
c 0.011077 0.097993 0.118444 0.129521 0.011077 0.172979
c -0.109070 0.043458 -0.227514 0.022155 -0.249669 -0.043458
c -0.021302 -0.065613 -0.097141 -0.065613 -0.172979 -0.011077
c -0.074986 0.053683 -0.237740 0.248818 -0.237740 0.248818
s -0.260747 0.118444 -0.292275 0.097141
c -0.034084 -0.021302 0.086063 -0.140599 0.172979 -0.194282
c 0.086915 -0.054536 0.151676 -0.173831 0.119296 -0.206212
c -0.032380 -0.032380 -0.074986 -0.237740 -0.053683 -0.292275
c 0.021302 -0.053683 0.118444 -0.129521 0.011077 -0.184057
c -0.108219 -0.053683 -0.184909 -0.119296 -0.270972 -0.151676
s -0.184057 0.129521 -0.259895 0.173831
c -0.075838 0.043458 -0.064761 0.097141 -0.162753 0.108219
c -0.097141 0.011077 -0.161050 0.140599 0.000000 0.216437
c 0.162753 0.075838 0.217289 0.129521 0.173831 0.173831
c -0.043458 0.043458 -0.227514 -0.021302 -0.227514 -0.021302
s -0.140599 -0.064761 -0.228366 -0.064761
c -0.086063 0.000000 -0.195134 -0.053683 -0.281197 -0.064761
c -0.086915 -0.011077 -0.260747 -0.011077 -0.302500 0.032380
c -0.043458 0.043458 -0.152528 0.172979 -0.238591 0.129521
c -0.086063 -0.043458 -0.086063 -0.086915 -0.205359 -0.043458
c -0.119296 0.043458 -0.237740 -0.032380 -0.302500 0.032380
c -0.065613 0.064761 -0.011077 0.064761 -0.217289 0.000000
c -0.205359 -0.064761 -0.161050 0.043458 -0.357035 0.075838
s -0.313578 -0.032380 -0.368113 0.032380
c -0.054536 0.065613 -0.130374 0.184909 -0.161901 0.108219
c -0.032380 -0.074986 0.107367 -0.205359 0.052831 -0.248818
c -0.052831 -0.043458 -0.281197 -0.021302 -0.312726 0.011077
c -0.033232 0.032380 -0.011930 0.151676 0.009373 0.195134
c 0.022155 0.042606 0.054536 0.216437 -0.009373 0.184057
c -0.065613 -0.032380 -0.054536 -0.141451 -0.120148 -0.129521
c -0.064761 0.011077 -0.140599 0.043458 -0.172979 0.065613
c -0.032380 0.021302 -0.162753 0.021302 -0.195134 0.064761
c -0.031529 0.043458 0.011930 0.162753 -0.043458 0.172979
c -0.053683 0.011077 -0.097141 0.054536 -0.216437 -0.021302
c -0.119296 -0.075838 -0.119296 -0.032380 -0.151676 -0.010225
c -0.032380 0.021302 -0.184057 0.108219 -0.195134 0.010225
c -0.011077 -0.097141 0.021302 -0.129521 -0.075838 -0.195134
c -0.097993 -0.064761 -0.022155 -0.064761 0.108219 -0.021302
c 0.129521 0.042606 0.292275 0.063908 0.530015 -0.011077
c 0.238591 -0.075838 0.336585 -0.108219 0.238591 -0.151676
c -0.097993 -0.042606 -0.195134 -0.086063 -0.345958 -0.108219
c -0.152528 -0.021302 -0.357888 -0.021302 -0.596479 -0.108219
c -0.237740 -0.086915 -0.292275 -0.119296 -0.389416 -0.140599
c -0.097993 -0.022155 -0.692768 -0.119296 -0.964593 -0.075838
c -0.270120 0.043458 -1.016571 0.238591 -1.060881 0.270972
s -0.109070 0.161901 -0.248818 0.270972
c -0.140599 0.108219 -0.400494 0.357035 -0.606705 0.400494
c -0.205359 0.043458 -0.443951 0.216437 -0.443951 0.259895
c 0.000000 0.043458 0.086063 0.206212 0.064761 0.238591
c -0.021302 0.032380 0.042606 0.195134 0.162753 0.238591
c 0.118444 0.042606 0.324656 0.032380 0.334881 -0.033232
c 0.011930 -0.064761 0.173831 -0.205359 0.184909 -0.108219
c 0.011077 0.097993 0.119296 0.248818 0.097141 0.313578
c -0.021302 0.065613 0.000000 0.130374 0.076690 0.119296
c 0.074986 -0.010225 0.476332 -0.097141 0.476332 -0.097141
s 0.130374 -0.054536 0.108219 -0.141451
c -0.022155 -0.086063 0.141451 -0.205359 0.172979 -0.237740
c 0.032380 -0.032380 0.151676 -0.162753 0.011930 -0.205359
c -0.142303 -0.043458 -0.249669 -0.054536 -0.097993 -0.184057
s 0.248818 0.000000 0.443951 -0.195134
c 0.195134 -0.195134 -0.043458 -0.248818 0.162753 -0.259895
c 0.205359 -0.011077 0.422648 -0.021302 0.378339 0.043458
c -0.042606 0.064761 -0.291422 0.206212 -0.432873 0.270972
c -0.141451 0.065613 -0.119296 0.184057 -0.064761 0.248818
c 0.053683 0.064761 0.076690 0.216437 0.173831 0.195134
c 0.096289 -0.021302 0.216437 -0.097141 0.323803 -0.086063
c 0.109070 0.010225 0.326359 -0.011077 0.357888 -0.011077
c 0.033232 0.000000 0.184057 0.151676 0.097141 0.172979
c -0.086063 0.021302 -0.195134 0.011077 -0.379190 0.021302
c -0.183205 0.011077 -0.388564 0.011077 -0.388564 0.043458
c 0.000000 0.033232 0.248818 0.108219 0.161901 0.162753
c -0.086915 0.053683 -0.172979 -0.011077 -0.282050 -0.022155
c -0.108219 -0.010225 -0.172979 0.141451 -0.205359 0.227514
c -0.033232 0.086915 0.053683 0.238591 -0.108219 0.184057
c -0.162753 -0.053683 -0.282050 -0.053683 -0.324656 -0.032380
c -0.043458 0.021302 -0.172979 0.064761 -0.282050 0.097141
c -0.107367 0.032380 -0.064761 -0.053683 -0.206212 -0.053683
c -0.139746 0.000000 -0.139746 0.000000 -0.139746 0.000000
l -0.087768 0.011077
c 0.000000 0.000000 -0.086063 -0.053683 -0.097141 -0.140599
c -0.011077 -0.086915 0.042606 -0.184057 -0.011077 -0.205359
c -0.054536 -0.022155 -0.248818 0.010225 -0.281197 0.074986
c -0.032380 0.064761 -0.065613 0.184057 -0.022155 0.238591
c 0.044310 0.053683 0.173831 0.161901 0.054536 0.129521
c -0.119296 -0.032380 -0.270120 -0.043458 -0.357035 0.022155
c -0.086063 0.064761 -0.237740 0.205359 -0.237740 0.205359
s -0.270972 0.021302 -0.270972 0.086915
c 0.000000 0.065613 0.000000 0.151676 -0.097141 0.162753
c -0.097993 0.011077 -0.228366 0.042606 -0.357888 0.064761
c -0.130374 0.021302 -0.118444 0.074986 -0.270120 0.086915
s -0.173831 0.075838 -0.032380 0.097141
c 0.140599 0.021302 0.356183 0.108219 0.367260 0.205359
c 0.011930 0.097141 -0.011077 0.206212 -0.064761 0.303352
c -0.036641 0.067317 -0.259895 0.022155 -0.390268 0.022155
c -0.129521 0.000000 -0.388564 -0.043458 -0.497634 0.000000
c -0.108219 0.043458 -0.086915 0.259895 -0.054536 0.357035
c 0.033232 0.097141 -0.010225 0.151676 -0.053683 0.184057
c -0.043458 0.032380 -0.055388 0.129521 0.000000 0.173831
c 0.053683 0.043458 0.097141 0.140599 0.141451 0.151676
c 0.043458 0.011077 0.183205 -0.032380 0.237740 0.021302
c 0.054536 0.054536 0.108219 0.184057 0.140599 0.151676
c 0.033232 -0.032380 0.075838 -0.172979 0.130374 -0.141451
c 0.054536 0.033232 0.184057 -0.010225 0.282050 -0.021302
s 0.150824 -0.119296 0.248818 -0.173831
c 0.097141 -0.053683 0.042606 -0.053683 0.011077 -0.119296
c -0.032380 -0.064761 0.097141 -0.140599 0.173831 -0.216437
c 0.074986 -0.075838 0.215584 -0.011077 0.248818 -0.097993
c 0.032380 -0.086915 0.043458 -0.237740 0.128669 -0.227514
c 0.087768 0.011077 0.207064 0.064761 0.282050 0.064761
c 0.075838 0.000000 0.237740 -0.119296 0.282902 -0.140599
c 0.042606 -0.021302 0.205359 -0.011077 0.227514 0.086915
c 0.021302 0.097141 0.205359 0.216437 0.248818 0.237740
c 0.043458 0.021302 0.324656 0.108219 0.368965 0.140599
c 0.042606 0.032380 0.107367 0.130374 0.129521 0.216437
c 0.021302 0.086915 0.097141 0.086915 0.109070 0.011077
c 0.010225 -0.075838 -0.055388 -0.216437 0.021302 -0.206212
c 0.074986 0.011077 0.162753 -0.022155 0.162753 -0.022155
s -0.207064 -0.140599 -0.282050 -0.172979
c -0.074986 -0.032380 -0.217289 -0.097141 -0.282050 -0.205359
c -0.064761 -0.108219 -0.227514 -0.130374 -0.216437 -0.237740
c 0.011077 -0.108219 0.162753 -0.043458 0.248818 0.043458
c 0.086915 0.086915 0.303352 0.205359 0.379190 0.281197
c 0.074986 0.075838 0.195134 0.108219 0.227514 0.206212
c 0.033232 0.097141 0.129521 0.205359 0.161901 0.248818
c 0.032380 0.043458 0.140599 0.282050 0.173831 0.335733
c 0.032380 0.053683 0.140599 -0.010225 0.195134 -0.053683
c 0.053683 -0.043458 0.152528 -0.064761 0.162753 -0.151676
c 0.011077 -0.086915 -0.130374 -0.151676 -0.172979 -0.184057
c -0.043458 -0.032380 0.108219 -0.064761 0.162753 -0.108219
c 0.053683 -0.042606 0.150824 -0.119296 0.194282 -0.053683
c 0.043458 0.065613 0.022155 0.324656 0.043458 0.368113
c 0.021302 0.043458 0.237740 0.108219 0.282050 0.162753
c 0.042606 0.053683 0.227514 0.075838 0.259043 0.043458
c 0.033232 -0.032380 0.206212 0.022155 0.250521 0.032380
c 0.041754 0.011077 0.172127 -0.021302 0.259043 -0.042606
c 0.087768 -0.021302 0.173831 -0.086915 0.162753 0.053683
c -0.011077 0.140599 -0.043458 0.357035 -0.152528 0.465254
c -0.108219 0.108219 -0.064761 0.162753 -0.172127 0.162753
c -0.051127 0.000000 -0.096289 0.000000 -0.132929 0.017894
c -0.034937 -0.055388 -0.083507 -0.099697 -0.149120 -0.082655
c -0.129521 0.032380 -0.293127 0.032380 -0.400494 0.161901
c -0.109070 0.130374 -0.151676 0.140599 -0.173831 0.097141
c -0.021302 -0.043458 0.314429 -0.227514 0.270120 -0.282050
c -0.042606 -0.053683 -0.302500 -0.032380 -0.443951 -0.032380
c -0.141451 0.000000 -0.259895 -0.086915 -0.368965 -0.108219
c -0.107367 -0.021302 -0.248818 0.108219 -0.356183 0.216437
c -0.109070 0.108219 -0.184057 0.032380 -0.282050 0.032380
c -0.097993 0.000000 -0.282050 -0.140599 -0.282050 -0.140599
s -0.184057 -0.075838 -0.259895 -0.075838
c -0.074986 0.000000 -0.227514 -0.140599 -0.270972 -0.140599
c -0.042606 0.000000 -0.161901 -0.097993 -0.074986 -0.141451
c 0.086063 -0.042606 0.172127 0.043458 0.086063 -0.195134
c -0.086063 -0.237740 -0.281197 -0.184057 -0.357035 -0.151676
c -0.074986 0.033232 -0.616930 0.021302 -0.660388 0.021302
c -0.043458 0.000000 -0.357035 0.108219 -0.454177 0.151676
c -0.098845 0.043458 -0.270972 0.097993 -0.314429 0.119296
c -0.043458 0.021302 -0.270972 -0.043458 -0.368965 0.011077
c -0.128669 0.071578 -0.247965 0.184057 -0.281197 0.184057
c -0.032380 0.000000 -0.130374 0.075838 -0.195134 0.238591
c -0.065613 0.161901 0.011077 0.302500 -0.109070 0.357035
c -0.118444 0.053683 -0.335733 0.173831 -0.421796 0.259895
c -0.086915 0.086063 -0.195134 0.390268 -0.302500 0.530867
c -0.108219 0.140599 0.000000 0.270120 0.021302 0.357035
c 0.021302 0.086063 0.097141 0.248818 -0.021302 0.401346
c -0.119296 0.151676 -0.108219 0.226662 -0.162753 0.237740
c -0.053683 0.011077 0.053683 0.053683 0.074986 0.161901
c 0.021302 0.109070 -0.097141 0.217289 0.109070 0.314429
c 0.205359 0.096289 0.302500 0.184909 0.356183 0.312726
c 0.054536 0.130374 0.325508 0.346810 0.325508 0.346810
s 0.195134 0.174683 0.293127 0.249669
c 0.097141 0.075838 0.129521 0.032380 0.150824 -0.042606
c 0.021302 -0.076690 0.151676 -0.088620 0.302500 -0.088620
c 0.151676 0.000000 0.259895 0.034084 0.411571 0.011930
c 0.151676 -0.021302 0.303352 -0.120148 0.357888 -0.141451
c 0.053683 -0.021302 0.237740 -0.139746 0.377487 -0.053683
c 0.141451 0.087768 0.120148 0.205359 0.195986 0.282902
c 0.074986 0.074986 0.204507 0.031529 0.302500 -0.043458
c 0.097141 -0.076690 0.054536 -0.044310 0.172979 0.021302
c 0.119296 0.063908 0.173831 0.128669 0.065613 0.227514
c -0.109070 0.096289 -0.043458 0.249669 -0.109070 0.400494
c -0.064761 0.151676 -0.053683 0.172979 0.065613 0.236888
c 0.119296 0.064761 0.335733 0.466958 0.400494 0.543648
c 0.065613 0.074986 -0.021302 0.291422 0.054536 0.421796
c 0.075838 0.128669 0.151676 0.216437 0.065613 0.282050
c -0.087768 0.063908 -0.238591 0.184057 -0.248818 0.400494
s 0.043458 0.367260 0.086915 0.443951
s 0.150824 0.282050 0.205359 0.357035
c 0.054536 0.075838 0.119296 0.259895 0.129521 0.379190
c 0.011077 0.119296 -0.020451 0.260747 0.033232 0.324656
c 0.054536 0.064761 0.086915 0.162753 0.184057 0.248818
c 0.097993 0.087768 0.129521 0.270972 0.129521 0.270972
s 0.033232 0.075838 0.043458 0.195134
c 0.010225 0.119296 0.021302 0.194282 0.129521 0.248818
c 0.107367 0.053683 0.183205 0.064761 0.238591 0.011077
c 0.053683 -0.053683 0.324656 -0.065613 0.465254 -0.053683
c 0.140599 0.011077 0.302500 -0.063908 0.443951 -0.161901
s 0.346810 -0.357035 0.422648 -0.432873
c 0.075838 -0.076690 0.248818 -0.217289 0.228366 -0.303352
c -0.021302 -0.086063 -0.065613 -0.172979 0.020451 -0.216437
c 0.086915 -0.044310 0.293127 -0.129521 0.303352 -0.195134
c 0.011077 -0.065613 -0.076690 -0.336585 -0.097993 -0.389416
c -0.020451 -0.054536 0.054536 -0.153381 0.140599 -0.260747
c 0.087768 -0.109070 0.358740 -0.184057 0.401346 -0.227514
c 0.043458 -0.045162 0.162753 -0.227514 0.184909 -0.368965
c 0.020451 -0.142303 -0.043458 -0.314429 0.000000 -0.389416
c 0.042606 -0.076690 0.011077 -0.140599 -0.087768 -0.228366
c -0.097141 -0.086915 -0.075838 -0.346810 -0.108219 -0.389416
c -0.031529 -0.043458 -0.011077 -0.271824 0.053683 -0.293979
c 0.064761 -0.019599 0.206212 -0.237740 0.293127 -0.334881
c 0.086915 -0.097141 0.335733 -0.400494 0.455028 -0.422648
c 0.118444 -0.021302 0.302500 -0.195134 0.313578 -0.292275
c 0.011077 -0.097993 0.323803 -0.466106 0.335733 -0.541092
c 0.011077 -0.076690 0.141451 -0.357888 0.086915 -0.423501
c -0.052831 -0.064761 -0.476332 0.097993 -0.530015 0.120148
c -0.054536 0.021302 -0.205359 0.108219 -0.380042 0.096289
c -0.172127 -0.011077 -0.097141 -0.150824 -0.108219 -0.216437
c -0.010225 -0.064761 -0.194282 -0.313578 -0.237740 -0.324656
c -0.043458 -0.010225 -0.172979 -0.141451 -0.227514 -0.270120
c -0.053683 -0.130374 -0.129521 -0.292275 -0.216437 -0.390268
c -0.086915 -0.097141 -0.140599 -0.323803 -0.228366 -0.476332
c -0.086063 -0.151676 -0.161050 -0.346810 -0.237740 -0.487409
c -0.017894 -0.034937 -0.038345 -0.067317 -0.057091 -0.099697
c 0.100550 -0.024711 0.246261 -0.069873 0.264155 -0.007669
c 0.020451 0.074986 0.140599 0.237740 0.161901 0.357035
s 0.140599 0.075838 0.151676 0.184057
c 0.011930 0.109070 0.119296 0.368965 0.161901 0.400494
c 0.044310 0.032380 0.238591 0.206212 0.270972 0.270972
c 0.032380 0.064761 0.075838 0.151676 0.108219 0.314429
c 0.032380 0.161901 0.064761 0.378339 0.152528 0.410719
c 0.086915 0.032380 0.378339 -0.054536 0.432873 -0.086915
s 0.410719 -0.206212 0.541092 -0.217289
c 0.130374 -0.010225 0.152528 -0.097993 0.313578 -0.129521
c 0.162753 -0.032380 0.282050 -0.150824 0.390268 -0.238591
c 0.108219 -0.086063 0.238591 -0.302500 0.281197 -0.378339
c 0.044310 -0.074986 0.152528 -0.129521 0.097993 -0.215584
c -0.053683 -0.087768 -0.282050 -0.216437 -0.368965 -0.228366
c -0.086915 -0.010225 -0.075838 -0.151676 -0.129521 -0.151676
s -0.043458 0.074986 -0.151676 0.130374
c -0.108219 0.053683 -0.217289 0.161901 -0.293127 0.140599
s 0.022155 -0.075838 -0.096289 -0.172979
s -0.163606 -0.119296 -0.163606 -0.194282
c 0.000000 -0.075838 -0.236888 -0.217289 -0.259043 -0.325508
c -0.022155 -0.108219 0.161901 -0.259895 0.216437 -0.161901
c 0.053683 0.097141 0.097993 0.248818 0.237740 0.313578
c 0.140599 0.064761 0.270972 0.173831 0.336585 0.195134
c 0.064761 0.021302 0.227514 -0.119296 0.281197 -0.097141
c 0.053683 0.020451 0.162753 0.215584 0.260747 0.248818
c 0.096289 0.032380 0.421796 0.043458 0.476332 0.043458
s 0.281197 0.011077 0.324656 -0.053683
c 0.043458 -0.064761 0.075838 -0.064761 0.130374 -0.064761
c 0.052831 0.000000 0.150824 0.195134 0.227514 0.216437
c 0.075838 0.021302 0.216437 0.011077 0.205359 0.152528
c -0.010225 0.139746 0.064761 0.259895 0.140599 0.270120
c 0.076690 0.010225 0.249669 -0.162753 0.249669 -0.162753
s 0.000000 0.270972 -0.010225 0.368965
c -0.011930 0.096289 0.118444 0.455028 0.118444 0.455028
s 0.161901 0.334881 0.205359 0.410719
s 0.227514 0.302500 0.227514 0.400494
c 0.000000 0.097993 0.021302 0.249669 0.087768 0.249669
c 0.064761 0.000000 0.129521 -0.172979 0.204507 -0.282050
c 0.077543 -0.107367 0.098845 -0.259895 0.130374 -0.368113
c 0.032380 -0.108219 0.032380 -0.303352 0.032380 -0.378339
c 0.000000 -0.076690 0.063908 -0.141451 0.217289 -0.206212
c 0.151676 -0.064761 0.259043 -0.248818 0.388564 -0.346810
c 0.130374 -0.097993 0.120148 -0.259895 0.380042 -0.259895
c 0.259895 0.000000 0.236888 0.000000 0.302500 -0.065613
c 0.064761 -0.064761 0.128669 -0.108219 0.161901 0.011077
c 0.032380 0.119296 0.216437 0.292275 0.248818 0.335733
c 0.032380 0.044310 0.097141 0.162753 0.087768 0.293127
c -0.011077 0.129521 0.010225 0.281197 0.063908 0.281197
s 0.162753 -0.184057 0.162753 -0.184057
s 0.237740 -0.161050 0.227514 0.011077
c -0.011930 0.172979 0.021302 0.357035 0.021302 0.464402
c 0.000000 0.045162 0.035789 0.115035 0.074986 0.178944
c -0.004260 0.050274 -0.003408 0.101402 -0.007669 0.151676
C 22.088604 13.367223 22.087751 13.515491 22.129505 13.569174
z
M 16.118697 9.030818
c 0.064761 0.042606 0.086915 0.108219 0.129521 0.172979
c 0.044310 0.064761 0.119296 0.042606 0.172979 0.097141
c 0.053683 0.054536 -0.151676 0.119296 -0.063908 0.184057
c 0.086063 0.065613 0.128669 0.324656 0.140599 0.390268
c 0.011077 0.064761 -0.237740 0.097141 -0.314429 0.086915
c -0.075838 -0.011077 -0.301649 -0.086915 -0.379190 -0.108219
c -0.075838 -0.022155 -0.118444 -0.292275 -0.021302 -0.282050
c 0.098845 0.011077 0.120148 -0.021302 0.227514 -0.118444
c 0.109070 -0.097993 -0.161050 -0.141451 -0.236888 -0.162753
c -0.075838 -0.021302 -0.228366 -0.259895 -0.282050 -0.335733
c -0.052831 -0.075838 -0.011930 -0.194282 0.120148 -0.282050
c 0.064761 -0.043458 0.237740 0.053683 0.324656 0.000000
c 0.086063 -0.053683 0.172979 -0.119296 0.205359 -0.140599
c 0.033232 -0.021302 0.249669 0.032380 0.281197 0.097141
c 0.033232 0.064761 0.162753 0.162753 0.120148 0.195134
c -0.044310 0.032380 -0.239444 0.064761 -0.303352 0.000000
c -0.063908 -0.065613 -0.217289 0.010225 -0.228366 0.129521
C 15.999402 9.074277 16.054789 8.987361 16.118697 9.030818
z
M 13.130336 9.214875
c -0.065613 -0.021302 0.021302 -0.151676 0.086915 -0.195134
c 0.063908 -0.043458 0.139746 -0.151676 0.205359 -0.259895
c 0.064761 -0.108219 0.151676 -0.119296 0.205359 -0.108219
c 0.053683 0.011077 0.172979 0.205359 0.205359 0.270972
c 0.032380 0.064761 0.140599 -0.022155 0.184909 -0.043458
c 0.042606 -0.021302 0.108219 -0.086915 0.119296 -0.140599
s 0.108219 -0.086915 0.216437 -0.086915
s 0.011077 0.086915 -0.064761 0.108219
c -0.076690 0.021302 -0.032380 0.065613 0.096289 0.108219
c 0.130374 0.043458 0.249669 0.162753 0.391120 0.237740
c 0.140599 0.075838 0.161901 0.227514 0.074986 0.248818
c -0.086063 0.021302 -0.345958 0.043458 -0.443951 0.032380
c -0.097141 -0.011077 -0.216437 -0.108219 -0.357035 -0.130374
c -0.140599 -0.021302 -0.314429 -0.011077 -0.368965 0.065613
s -0.248818 0.042606 -0.336585 0.042606
c -0.086915 0.000000 -0.194282 0.108219 -0.215584 0.065613
C 13.130336 9.431312 13.195096 9.237030 13.130336 9.214875
z
M 13.498449 6.810212
c 0.053683 -0.151676 0.357035 0.032380 0.302500 0.108219
C 13.747266 6.995120 13.461808 6.913317 13.498449 6.810212
z
M 13.920245 14.586597
c 0.053683 0.086915 -0.119296 0.367260 -0.216437 0.346810
c -0.096289 -0.023007 -0.064761 -0.270972 -0.032380 -0.325508
C 13.703808 14.553365 13.892125 14.539731 13.920245 14.586597
z
M 9.989446 9.550608
c 0.021302 -0.043458 -0.033232 -0.130374 -0.108219 -0.011077
C 9.855665 9.581283 9.968143 9.594065 9.989446 9.550608
z
M 16.485959 5.597654
c 0.120148 0.064761 0.288867 0.091176 0.368965 0.011077
c 0.064761 -0.064761 0.011077 -0.173831 -0.042606 -0.184057
c -0.054536 -0.011077 -0.088620 -0.097993 0.052831 -0.172979
c 0.140599 -0.075838 0.292275 -0.173831 0.455028 -0.195134
c 0.161901 -0.021302 0.530015 -0.032380 0.659536 0.000000
c 0.129521 0.033232 0.325508 -0.141451 0.379190 -0.216437
s -0.172979 -0.129521 -0.237740 -0.043458
c -0.065613 0.086915 -0.378339 0.064761 -0.443951 0.043458
c -0.064761 -0.021302 -0.584549 0.086915 -0.691916 0.086915
c -0.109070 0.000000 -0.152528 0.129521 -0.303352 0.195134
c -0.152528 0.064761 -0.357888 0.162753 -0.433726 0.195134
c -0.074986 0.032380 -0.150824 0.161901 -0.086063 0.184057
C 16.226916 5.522668 16.367515 5.532893 16.485959 5.597654
z
M 10.801510 9.550608
c 0.054536 -0.075838 -0.043458 -0.184909 -0.097141 -0.184909
c -0.102254 0.000000 -0.151676 0.162753 -0.087768 0.216437
C 10.682214 9.637523 10.746975 9.626446 10.801510 9.550608
z
M 11.288919 9.842883
c 0.054536 0.021302 0.097141 0.086915 0.140599 0.097141
c 0.044310 0.011077 0.184909 0.000000 0.142303 -0.108219
s -0.142303 -0.108219 -0.173831 -0.108219
c -0.032380 0.000000 -0.172979 -0.032380 -0.227514 0.000000
C 11.130425 9.747446 11.234384 9.821579 11.288919 9.842883
z
M 8.386621 8.088381
c 0.086063 0.011077 0.184909 -0.053683 0.259895 -0.086063
c 0.074986 -0.032380 0.184057 -0.097141 0.184057 -0.195134
c 0.000000 -0.097141 -0.021302 -0.184057 -0.065613 -0.227514
c -0.043458 -0.043458 -0.119296 -0.054536 -0.184057 -0.043458
c -0.097993 0.017042 -0.108219 0.119296 -0.172979 0.119296
c -0.064761 0.000000 -0.140599 0.021302 -0.119296 0.097141
s 0.065613 0.129521 0.000000 0.161901
C 8.223867 7.947783 8.298853 8.078156 8.386621 8.088381
z
M 8.917487 7.623127
c 0.108219 0.043458 0.335733 0.086915 0.248818 0.130374
c -0.086915 0.043458 -0.238591 0.161901 -0.259895 0.227514
s 0.184057 0.130374 0.184057 0.130374
s -0.065613 0.075838 -0.011077 0.097141
c 0.053683 0.021302 0.086915 -0.075838 0.172979 -0.075838
c 0.086063 0.000000 0.259043 0.053683 0.345958 0.053683
c 0.087768 0.000000 0.227514 -0.119296 0.216437 -0.195134
c -0.011077 -0.075838 -0.119296 -0.195134 -0.216437 -0.238591
c -0.096289 -0.043458 -0.205359 -0.238591 -0.270120 -0.282050
c -0.064761 -0.043458 0.064761 -0.151676 -0.011077 -0.227514
c -0.076690 -0.075838 -0.130374 -0.064761 -0.217289 -0.119296
c -0.086915 -0.053683 -0.162753 0.011077 -0.216437 0.075838
c -0.053683 0.064761 -0.119296 -0.011077 -0.184909 0.010225
c -0.086915 0.029824 -0.053683 0.141451 -0.010225 0.195134
C 8.732579 7.460374 8.809269 7.579669 8.917487 7.623127
z
M 19.822834 13.405569
c -0.070725 0.031529 -0.130374 0.400494 0.000000 0.443951
c 0.129521 0.044310 0.205359 -0.172127 0.162753 -0.227514
C 19.941278 13.569174 19.919975 13.362111 19.822834 13.405569
z
M 15.890331 16.188570
c -0.135486 -0.038345 -0.150824 0.141451 -0.259043 0.260747
c -0.109070 0.120148 -0.227514 0.216437 -0.270120 0.205359
c -0.044310 -0.011077 -0.282050 0.075838 -0.206212 0.237740
c 0.075838 0.162753 0.064761 0.325508 -0.011077 0.402197
c -0.075838 0.074986 0.064761 0.291422 0.044310 0.410719
c -0.022155 0.118444 0.031529 0.195134 0.183205 0.195134
s 0.206212 -0.054536 0.270972 -0.195134
c 0.064761 -0.141451 0.074986 -0.282050 0.139746 -0.400494
c 0.065613 -0.120148 0.120148 -0.369817 0.152528 -0.434578
c 0.032380 -0.063908 0.097141 -0.269268 0.086915 -0.389416
C 16.009627 16.363254 15.967021 16.209874 15.890331 16.188570
z
M 7.605233 6.251225
c -0.058796 -0.051127 -0.195134 -0.086915 -0.260747 -0.093732
c -0.064761 -0.006817 -0.129521 0.051127 -0.273528 0.051127
c -0.143155 0.000000 -0.237740 0.057091 -0.295684 0.000000
C 6.717330 6.150675 6.477887 6.121704 6.455732 6.157492
C 6.426760 6.206063 6.369669 6.207767 6.426760 6.309168
c 0.058796 0.100550 0.102254 0.158493 0.152528 0.151676
s 0.223254 -0.014486 0.245408 0.043458
C 6.846000 6.562246 6.904796 6.612521 7.026648 6.576732
c 0.123556 -0.035789 0.224106 -0.057944 0.252226 -0.101402
c 0.028120 -0.043458 0.224106 -0.050274 0.224106 -0.050274
S 7.662324 6.301499 7.605233 6.251225zZ		"/>
		<style type="text/css"><![CDATA[
			.fill {
				stroke: none;
			}
			.fill.default {
				fill: url(#default-fill);
			}
			.fill.hover {
				fill: url(#hover-fill);
			}
			.fill.active {
				fill: url(#active-fill);
			}
			.stroke {
				fill: none;
				stroke-width: 4;
				stroke-linejoin: round;
			}
			.stroke.default {
				stroke: url(#default-stroke)
			}
			.stroke.hover {
				stroke: url(#hover-stroke)
			}
			.stroke.active {
				stroke: url(#active-stroke)
			}
		]]></style>
	</defs>
	<rect x="-2" y="-2" width="100%" height="100%" r="0" rx="0" ry="0" fill="white" stroke="none" opacity="0"/>
	<g transform="translate(0,0)">
		<g transform="scale(1)">
			<use id="stroke" xlink:href="#path" stroke="url(#active-stroke)" fill="none"/>
			<use id="fill" xlink:href="#path" stroke="none" fill="url(#active-fill)"/>
		</g>
	</g>
</svg>
