<svg height="28" version="1.1" width="28" xmlns="http://www.w3.org/2000/svg" viewBox="-4 -4 40 40">
	<path fill="none" stroke="#ffffff" stroke-width="6" stroke-linejoin="round" opacity="0" class="stroke" d="M15.667,4.601c-1.684,1.685-2.34,3.985-2.025,6.173l3.122-3.122c0.004-0.005,0.014-0.008,0.016-0.012c0.21-0.403,0.464-0.789,0.802-1.126c1.774-1.776,4.651-1.775,6.428,0c1.775,1.773,1.777,4.652,0.002,6.429c-0.34,0.34-0.727,0.593-1.131,0.804c-0.004,0.002-0.006,0.006-0.01,0.01l-3.123,3.123c2.188,0.316,4.492-0.34,6.176-2.023c2.832-2.832,2.83-7.423,0-10.255C23.09,1.77,18.499,1.77,15.667,4.601zM14.557,22.067c-0.209,0.405-0.462,0.791-0.801,1.131c-1.775,1.774-4.656,1.774-6.431,0c-1.775-1.774-1.775-4.653,0-6.43c0.339-0.338,0.725-0.591,1.128-0.8c0.004-0.006,0.005-0.012,0.011-0.016l3.121-3.123c-2.187-0.316-4.489,0.342-6.172,2.024c-2.831,2.831-2.83,7.423,0,10.255c2.833,2.831,7.424,2.831,10.257,0c1.684-1.684,2.342-3.986,2.023-6.175l-3.125,3.123C14.565,22.063,14.561,22.065,14.557,22.067zM9.441,18.885l2.197,2.197c0.537,0.537,1.417,0.537,1.953,0l8.302-8.302c0.539-0.536,0.539-1.417,0.002-1.952l-2.199-2.197c-0.536-0.539-1.416-0.539-1.952-0.002l-8.302,8.303C8.904,17.469,8.904,18.349,9.441,18.885z"/>
	<path fill="#000000" stroke="none" opacity="1" class="fill" d="M15.667,4.601c-1.684,1.685-2.34,3.985-2.025,6.173l3.122-3.122c0.004-0.005,0.014-0.008,0.016-0.012c0.21-0.403,0.464-0.789,0.802-1.126c1.774-1.776,4.651-1.775,6.428,0c1.775,1.773,1.777,4.652,0.002,6.429c-0.34,0.34-0.727,0.593-1.131,0.804c-0.004,0.002-0.006,0.006-0.01,0.01l-3.123,3.123c2.188,0.316,4.492-0.34,6.176-2.023c2.832-2.832,2.83-7.423,0-10.255C23.09,1.77,18.499,1.77,15.667,4.601zM14.557,22.067c-0.209,0.405-0.462,0.791-0.801,1.131c-1.775,1.774-4.656,1.774-6.431,0c-1.775-1.774-1.775-4.653,0-6.43c0.339-0.338,0.725-0.591,1.128-0.8c0.004-0.006,0.005-0.012,0.011-0.016l3.121-3.123c-2.187-0.316-4.489,0.342-6.172,2.024c-2.831,2.831-2.83,7.423,0,10.255c2.833,2.831,7.424,2.831,10.257,0c1.684-1.684,2.342-3.986,2.023-6.175l-3.125,3.123C14.565,22.063,14.561,22.065,14.557,22.067zM9.441,18.885l2.197,2.197c0.537,0.537,1.417,0.537,1.953,0l8.302-8.302c0.539-0.536,0.539-1.417,0.002-1.952l-2.199-2.197c-0.536-0.539-1.416-0.539-1.952-0.002l-8.302,8.303C8.904,17.469,8.904,18.349,9.441,18.885z"/>
</svg>
