<svg height="28" version="1.1" width="28" xmlns="http://www.w3.org/2000/svg" viewBox="-4 -4 40 40">
	<path fill="none" stroke="#ffffff" stroke-width="6" stroke-linejoin="round" opacity="0" class="stroke" d="M15.505,0.975c-8.02,0-14.521,6.501-14.521,14.521s6.501,14.521,14.521,14.521c8.02,0,14.521-6.501,14.521-14.521S23.525,0.975,15.505,0.975zM25.016,14.302c0.747,0,1.387,0.619,1.65,1.271l-3.317,0.045C23.601,14.942,24.252,14.302,25.016,14.302zM6.042,14.302c0.747,0,1.386,0.619,1.649,1.271l-3.317,0.045C4.626,14.942,5.278,14.302,6.042,14.302zM6.042,17.81c-0.818,0-1.508-0.343-1.715-1.096l3.446-0.063C7.588,17.435,6.883,17.81,6.042,17.81zM16.641,15.288c-0.178,0.068,1.135,5.804,1.135,5.804l-4.531,0.031c0,0,1.452-5.679,1.111-5.795c-1.326-0.452-2.279-1.708-2.279-3.187c0-1.859,1.507-3.366,3.366-3.366s3.366,1.507,3.366,3.366C18.808,13.578,17.908,14.805,16.641,15.288zM25.016,17.81c-0.817,0-1.507-0.343-1.714-1.096l3.445-0.063C26.562,17.435,25.857,17.81,25.016,17.81z"/>
	<path fill="#000000" stroke="none" opacity="1" class="fill" d="M15.505,0.975c-8.02,0-14.521,6.501-14.521,14.521s6.501,14.521,14.521,14.521c8.02,0,14.521-6.501,14.521-14.521S23.525,0.975,15.505,0.975zM25.016,14.302c0.747,0,1.387,0.619,1.65,1.271l-3.317,0.045C23.601,14.942,24.252,14.302,25.016,14.302zM6.042,14.302c0.747,0,1.386,0.619,1.649,1.271l-3.317,0.045C4.626,14.942,5.278,14.302,6.042,14.302zM6.042,17.81c-0.818,0-1.508-0.343-1.715-1.096l3.446-0.063C7.588,17.435,6.883,17.81,6.042,17.81zM16.641,15.288c-0.178,0.068,1.135,5.804,1.135,5.804l-4.531,0.031c0,0,1.452-5.679,1.111-5.795c-1.326-0.452-2.279-1.708-2.279-3.187c0-1.859,1.507-3.366,3.366-3.366s3.366,1.507,3.366,3.366C18.808,13.578,17.908,14.805,16.641,15.288zM25.016,17.81c-0.817,0-1.507-0.343-1.714-1.096l3.445-0.063C26.562,17.435,25.857,17.81,25.016,17.81z"/>
</svg>
