<svg height="28" version="1.1" width="28" xmlns="http://www.w3.org/2000/svg" viewBox="-4 -4 40 40">
	<path fill="none" stroke="#ffffff" stroke-width="6" stroke-linejoin="round" opacity="0" class="stroke" d="M22.335,12.833V9.999h-0.001C22.333,6.501,19.498,3.666,16,3.666S9.666,6.502,9.666,10h0v2.833H7.375V25h17.25V12.833H22.335zM11.667,10C11.667,10,11.667,10,11.667,10c0-2.39,1.944-4.334,4.333-4.334c2.391,0,4.335,1.944,4.335,4.333c0,0,0,0,0,0v2.834h-8.668V10z"/>
	<path fill="#000000" stroke="none" opacity="1" class="fill" d="M22.335,12.833V9.999h-0.001C22.333,6.501,19.498,3.666,16,3.666S9.666,6.502,9.666,10h0v2.833H7.375V25h17.25V12.833H22.335zM11.667,10C11.667,10,11.667,10,11.667,10c0-2.39,1.944-4.334,4.333-4.334c2.391,0,4.335,1.944,4.335,4.333c0,0,0,0,0,0v2.834h-8.668V10z"/>
</svg>
