<?xml version="1.0" encoding="UTF-8" standalone="no"?>
<!-- Created with Inkscape (http://www.inkscape.org/) -->

<svg
   xmlns:dc="http://purl.org/dc/elements/1.1/"
   xmlns:cc="http://creativecommons.org/ns#"
   xmlns:rdf="http://www.w3.org/1999/02/22-rdf-syntax-ns#"
   xmlns:svg="http://www.w3.org/2000/svg"
   xmlns="http://www.w3.org/2000/svg"
   version="1.1"
   width="32"
   height="32"
   id="svg2985">
  <defs
     id="defs2987" />
  <metadata
     id="metadata2990">
    <rdf:RDF>
      <cc:Work
         rdf:about="">
        <dc:format>image/svg+xml</dc:format>
        <dc:type
           rdf:resource="http://purl.org/dc/dcmitype/StillImage" />
        <dc:title></dc:title>
      </cc:Work>
    </rdf:RDF>
  </metadata>
  <g
     id="layer1">
    <g
       transform="translate(2,4)"
       id="text2995"
       style="font-size:40px;font-style:normal;font-weight:normal;line-height:125%;letter-spacing:0px;word-spacing:0px;fill:#000000;fill-opacity:1;stroke:none;font-family:Sans">
      <path
         d="M 4.2844445,21.259259 C 3.3441878,20.346646 2.6528305,19.33035 2.2103704,18.21037 1.7540659,17.090353 1.525918,15.88739 1.5259259,14.601481 1.525918,13.357023 1.7540659,12.174802 2.2103704,11.054815 2.6666576,9.934804 3.3511014,8.918509 4.2637038,8.005926 5.0933222,7.1901152 6.1027032,6.5125852 7.2918522,5.9733339 8.3150472,5.5170307 9.4834412,5.2888823 10.797037,5.2888887 c 1.313562,-6.4e-6 2.50961,0.228142 3.588148,0.6844452 1.133805,0.483943 2.143187,1.161473 3.028149,2.0325921 0.912567,0.912583 1.597011,1.928878 2.053332,3.048889 0.45627,1.119987 0.684419,2.302208 0.684445,3.546666 -2.6e-5,1.285909 -0.228175,2.488872 -0.684445,3.608889 -0.470148,1.11998 -1.161506,2.136276 -2.074074,3.048889 l -0.725925,0.725927 0,-5.485186 -3.525927,0 0,11.5 2.6e-4,0 11.5,0 0,-3.525925 -5.485444,0 0.725925,-0.725927 c 1.244418,-1.244467 2.191577,-2.641009 2.841482,-4.18963 0.63602,-1.548661 0.954044,-3.201005 0.954074,-4.957037 -3e-5,-1.714582 -0.318054,-3.346185 -0.954074,-4.8948137 C 22.059231,8.1441888 21.112072,6.7476468 19.881481,5.5170371 18.719975,4.3693776 17.33726,3.4360456 15.733333,2.7170368 14.309115,2.0809846 12.677511,1.76296 10.838519,1.7629632 9.0686262,1.76296 7.4370232,2.0809846 5.9437042,2.7170368 4.395051,3.3807362 3.0123363,4.3140693 1.7955555,5.5170371 0.5649313,6.7476468 -0.3822283,8.1441888 -1.045926,9.7066673 -1.68198,11.255296 -2.0000045,12.886899 -2,14.601481 c -4.5e-6,1.756032 0.31802,3.408376 0.954074,4.957037 0.6222163,1.479485 1.5693758,2.876027 2.8414815,4.18963 l 2.488889,-2.488889"
         id="path4254" />
    </g>
  </g>
</svg>
