<svg height="28" version="1.1" width="28" xmlns="http://www.w3.org/2000/svg" viewBox="-4 -4 40 40">
	<path fill="none" stroke="#ffffff" stroke-width="6" stroke-linejoin="round" opacity="0" class="stroke" d="M26.92,10.928l-3.574-2.064v2.297h-6.414c-1.123,0.084-3.062-1.19-5.218-2.881C9.543,6.676,7.062,4.709,3.74,4.656H1.505v3.662H3.74c1.627-0.047,3.633,1.232,5.769,2.883c0.796,0.577,1.599,1.213,2.45,1.788c-0.851,0.575-1.653,1.212-2.45,1.789c-2.136,1.646-4.142,2.929-5.767,2.882H1.505v3.668h2.236c3.315-0.047,5.797-2.02,7.975-3.621c2.156-1.691,4.094-2.966,5.218-2.883h6.412v2.297l3.574-2.062l3.576-2.064L26.92,10.928z"/>
	<path fill="#000000" stroke="none" opacity="1" class="fill" d="M26.92,10.928l-3.574-2.064v2.297h-6.414c-1.123,0.084-3.062-1.19-5.218-2.881C9.543,6.676,7.062,4.709,3.74,4.656H1.505v3.662H3.74c1.627-0.047,3.633,1.232,5.769,2.883c0.796,0.577,1.599,1.213,2.45,1.788c-0.851,0.575-1.653,1.212-2.45,1.789c-2.136,1.646-4.142,2.929-5.767,2.882H1.505v3.668h2.236c3.315-0.047,5.797-2.02,7.975-3.621c2.156-1.691,4.094-2.966,5.218-2.883h6.412v2.297l3.574-2.062l3.576-2.064L26.92,10.928z"/>
</svg>
