<?xml version="1.0" encoding="UTF-8" standalone="no"?>
<!-- Created with Inkscape (http://www.inkscape.org/) -->

<svg
   xmlns:dc="http://purl.org/dc/elements/1.1/"
   xmlns:cc="http://creativecommons.org/ns#"
   xmlns:rdf="http://www.w3.org/1999/02/22-rdf-syntax-ns#"
   xmlns:svg="http://www.w3.org/2000/svg"
   xmlns="http://www.w3.org/2000/svg"
   version="1.1"
   width="527.40747"
   height="625.63123"
   id="svg3016"
   xml:space="preserve"><metadata
     id="metadata3022"><rdf:RDF><cc:Work
         rdf:about=""><dc:format>image/svg+xml</dc:format><dc:type
           rdf:resource="http://purl.org/dc/dcmitype/StillImage" /><dc:title></dc:title></cc:Work></rdf:RDF></metadata><defs
     id="defs3020"><clipPath
       id="clipPath3030"><path
         d="m 0,500.505 421.926,0 L 421.926,0 0,0 0,500.505 z"
         id="path3032" /></clipPath></defs><g
     transform="matrix(1.25,0,0,-1.25,0,625.63125)"
     id="g3024"><g
       id="g3026"><g
         clip-path="url(#clipPath3030)"
         id="g3028"><g
           transform="translate(308.5,307)"
           id="g3034"><path
             d="M 0,0 C -44.459,0 -80.5,36.041 -80.5,80.5 -80.5,124.959 -44.459,161 0,161 44.459,161 80.5,124.959 80.5,80.5 80.5,36.041 44.459,0 0,0 m -200.392,-168.431 c -12.02,-12.019 -35.377,-9.917 -46.689,1.394 -11.315,11.316 -13.415,34.67 -1.394,46.69 7.498,7.498 92.349,92.349 148.748,148.748 10.744,-20.522 27.63,-37.318 48.224,-47.942 -56.399,-56.399 -141.386,-141.387 -148.889,-148.89 M 0,193 c -62.132,0 -112.5,-50.368 -112.5,-112.5 0,-6.181 0.506,-12.242 1.465,-18.152 L -269.71,-96.333 c -21.052,-21.047 -24.9,-52.78 -11.563,-77.745 -0.148,-0.202 -0.297,-0.402 -0.439,-0.615 -52.882,-59.491 -19.831,-118.985 33.051,-118.985 52.882,0 118.984,59.494 158.644,59.494 39.663,0 59.494,-33.052 46.273,-59.494 6.61,-19.83 25.202,-16.523 35.53,3.307 9.502,66.1 -48.75,90.476 -75.191,89.236 -59.492,1.24 -118.984,-59.492 -165.256,-59.492 -33.051,0 -26.441,46.272 -6.61,59.492 0.141,0.107 0.27,0.214 0.408,0.321 25.078,-13.82 57.227,-10.116 78.49,11.152 L -17.372,-30.664 C -11.709,-31.542 -5.908,-32 0,-32 62.132,-32 112.5,18.368 112.5,80.5 112.5,142.632 62.132,193 0,193"
             id="path3036"
             style="fill:#000000;fill-opacity:1;fill-rule:nonzero;stroke:none" /></g></g></g></g></svg>