<svg height="28" version="1.1" width="28" xmlns="http://www.w3.org/2000/svg" viewBox="-4 -4 40 40">
	<path fill="none" stroke="#ffffff" stroke-width="6" stroke-linejoin="round" opacity="0" class="stroke" d="M21.916,17.622c0.238,0,0.432-0.193,0.432-0.432c0-0.227-0.176-0.411-0.397-0.429c-0.059-0.409-0.408-0.723-0.833-0.723c-0.332,0-0.617,0.191-0.755,0.471c-0.325,0.021-0.582,0.289-0.582,0.619c0,0.342,0.278,0.62,0.621,0.62c0.131,0,0.251-0.041,0.351-0.109c0.111,0.054,0.234,0.084,0.365,0.084c0.203,0,0.39-0.072,0.535-0.192C21.725,17.588,21.816,17.622,21.916,17.622zM16.044,17.591c0,0,0-2.28,0-2.869v-2.862c0,0-0.013-0.228-0.304-0.228c0,0-1.547,0-1.672,0c0,0-0.266,0.057-0.266,0.399c0,0.342,0.481,0.476,0.899,0.57c0,0,0,0.267,0,0.605c-0.37-0.225-0.811-0.333-1.292-0.333c-1.738,0-2.239,0.75-2.378,1.812c-0.225-1.056-0.889-1.8-2.529-1.8c-2.421,0-2.628,1.293-2.628,2.887s0.233,2.887,2.628,2.887c1.726,0,2.343-0.733,2.542-1.777c0.161,1.037,0.691,1.765,2.365,1.765c0.434,0,0.886-0.085,1.28-0.313c0.017,0.217,0.214,0.226,0.214,0.226s1.547,0,1.671,0c0,0,0.266-0.058,0.266-0.398C16.842,17.818,16.462,17.685,16.044,17.591zM8.502,17.622c-1.171,0-1.285-0.828-1.285-1.849s0.102-1.849,1.285-1.849c1.058,0,1.286,0.828,1.286,1.849S9.624,17.622,8.502,17.622zM13.512,17.584c-1.127,0-1.229-0.816-1.229-1.824c0-1.007,0.076-1.824,1.229-1.824c0.836,0,1.229,0.405,1.229,1.824C14.74,17.204,14.19,17.584,13.512,17.584zM5.533,17.591c0,0,0-2.28,0-2.869c0-1.558-1.051-1.887-1.963-1.887c-0.912,0-1.257,0.282-1.257,0.282S2.228,12.911,2,12.911H0.454c-0.177,0-0.342,0.089-0.342,0.481s0.825,0.583,0.825,0.583c0,0.589,0,3.635,0,3.635c-0.418,0.095-0.798,0.228-0.798,0.57c0,0.342,0.266,0.398,0.266,0.398s2.299,0,2.424,0c0,0,0.266-0.057,0.266-0.398c0-0.343-0.38-0.476-0.798-0.57c0,0,0-2.279,0-2.869c0-0.38,0.513-0.835,1.14-0.835c0.399,0,0.684,0.266,0.684,0.588c0,0.323,0,3.097,0,3.097c-0.418,0.094-0.798,0.228-0.798,0.57c0,0.341,0.266,0.398,0.266,0.398s2.352,0,2.476,0c0,0,0.266-0.058,0.266-0.398C6.331,17.818,5.951,17.685,5.533,17.591zM20.401,18.129c-0.406,0-0.756-0.244-0.912-0.593c-0.149,0.055-0.326,0.086-0.538,0.086c-0.997,0-1.228-0.599-1.275-1.406h2.317c0.043-0.02,0.087-0.036,0.132-0.049c0.229-0.318,0.593-0.509,0.992-0.509c0.162,0,0.318,0.033,0.461,0.092c-0.004-1.585-0.476-2.866-2.627-2.866c-2.421,0-2.628,1.293-2.628,2.888s0.233,2.887,2.628,2.887c0.936,0,1.544-0.215,1.938-0.578c-0.038-0.008-0.074-0.017-0.111-0.027C20.66,18.104,20.532,18.129,20.401,18.129zM18.951,13.924c0.821,0,1.143,0.5,1.244,1.203h-2.504C17.764,14.424,18.03,13.924,18.951,13.924zM26.804,13.483c0-0.152,0.038-0.962,1.114-0.962c1.077,0,1.438,0.506,1.438,1.089v0.289c0,0.209,0.171,0.38,0.38,0.38h0.633c0.209,0,0.381-0.171,0.381-0.38v-2.014c0-0.209-0.172-0.38-0.381-0.38h-0.189c-0.209,0-0.38,0.171-0.38,0.38v0.073c-0.443-0.238-1.191-0.491-1.951-0.491c-1.278,0-2.354,0.643-2.354,1.976c0,2.964,3.926,1.292,3.926,3.102c0,0.152-0.038,0.963-1.115,0.963c-1.076,0-1.519-0.507-1.519-1.089v-0.215c0-0.209-0.171-0.38-0.38-0.38h-0.634c-0.209,0-0.38,0.171-0.38,0.38v2.014c0,0.209,0.171,0.38,0.38,0.38h0.189c0.209,0,0.38-0.171,0.38-0.38v-0.156c0.378,0.234,1.265,0.523,2.166,0.523c1.278,0,2.355-0.741,2.355-2.075C30.862,13.546,26.804,15.294,26.804,13.483zM25.518,11.967c0-0.342-0.266-0.399-0.266-0.399s-2.298,0-2.424,0c0,0-0.266,0.057-0.266,0.399s0.38,0.475,0.798,0.57c0,0,0,4.109,0,4.413c0,0.25-0.312,0.474-0.655,0.427c-0.085,0.357-0.406,0.625-0.789,0.625c-0.082,0-0.162-0.012-0.237-0.035c-0.107,0.056-0.224,0.095-0.343,0.116c0.226,0.176,0.67,0.488,1.522,0.488c1.52,0,1.862-1.089,1.862-1.836c0-0.588,0-4.198,0-4.198C25.138,12.442,25.518,12.309,25.518,11.967z"/>
	<path fill="#000000" stroke="none" opacity="1" class="fill" d="M21.916,17.622c0.238,0,0.432-0.193,0.432-0.432c0-0.227-0.176-0.411-0.397-0.429c-0.059-0.409-0.408-0.723-0.833-0.723c-0.332,0-0.617,0.191-0.755,0.471c-0.325,0.021-0.582,0.289-0.582,0.619c0,0.342,0.278,0.62,0.621,0.62c0.131,0,0.251-0.041,0.351-0.109c0.111,0.054,0.234,0.084,0.365,0.084c0.203,0,0.39-0.072,0.535-0.192C21.725,17.588,21.816,17.622,21.916,17.622zM16.044,17.591c0,0,0-2.28,0-2.869v-2.862c0,0-0.013-0.228-0.304-0.228c0,0-1.547,0-1.672,0c0,0-0.266,0.057-0.266,0.399c0,0.342,0.481,0.476,0.899,0.57c0,0,0,0.267,0,0.605c-0.37-0.225-0.811-0.333-1.292-0.333c-1.738,0-2.239,0.75-2.378,1.812c-0.225-1.056-0.889-1.8-2.529-1.8c-2.421,0-2.628,1.293-2.628,2.887s0.233,2.887,2.628,2.887c1.726,0,2.343-0.733,2.542-1.777c0.161,1.037,0.691,1.765,2.365,1.765c0.434,0,0.886-0.085,1.28-0.313c0.017,0.217,0.214,0.226,0.214,0.226s1.547,0,1.671,0c0,0,0.266-0.058,0.266-0.398C16.842,17.818,16.462,17.685,16.044,17.591zM8.502,17.622c-1.171,0-1.285-0.828-1.285-1.849s0.102-1.849,1.285-1.849c1.058,0,1.286,0.828,1.286,1.849S9.624,17.622,8.502,17.622zM13.512,17.584c-1.127,0-1.229-0.816-1.229-1.824c0-1.007,0.076-1.824,1.229-1.824c0.836,0,1.229,0.405,1.229,1.824C14.74,17.204,14.19,17.584,13.512,17.584zM5.533,17.591c0,0,0-2.28,0-2.869c0-1.558-1.051-1.887-1.963-1.887c-0.912,0-1.257,0.282-1.257,0.282S2.228,12.911,2,12.911H0.454c-0.177,0-0.342,0.089-0.342,0.481s0.825,0.583,0.825,0.583c0,0.589,0,3.635,0,3.635c-0.418,0.095-0.798,0.228-0.798,0.57c0,0.342,0.266,0.398,0.266,0.398s2.299,0,2.424,0c0,0,0.266-0.057,0.266-0.398c0-0.343-0.38-0.476-0.798-0.57c0,0,0-2.279,0-2.869c0-0.38,0.513-0.835,1.14-0.835c0.399,0,0.684,0.266,0.684,0.588c0,0.323,0,3.097,0,3.097c-0.418,0.094-0.798,0.228-0.798,0.57c0,0.341,0.266,0.398,0.266,0.398s2.352,0,2.476,0c0,0,0.266-0.058,0.266-0.398C6.331,17.818,5.951,17.685,5.533,17.591zM20.401,18.129c-0.406,0-0.756-0.244-0.912-0.593c-0.149,0.055-0.326,0.086-0.538,0.086c-0.997,0-1.228-0.599-1.275-1.406h2.317c0.043-0.02,0.087-0.036,0.132-0.049c0.229-0.318,0.593-0.509,0.992-0.509c0.162,0,0.318,0.033,0.461,0.092c-0.004-1.585-0.476-2.866-2.627-2.866c-2.421,0-2.628,1.293-2.628,2.888s0.233,2.887,2.628,2.887c0.936,0,1.544-0.215,1.938-0.578c-0.038-0.008-0.074-0.017-0.111-0.027C20.66,18.104,20.532,18.129,20.401,18.129zM18.951,13.924c0.821,0,1.143,0.5,1.244,1.203h-2.504C17.764,14.424,18.03,13.924,18.951,13.924zM26.804,13.483c0-0.152,0.038-0.962,1.114-0.962c1.077,0,1.438,0.506,1.438,1.089v0.289c0,0.209,0.171,0.38,0.38,0.38h0.633c0.209,0,0.381-0.171,0.381-0.38v-2.014c0-0.209-0.172-0.38-0.381-0.38h-0.189c-0.209,0-0.38,0.171-0.38,0.38v0.073c-0.443-0.238-1.191-0.491-1.951-0.491c-1.278,0-2.354,0.643-2.354,1.976c0,2.964,3.926,1.292,3.926,3.102c0,0.152-0.038,0.963-1.115,0.963c-1.076,0-1.519-0.507-1.519-1.089v-0.215c0-0.209-0.171-0.38-0.38-0.38h-0.634c-0.209,0-0.38,0.171-0.38,0.38v2.014c0,0.209,0.171,0.38,0.38,0.38h0.189c0.209,0,0.38-0.171,0.38-0.38v-0.156c0.378,0.234,1.265,0.523,2.166,0.523c1.278,0,2.355-0.741,2.355-2.075C30.862,13.546,26.804,15.294,26.804,13.483zM25.518,11.967c0-0.342-0.266-0.399-0.266-0.399s-2.298,0-2.424,0c0,0-0.266,0.057-0.266,0.399s0.38,0.475,0.798,0.57c0,0,0,4.109,0,4.413c0,0.25-0.312,0.474-0.655,0.427c-0.085,0.357-0.406,0.625-0.789,0.625c-0.082,0-0.162-0.012-0.237-0.035c-0.107,0.056-0.224,0.095-0.343,0.116c0.226,0.176,0.67,0.488,1.522,0.488c1.52,0,1.862-1.089,1.862-1.836c0-0.588,0-4.198,0-4.198C25.138,12.442,25.518,12.309,25.518,11.967z"/>
</svg>
