<svg height="28" version="1.1" width="28" xmlns="http://www.w3.org/2000/svg" viewBox="-4 -4 40 40">
	<path fill="none" stroke="#ffffff" stroke-width="6" stroke-linejoin="round" opacity="0" class="stroke" d="M15.954,2.046c-7.489,0-12.872,5.432-12.872,13.581c0,7.25,5.234,13.835,12.873,13.835c7.712,0,12.974-6.583,12.974-13.835C28.929,7.413,23.375,2.046,15.954,2.046zM15.952,26.548L15.952,26.548c-2.289,0-3.49-1.611-4.121-3.796c-0.284-1.037-0.458-2.185-0.563-3.341c-0.114-1.374-0.129-2.773-0.129-4.028c0-0.993,0.018-1.979,0.074-2.926c0.124-1.728,0.386-3.431,0.89-4.833c0.694-1.718,1.871-2.822,3.849-2.822c2.5,0,3.763,1.782,4.385,4.322c0.429,1.894,0.56,4.124,0.56,6.274c0,2.299-0.103,5.153-0.763,7.442C19.473,24.979,18.242,26.548,15.952,26.548z"/>
	<path fill="#000000" stroke="none" opacity="1" class="fill" d="M15.954,2.046c-7.489,0-12.872,5.432-12.872,13.581c0,7.25,5.234,13.835,12.873,13.835c7.712,0,12.974-6.583,12.974-13.835C28.929,7.413,23.375,2.046,15.954,2.046zM15.952,26.548L15.952,26.548c-2.289,0-3.49-1.611-4.121-3.796c-0.284-1.037-0.458-2.185-0.563-3.341c-0.114-1.374-0.129-2.773-0.129-4.028c0-0.993,0.018-1.979,0.074-2.926c0.124-1.728,0.386-3.431,0.89-4.833c0.694-1.718,1.871-2.822,3.849-2.822c2.5,0,3.763,1.782,4.385,4.322c0.429,1.894,0.56,4.124,0.56,6.274c0,2.299-0.103,5.153-0.763,7.442C19.473,24.979,18.242,26.548,15.952,26.548z"/>
</svg>
