<svg height="28" version="1.1" width="28" xmlns="http://www.w3.org/2000/svg" viewBox="-4 -4 40 40">
	<path fill="none" stroke="#ffffff" stroke-width="6" stroke-linejoin="round" opacity="0" class="stroke" d="M25.31,2.872l-3.384-2.127c-0.854-0.536-1.979-0.278-2.517,0.576l-1.334,2.123l6.474,4.066l1.335-2.122C26.42,4.533,26.164,3.407,25.31,2.872zM6.555,21.786l6.474,4.066L23.581,9.054l-6.477-4.067L6.555,21.786zM5.566,26.952l-0.143,3.819l3.379-1.787l3.14-1.658l-6.246-3.925L5.566,26.952z"/>
	<path fill="#000000" stroke="none" opacity="1" class="fill" d="M25.31,2.872l-3.384-2.127c-0.854-0.536-1.979-0.278-2.517,0.576l-1.334,2.123l6.474,4.066l1.335-2.122C26.42,4.533,26.164,3.407,25.31,2.872zM6.555,21.786l6.474,4.066L23.581,9.054l-6.477-4.067L6.555,21.786zM5.566,26.952l-0.143,3.819l3.379-1.787l3.14-1.658l-6.246-3.925L5.566,26.952z"/>
</svg>
