<svg height="28" version="1.1" width="28" xmlns="http://www.w3.org/2000/svg" viewBox="-4 -4 40 40">
	<path fill="none" stroke="#ffffff" stroke-width="6" stroke-linejoin="round" opacity="0" class="stroke" d="M2.5,4.833v22.334h27V4.833H2.5zM25.25,25.25H6.75V6.75h18.5V25.25zM11.25,14c1.426,0,2.583-1.157,2.583-2.583c0-1.427-1.157-2.583-2.583-2.583c-1.427,0-2.583,1.157-2.583,2.583C8.667,12.843,9.823,14,11.25,14zM24.251,16.25l-4.917-4.917l-6.917,6.917L10.5,16.333l-2.752,2.752v5.165h16.503V16.25z"/>
	<path fill="#000000" stroke="none" opacity="1" class="fill" d="M2.5,4.833v22.334h27V4.833H2.5zM25.25,25.25H6.75V6.75h18.5V25.25zM11.25,14c1.426,0,2.583-1.157,2.583-2.583c0-1.427-1.157-2.583-2.583-2.583c-1.427,0-2.583,1.157-2.583,2.583C8.667,12.843,9.823,14,11.25,14zM24.251,16.25l-4.917-4.917l-6.917,6.917L10.5,16.333l-2.752,2.752v5.165h16.503V16.25z"/>
</svg>
