<svg height="28" version="1.1" width="28" xmlns="http://www.w3.org/2000/svg" viewBox="-4 -4 40 40">
	<path fill="none" stroke="#ffffff" stroke-width="6" stroke-linejoin="round" opacity="0" class="stroke" d="M15.583,15.917l1.648-10.779C16.692,5.056,16.145,5,15.583,5C9.554,5,4.666,9.888,4.666,15.917c0,6.029,4.888,10.917,10.917,10.917S26.5,21.946,26.5,15.917c0-0.256-0.021-0.507-0.038-0.759L15.583,15.917zM19.437,3.127l-1.648,10.779l10.879-0.759C28.313,8.026,24.436,3.886,19.437,3.127z"/>
	<path fill="#000000" stroke="none" opacity="1" class="fill" d="M15.583,15.917l1.648-10.779C16.692,5.056,16.145,5,15.583,5C9.554,5,4.666,9.888,4.666,15.917c0,6.029,4.888,10.917,10.917,10.917S26.5,21.946,26.5,15.917c0-0.256-0.021-0.507-0.038-0.759L15.583,15.917zM19.437,3.127l-1.648,10.779l10.879-0.759C28.313,8.026,24.436,3.886,19.437,3.127z"/>
</svg>
