<svg height="28" version="1.1" width="28" xmlns="http://www.w3.org/2000/svg" viewBox="-4 -4 40 40">
	<path fill="none" stroke="#ffffff" stroke-width="6" stroke-linejoin="round" opacity="0" class="stroke" d="M21.816,3.999c-0.993-0.481-2.189-0.068-2.673,0.927c-0.482,0.995-0.066,2.191,0.927,2.673c3.115,1.516,5.265,4.705,5.263,8.401c-0.01,5.154-4.18,9.324-9.333,9.333c-5.154-0.01-9.324-4.18-9.334-9.333c-0.002-3.698,2.149-6.89,5.267-8.403c0.995-0.482,1.408-1.678,0.927-2.673c-0.482-0.993-1.676-1.409-2.671-0.927C5.737,6.152,2.667,10.72,2.665,16C2.667,23.364,8.634,29.332,16,29.334c7.365-0.002,13.333-5.97,13.334-13.334C29.332,10.722,26.266,6.157,21.816,3.999z M16,13.833c1.104,0,1.999-0.894,1.999-2V2.499C17.999,1.394,17.104,0.5,16,0.5c-1.106,0-2,0.895-2,1.999v9.333C14,12.938,14.894,13.833,16,13.833z"/>
	<path fill="#000000" stroke="none" opacity="1" class="fill" d="M21.816,3.999c-0.993-0.481-2.189-0.068-2.673,0.927c-0.482,0.995-0.066,2.191,0.927,2.673c3.115,1.516,5.265,4.705,5.263,8.401c-0.01,5.154-4.18,9.324-9.333,9.333c-5.154-0.01-9.324-4.18-9.334-9.333c-0.002-3.698,2.149-6.89,5.267-8.403c0.995-0.482,1.408-1.678,0.927-2.673c-0.482-0.993-1.676-1.409-2.671-0.927C5.737,6.152,2.667,10.72,2.665,16C2.667,23.364,8.634,29.332,16,29.334c7.365-0.002,13.333-5.97,13.334-13.334C29.332,10.722,26.266,6.157,21.816,3.999z M16,13.833c1.104,0,1.999-0.894,1.999-2V2.499C17.999,1.394,17.104,0.5,16,0.5c-1.106,0-2,0.895-2,1.999v9.333C14,12.938,14.894,13.833,16,13.833z"/>
</svg>
