<svg height="28" version="1.1" width="28" xmlns="http://www.w3.org/2000/svg" viewBox="-4 -4 40 40">
	<path fill="none" stroke="#ffffff" stroke-width="6" stroke-linejoin="round" opacity="0" class="stroke" d="M18.265,22.734c1.365,0.662,2.309,2.062,2.309,3.682c0,1.566-0.881,2.928-2.176,3.615l1.922-0.98c3.16-1.58,5.332-4.846,5.332-8.617c0-3.719-2.109-6.945-5.195-8.547l-6.272-3.144c-1.366-0.662-2.308-2.062-2.308-3.682c0-1.567,0.881-2.928,2.175-3.614L12.13,2.428c-3.161,1.578-5.332,4.843-5.332,8.616c0,3.718,2.108,6.944,5.195,8.546L18.265,22.734z"/>
	<path fill="#000000" stroke="none" opacity="1" class="fill" d="M18.265,22.734c1.365,0.662,2.309,2.062,2.309,3.682c0,1.566-0.881,2.928-2.176,3.615l1.922-0.98c3.16-1.58,5.332-4.846,5.332-8.617c0-3.719-2.109-6.945-5.195-8.547l-6.272-3.144c-1.366-0.662-2.308-2.062-2.308-3.682c0-1.567,0.881-2.928,2.175-3.614L12.13,2.428c-3.161,1.578-5.332,4.843-5.332,8.616c0,3.718,2.108,6.944,5.195,8.546L18.265,22.734z"/>
</svg>
