<svg height="28" version="1.1" width="28" xmlns="http://www.w3.org/2000/svg" viewBox="-4 -4 40 40">
	<path fill="none" stroke="#ffffff" stroke-width="6" stroke-linejoin="round" opacity="0" class="stroke" d="M16,1.466C7.973,1.466,1.466,7.973,1.466,16c0,8.027,6.507,14.534,14.534,14.534c8.027,0,14.534-6.507,14.534-14.534C30.534,7.973,24.027,1.466,16,1.466zM20.729,7.375c0.934,0,1.688,1.483,1.688,3.312S21.661,14,20.729,14c-0.932,0-1.688-1.483-1.688-3.312S19.798,7.375,20.729,7.375zM11.104,7.375c0.932,0,1.688,1.483,1.688,3.312S12.037,14,11.104,14s-1.688-1.483-1.688-3.312S10.172,7.375,11.104,7.375zM16.021,26c-2.873,0-5.563-1.757-7.879-4.811c2.397,1.564,5.021,2.436,7.774,2.436c2.923,0,5.701-0.98,8.215-2.734C21.766,24.132,18.99,26,16.021,26z"/>
	<path fill="#000000" stroke="none" opacity="1" class="fill" d="M16,1.466C7.973,1.466,1.466,7.973,1.466,16c0,8.027,6.507,14.534,14.534,14.534c8.027,0,14.534-6.507,14.534-14.534C30.534,7.973,24.027,1.466,16,1.466zM20.729,7.375c0.934,0,1.688,1.483,1.688,3.312S21.661,14,20.729,14c-0.932,0-1.688-1.483-1.688-3.312S19.798,7.375,20.729,7.375zM11.104,7.375c0.932,0,1.688,1.483,1.688,3.312S12.037,14,11.104,14s-1.688-1.483-1.688-3.312S10.172,7.375,11.104,7.375zM16.021,26c-2.873,0-5.563-1.757-7.879-4.811c2.397,1.564,5.021,2.436,7.774,2.436c2.923,0,5.701-0.98,8.215-2.734C21.766,24.132,18.99,26,16.021,26z"/>
</svg>
