<svg height="28" version="1.1" width="28" xmlns="http://www.w3.org/2000/svg" viewBox="-4 -4 40 40">
	<path fill="none" stroke="#ffffff" stroke-width="6" stroke-linejoin="round" opacity="0" class="stroke" d="M23.346,23.979l3.576-2.062l3.574-2.062l-3.576-2.064l-3.574-2.062v2.293c-0.876,0-1.894,0-2.235,0c-1.626,0.046-3.633-1.233-5.768-2.883c-0.796-0.578-1.599-1.214-2.45-1.789c0.851-0.575,1.653-1.211,2.45-1.789c2.135-1.647,4.142-2.929,5.766-2.882l2.237-0.001v2.296l3.574-2.063l3.576-2.064L26.92,4.78l-3.574-2.064v2.295H21.11c-3.321,0.047-5.803,2.019-7.975,3.622c-2.156,1.691-4.094,2.965-5.218,2.882H1.505v3.664h6.414c1.123-0.083,3.062,1.191,5.218,2.882c2.171,1.604,4.652,3.575,7.974,3.622h2.235V23.979L23.346,23.979z"/>
	<path fill="#000000" stroke="none" opacity="1" class="fill" d="M23.346,23.979l3.576-2.062l3.574-2.062l-3.576-2.064l-3.574-2.062v2.293c-0.876,0-1.894,0-2.235,0c-1.626,0.046-3.633-1.233-5.768-2.883c-0.796-0.578-1.599-1.214-2.45-1.789c0.851-0.575,1.653-1.211,2.45-1.789c2.135-1.647,4.142-2.929,5.766-2.882l2.237-0.001v2.296l3.574-2.063l3.576-2.064L26.92,4.78l-3.574-2.064v2.295H21.11c-3.321,0.047-5.803,2.019-7.975,3.622c-2.156,1.691-4.094,2.965-5.218,2.882H1.505v3.664h6.414c1.123-0.083,3.062,1.191,5.218,2.882c2.171,1.604,4.652,3.575,7.974,3.622h2.235V23.979L23.346,23.979z"/>
</svg>
