<svg height="28" version="1.1" width="28" xmlns="http://www.w3.org/2000/svg" viewBox="-4 -4 40 40">
	<path fill="none" stroke="#ffffff" stroke-width="6" stroke-linejoin="round" opacity="0" class="stroke" d="M30.373,12.329H19.391l-3.39-10.433l-0.476,1.458l-2.918,8.977L1.628,12.329l8.882,6.454l-3.396,10.44l8.884-6.454l8.886,6.457l-3.397-10.443L30.373,12.329z M17.175,21.151L16,20.298l-1.175,0.854l-3.902,2.834l1.49-4.584l0.45-1.382l-1.177-0.855l-3.9-2.834h6.275l0.45-1.381L16,8.366l1.489,4.581l0.449,1.381h6.281l-3.906,2.836l-1.178,0.854l0.449,1.384l1.493,4.584L17.175,21.151z"/>
	<path fill="#000000" stroke="none" opacity="1" class="fill" d="M30.373,12.329H19.391l-3.39-10.433l-0.476,1.458l-2.918,8.977L1.628,12.329l8.882,6.454l-3.396,10.44l8.884-6.454l8.886,6.457l-3.397-10.443L30.373,12.329z M17.175,21.151L16,20.298l-1.175,0.854l-3.902,2.834l1.49-4.584l0.45-1.382l-1.177-0.855l-3.9-2.834h6.275l0.45-1.381L16,8.366l1.489,4.581l0.449,1.381h6.281l-3.906,2.836l-1.178,0.854l0.449,1.384l1.493,4.584L17.175,21.151z"/>
</svg>
