<svg height="50" version="1.1" width="50" xmlns="http://www.w3.org/2000/svg" xmlns:xlink="http://www.w3.org/1999/xlink" viewBox="-2048 -2048 4096 4096">
	<defs>
		<path id="path" d="
M  2496 1021
q  0 -38 -29.5 -80.5
t  -67.5 -42.5
q  -81 0 -81 132
q  0 70 65 194
h  39
q  13 0 13 -20
q  0 -11 -18 -48
t  -18 -50
v  -76
q  4 0 22 -17
q  11 30 44 44
q  31 0 31 -36
z
M 2452 1367
q  0 -18 -15.5 -44
t  -33.5 -26
q  -11 0 -53.5 22
t  -53.5 22
q  -9 0 -53 -57
q  -51 -66 -76 -90 
q  -112 -105 -312 -222
q  -124 -74 -145 -74
h  -45
v  43
l  280 206
q  241 181 241 228
q  0 3 -44 57.5
t  -44 94.5
q  0 50 46 129
q  55 93 118 93
q  77 0 90 -133
l  12 -152
l  55 -40
q  33 -23 33 -57
z
M 1761 1270
q  0 -41 -35.5 -83
t  -75.5 -42
q  -34 0 -58 68
q  -17 52 -17 96
q  0 33 33 108.5
t  58 90.5
h  41
v  -49 
q  0 -10 -22 -47.5
t  -22 -47.5
v  -71
l  16 -15
q  8 4 31 26
h  40
q  11 -11 11 -34
z
M 1742 1654
q  0 -20 -199 -123
l  -280 -143
l  -150 -77
q  -123 -68 -123 -103
q  0 -6 22 -37.5
t  22 -47.5
q  0 -49 -44 -49
q  -75 0 -80 117
q  -2 82 39 121.5
t  256 154.5
q  94 50 313 156
q  188 89 186 89
q  9 0 22 -4.5
t  16 -4.5 
v  -49
z
M 2585 312
q  0 -24 -21.5 -60
t  -43.5 -44
q  -31 3 -88 -5
q  -104 -33 -90 -33
q  -14 0 -43 14
t  -42 14
q  -33 0 -98 -50
l  -67 -53
q  -150 -99 -204 -99
h  -63
l  -11 9
v  23
q  71 40 260 159
q  158 100 169 100
q  14 0 57.5 -13.5
t  58.5 -13.5
q  8 0 47.5 30.5
t  48.5 30.5
q  19 0 38 -17
q  11 6 32 44
h  39 
q  21 -20 21 -36
z
M 874 1538
q  -5 -2 -92 -5
q  -111 -95 -212 -158
l  -40 10
v  33
l  87 66
q  80 63 80 91
q  0 10 -17 39
t  -17 40
q  0 36 37 74
t  73 38
q  47 0 58 -134
q  18 -16 43 -47
v  -47
z
M 2736 681
q  0 -79 -52 -139
t  -129 -60
q  -29 0 -77 27
t  -67 52
l  -93 -87
q  -52 -38 -122 -38
q  -106 0 -175 108
l  -93 -41 
q  -55 -27 -77 -63
q  -8 -43 -41 -117
q  -100 -120 -264 -219
q  -181 -110 -316 -110
q  -230 0 -235 216
q  0 7 -9 23
q  -109 -63 -336 -167
q  -80 -28 -250 -70
q  -147 -36 -169 -36
h  -54
l  -20 22
q  50 38 170 86
q  153 63 169 69
q  452 222 674 411
q  85 73 85 88
q  0 10 -75 152.5
t  -75 180.5
t  38 113
h  27 
q  19 0 135 -124
q  13 -33 13 -38
q  0 -8 -17.5 -27
t  -17.5 -27
q  0 -7 31 -72.5
t  31 -112.5
q  0 -101 -68 -191
q  -31 -44 -123 -126
q  -66 -60 -66 -90
q  0 -58 52 -96
q  47 -33 107 -33
q  109 0 265.5 85
t  213.5 176
l  -8 8
q  -42 3 -127 11
q  -74 7 -119 70
q  -12 15 -12 49
q  0 64 49 146
q  56 93 124 93 
q  58 0 128.5 -84.5
t  79.5 -84.5
q  50 0 142.5 61.5
l  92.5 61.5
q  19 0 40 -74.5
t  92 -74.5
q  101 0 219 193
h  43
q  8 -12 19 -91
q  9 -54 86 -54
q  18 0 40 4
q  11 9 11 39
q  0 14 -3.5 44
t  -3.5 46
q  0 68 46 68
q  32 0 54 -67
q  17 -52 17 -89
z
M 795 1282
q  0 -22 -27 -56.5
t  -47 -34.5
q  -14 0 -45 12.5 
t  -45 12.5
q  -9 0 -47 -30.5
t  -46 -30.5
q  -28 0 -81 37
t  -53 65
q  0 29 33.5 61
t  61.5 32
q  9 0 44.5 -18
t  48.5 -18
q  8 0 38.5 30.5
t  57.5 30.5
q  28 0 67.5 -33
t  39.5 -60
z
M 858 1040
q  0 -13 -62 -132
t  -62 -130
q  0 -3 43 -52
t  50 -63
q  12 -25 12 -80
q  0 35 -12 -88
q  -7 -62 -115 -133 
q  -103 -67 -169 -67
q  -46 0 -72 55
q  -21 41 -21 74
q  0 116 77 250
q  11 21 11 38
q  0 10 -58 73
q  -66 74 -80 97
q  -4 5 -4 60
q  0 88 41 88
q  10 0 74 -41
q  81 -50 93 -58
q  -1 -27 27 -87
q  32 15 55 52
q  114 178 136 178
q  36 0 36 -34
z
M 2266 1563
q  0 28 -33 44
q  -28 -30 -28 -52
q  38 -38 52 -36 
q  0 4 4.5 19
t  4.5 25
z
M 1671 586
q  -14 17 -55 36
q  -35 3 -38 -22
q  -2 -12 38 -14
q  22 -2 55 0
z
M 741 556
q  -9 24 -42 54.5
t  -54 30.5
q  -25 0 -62 -57.5
t  -37 -84.5
q  0 -36 36 -36
q  29 0 87 34
t  72 59
Z
		"/>
		<style type="text/css"><![CDATA[
			.fill {
				stroke: none;
			}
			.fill.default {
				fill: url(#default-fill);
			}
			.fill.hover {
				fill: url(#hover-fill);
			}
			.fill.active {
				fill: url(#active-fill);
			}
			.stroke {
				fill: none;
				stroke-width: 4;
				stroke-linejoin: round;
			}
			.stroke.default {
				stroke: url(#default-stroke)
			}
			.stroke.hover {
				stroke: url(#hover-stroke)
			}
			.stroke.active {
				stroke: url(#active-stroke)
			}
		]]></style>
	</defs>
	<g transform="translate(0,0)">
		<g transform="scale(1,-1)">
			<g transform="translate(1,1)">
				<use id="stroke" xlink:href="#path" stroke-width="1px" stroke="black" fill="none"/>
			</g>
			<use id="fill" xlink:href="#path" stroke="none" fill="white"/>
		</g>
	</g>
</svg>
