<svg height="28" version="1.1" width="28" xmlns="http://www.w3.org/2000/svg" viewBox="-4 -4 40 40">
	<path fill="none" stroke="#ffffff" stroke-width="6" stroke-linejoin="round" opacity="0" class="stroke" d="M14.263,2.826H7.904L2.702,8.028v6.359L18.405,30.09l11.561-11.562L14.263,2.826zM6.495,8.859c-0.619-0.619-0.619-1.622,0-2.24C7.114,6,8.117,6,8.736,6.619c0.62,0.62,0.619,1.621,0,2.241C8.117,9.479,7.114,9.479,6.495,8.859z"/>
	<path fill="#000000" stroke="none" opacity="1" class="fill" d="M14.263,2.826H7.904L2.702,8.028v6.359L18.405,30.09l11.561-11.562L14.263,2.826zM6.495,8.859c-0.619-0.619-0.619-1.622,0-2.24C7.114,6,8.117,6,8.736,6.619c0.62,0.62,0.619,1.621,0,2.241C8.117,9.479,7.114,9.479,6.495,8.859z"/>
</svg>
