<svg height="28" version="1.1" width="28" xmlns="http://www.w3.org/2000/svg" viewBox="-4 -4 40 40">
	<path fill="none" stroke="#ffffff" stroke-width="6" stroke-linejoin="round" opacity="0" class="stroke" d="M19.361,17.744V3.438c0-1.85-1.504-3.348-3.352-3.348c-1.852,0-3.35,1.498-3.35,3.348v14.193c-2.106,1.154-3.536,3.391-3.536,5.961c0,3.752,3.042,6.793,6.793,6.793c3.753,0,6.793-3.041,6.793-6.793C22.71,21.099,21.363,18.924,19.361,17.744zM15.917,29.27c-3.129,0-5.676-2.548-5.676-5.68c0-2.072,1.132-3.98,2.954-4.979l0.581-0.316V3.437c0-1.231,1.003-2.231,2.236-2.231c1.231,0,2.232,1,2.232,2.231v14.942l0.548,0.324c1.756,1.036,2.806,2.861,2.806,4.887C21.596,26.722,19.048,29.27,15.917,29.27zM18.225,19.666l-1.099-0.647V9.26h-2.233v9.695l-1.161,0.635c-1.464,0.805-2.375,2.334-2.375,4c0,2.514,2.047,4.561,4.56,4.561c2.515,0,4.56-2.047,4.56-4.561C20.479,21.988,19.616,20.485,18.225,19.666z"/>
	<path fill="#000000" stroke="none" opacity="1" class="fill" d="M19.361,17.744V3.438c0-1.85-1.504-3.348-3.352-3.348c-1.852,0-3.35,1.498-3.35,3.348v14.193c-2.106,1.154-3.536,3.391-3.536,5.961c0,3.752,3.042,6.793,6.793,6.793c3.753,0,6.793-3.041,6.793-6.793C22.71,21.099,21.363,18.924,19.361,17.744zM15.917,29.27c-3.129,0-5.676-2.548-5.676-5.68c0-2.072,1.132-3.98,2.954-4.979l0.581-0.316V3.437c0-1.231,1.003-2.231,2.236-2.231c1.231,0,2.232,1,2.232,2.231v14.942l0.548,0.324c1.756,1.036,2.806,2.861,2.806,4.887C21.596,26.722,19.048,29.27,15.917,29.27zM18.225,19.666l-1.099-0.647V9.26h-2.233v9.695l-1.161,0.635c-1.464,0.805-2.375,2.334-2.375,4c0,2.514,2.047,4.561,4.56,4.561c2.515,0,4.56-2.047,4.56-4.561C20.479,21.988,19.616,20.485,18.225,19.666z"/>
</svg>
