<svg height="256" version="1.1" width="256" xmlns="http://www.w3.org/2000/svg" xmlns:xlink="http://www.w3.org/1999/xlink" viewBox="-2 -2 32 32">
	<defs>
		<linearGradient id="active-stroke" x1="0%" y1="0%" x2="0%" y2="100%">
			<stop offset="0%" style="stop-color:#fff;stop-opacity:0.86"/>
			<stop offset="100%" style="stop-color:#fff;stop-opacity:0.62"/>
		</linearGradient>
		<linearGradient id="active-fill" x1="0%" y1="0%" x2="0%" y2="100%">
			<stop offset="0%" style="stop-color:#333;stop-opacity:1"/>
			<stop offset="100%" style="stop-color:#000;stop-opacity:1"/>
		</linearGradient>
		<linearGradient id="hover-stroke" x1="0%" y1="0%" x2="0%" y2="100%">
			<stop offset="0%" style="stop-color:#fff;stop-opacity:1"/>
			<stop offset="100%" style="stop-color:#ddd;stop-opacity:0.62"/>
		</linearGradient>
		<linearGradient id="hover-fill" x1="0%" y1="0%" x2="0%" y2="100%">
			<stop offset="0%" style="stop-color:#88B;stop-opacity:1"/>
			<stop offset="100%" style="stop-color:#78C;stop-opacity:1"/>
		</linearGradient>
		<linearGradient id="default-stroke" x1="0%" y1="0%" x2="0%" y2="100%">
			<stop offset="0%" style="stop-color:#fff;stop-opacity:0.62"/>
			<stop offset="100%" style="stop-color:#fff;stop-opacity:0.38"/>
		</linearGradient>
		<linearGradient id="default-fill" x1="0%" y1="0%" x2="0%" y2="100%">
			<stop offset="0%" style="stop-color:#999;stop-opacity:1"/>
			<stop offset="100%" style="stop-color:#666;stop-opacity:1"/>
		</linearGradient>
		<path id="path" d="
M 12.384615 0.000002
c -6.839346 0.000000 -12.384615 3.686898 -12.384615 8.234707
c 0.000000 2.601718 1.820389 4.919482 4.654517 6.427883
c -0.403325 1.337484 -1.208167 2.818754 -2.763592 4.129110
c 0.000000 0.000000 3.630831 -0.240548 6.195473 -2.842267
c 0.147403 0.036173 0.300233 0.063302 0.449446 0.096762
c -0.140169 -0.417794 -0.222462 -0.852770 -0.222462 -1.304929
c 0.000000 -3.068346 3.414699 -5.471115 7.776218 -5.471115
c 3.132552 0.000000 5.768635 1.244340 7.009358 3.080103
c 1.056241 -1.211784 1.670272 -2.615283 1.670272 -4.116449
C 24.769231 3.686900 19.223962 0.000002 12.384615 0.000002
z
M 22.960598 14.742170
c 0.000000 -2.523043 -3.075580 -4.569512 -6.871902 -4.569512
c -3.794513 0.000000 -6.871902 2.046468 -6.871902 4.569512
c 0.000000 2.523947 3.077389 4.569512 6.871902 4.569512
c 0.840110 0.000000 1.640430 -0.104900 2.384682 -0.288477
c 1.422490 1.444194 3.437308 1.577128 3.437308 1.577128
c -0.862718 -0.727071 -1.308546 -1.549094 -1.532816 -2.291538
C 21.949572 17.472302 22.960598 16.186364 22.960598 14.742170
z
Z		"/>
		<style type="text/css"><![CDATA[
			.fill {
				stroke: none;
			}
			.fill.default {
				fill: url(#default-fill);
			}
			.fill.hover {
				fill: url(#hover-fill);
			}
			.fill.active {
				fill: url(#active-fill);
			}
			.stroke {
				fill: none;
				stroke-width: 4;
				stroke-linejoin: round;
			}
			.stroke.default {
				stroke: url(#default-stroke)
			}
			.stroke.hover {
				stroke: url(#hover-stroke)
			}
			.stroke.active {
				stroke: url(#active-stroke)
			}
		]]></style>
	</defs>
	<rect x="-2" y="-2" width="100%" height="100%" r="0" rx="0" ry="0" fill="white" stroke="none" opacity="0"/>
	<g transform="translate(0,0)">
		<g transform="scale(1)">
			<use id="stroke" xlink:href="#path" stroke="url(#hover-stroke)" fill="none"/>
			<use id="fill" xlink:href="#path" stroke="none" fill="url(#hover-fill)"/>
		</g>
	</g>
</svg>
