<svg height="256" version="1.1" width="256" xmlns="http://www.w3.org/2000/svg" xmlns:xlink="http://www.w3.org/1999/xlink" viewBox="-2 -2 32 32">
	<defs>
		<linearGradient id="active-stroke" x1="0%" y1="0%" x2="0%" y2="100%">
			<stop offset="0%" style="stop-color:#fff;stop-opacity:0.86"/>
			<stop offset="100%" style="stop-color:#fff;stop-opacity:0.62"/>
		</linearGradient>
		<linearGradient id="active-fill" x1="0%" y1="0%" x2="0%" y2="100%">
			<stop offset="0%" style="stop-color:#333;stop-opacity:1"/>
			<stop offset="100%" style="stop-color:#000;stop-opacity:1"/>
		</linearGradient>
		<linearGradient id="hover-stroke" x1="0%" y1="0%" x2="0%" y2="100%">
			<stop offset="0%" style="stop-color:#fff;stop-opacity:1"/>
			<stop offset="100%" style="stop-color:#ddd;stop-opacity:0.62"/>
		</linearGradient>
		<linearGradient id="hover-fill" x1="0%" y1="0%" x2="0%" y2="100%">
			<stop offset="0%" style="stop-color:#88B;stop-opacity:1"/>
			<stop offset="100%" style="stop-color:#78C;stop-opacity:1"/>
		</linearGradient>
		<linearGradient id="default-stroke" x1="0%" y1="0%" x2="0%" y2="100%">
			<stop offset="0%" style="stop-color:#fff;stop-opacity:0.62"/>
			<stop offset="100%" style="stop-color:#fff;stop-opacity:0.38"/>
		</linearGradient>
		<linearGradient id="default-fill" x1="0%" y1="0%" x2="0%" y2="100%">
			<stop offset="0%" style="stop-color:#999;stop-opacity:1"/>
			<stop offset="100%" style="stop-color:#666;stop-opacity:1"/>
		</linearGradient>
		<path id="path" d="
M 9.963076 -0.000313
L 0.000112 21.250195
l 6.460965 -4.018630
l 1.043823 7.537352
l 9.962964 -21.251390
L 9.963076 -0.000313
z
M 11.490085 6.506417
c -0.494627 -0.232352 -0.708497 -0.821152 -0.476145 -1.315780
c 0.233232 -0.494627 0.822032 -0.708497 1.316661 -0.476145
s 0.708497 0.822032 0.476145 1.316661
S 11.985593 6.738769 11.490085 6.506417
z
Z		"/>
		<style type="text/css"><![CDATA[
			.fill {
				stroke: none;
			}
			.fill.default {
				fill: url(#default-fill);
			}
			.fill.hover {
				fill: url(#hover-fill);
			}
			.fill.active {
				fill: url(#active-fill);
			}
			.stroke {
				fill: none;
				stroke-width: 4;
				stroke-linejoin: round;
			}
			.stroke.default {
				stroke: url(#default-stroke)
			}
			.stroke.hover {
				stroke: url(#hover-stroke)
			}
			.stroke.active {
				stroke: url(#active-stroke)
			}
		]]></style>
	</defs>
	<rect x="-2" y="-2" width="100%" height="100%" r="0" rx="0" ry="0" fill="white" stroke="none" opacity="0"/>
	<g transform="translate(0,0)">
		<g transform="scale(1)">
			<use id="stroke" xlink:href="#path" stroke="url(#default-stroke)" fill="none"/>
			<use id="fill" xlink:href="#path" stroke="none" fill="url(#default-fill)"/>
		</g>
	</g>
</svg>
