<svg height="256" version="1.1" width="256" xmlns="http://www.w3.org/2000/svg" xmlns:xlink="http://www.w3.org/1999/xlink" viewBox="-2 -2 32 32">
	<defs>
		<linearGradient id="active-stroke" x1="0%" y1="0%" x2="0%" y2="100%">
			<stop offset="0%" style="stop-color:#fff;stop-opacity:0.86"/>
			<stop offset="100%" style="stop-color:#fff;stop-opacity:0.62"/>
		</linearGradient>
		<linearGradient id="active-fill" x1="0%" y1="0%" x2="0%" y2="100%">
			<stop offset="0%" style="stop-color:#333;stop-opacity:1"/>
			<stop offset="100%" style="stop-color:#000;stop-opacity:1"/>
		</linearGradient>
		<linearGradient id="hover-stroke" x1="0%" y1="0%" x2="0%" y2="100%">
			<stop offset="0%" style="stop-color:#fff;stop-opacity:1"/>
			<stop offset="100%" style="stop-color:#ddd;stop-opacity:0.62"/>
		</linearGradient>
		<linearGradient id="hover-fill" x1="0%" y1="0%" x2="0%" y2="100%">
			<stop offset="0%" style="stop-color:#88B;stop-opacity:1"/>
			<stop offset="100%" style="stop-color:#78C;stop-opacity:1"/>
		</linearGradient>
		<linearGradient id="default-stroke" x1="0%" y1="0%" x2="0%" y2="100%">
			<stop offset="0%" style="stop-color:#fff;stop-opacity:0.62"/>
			<stop offset="100%" style="stop-color:#fff;stop-opacity:0.38"/>
		</linearGradient>
		<linearGradient id="default-fill" x1="0%" y1="0%" x2="0%" y2="100%">
			<stop offset="0%" style="stop-color:#999;stop-opacity:1"/>
			<stop offset="100%" style="stop-color:#666;stop-opacity:1"/>
		</linearGradient>
		<path id="path" d="
M 9.953821 -0.000262
C 9.936955 -0.000359 9.923304 0.000767 9.912599 0.002791
C 9.891190 0.006836 9.881758 0.012912 9.885118 0.011951
L 9.798096 0.036378
L 9.749241 0.111188
C 9.190824 0.952249 8.130382 1.310793 7.126348 1.691336
C 7.125907 1.691483 7.125260 1.691190 7.124821 1.691336
C 6.185955 2.044587 5.257090 2.396304 4.301928 2.636372
L 4.295821 2.637898
L 4.291240 2.639425
C 3.063869 3.010102 1.746294 3.292977 0.576746 3.984459
L 0.578273 3.987513
C 0.546627 4.002006 0.516153 4.013732 0.479037 4.048582
C 0.432075 4.092675 0.373137 4.205303 0.395067 4.306596
C 0.416999 4.407890 0.471230 4.449309 0.503464 4.474535
C 0.535699 4.499760 0.560510 4.511622 0.582853 4.523389
C 0.625617 4.545913 0.657866 4.563281 0.675983 4.573771
L 0.695830 4.596671
C 1.113196 5.101034 1.105054 5.867138 1.014913 6.576819
C 0.894821 7.322066 0.446285 8.035736 0.282091 8.900477
C 0.281847 8.901444 0.282335 8.902558 0.282091 8.903531
C 0.281398 8.907215 0.279722 8.910530 0.279037 8.914217
C -0.240460 11.041393 -0.023891 13.322052 0.846975 15.318780
L 0.845449 15.318780
C 1.104634 16.143913 1.114430 17.105156 0.680563 17.830224
L 0.668349 17.848545
L 0.662242 17.863812
C 0.660751 17.859221 0.627412 17.905724 0.573693 17.950835
C 0.542997 17.976611 0.508429 18.003117 0.471403 18.039384
C 0.434378 18.075651 0.382827 18.115827 0.356900 18.225642
L 0.318732 18.392054
L 0.460717 18.485185
C 1.480684 19.159850 2.668947 19.423797 3.753837 19.758463
L 3.756890 19.759990
L 3.759944 19.759990
C 4.859928 20.063137 5.946397 20.370423 6.967569 20.831743
L 6.970622 20.833270
L 6.973676 20.833270
C 8.003642 21.269842 9.075588 21.672342 9.747715 22.485173
C 9.773053 22.521435 9.805660 22.559017 9.862218 22.587463
C 9.935247 22.624195 10.038239 22.621471 10.100385 22.596624
C 10.224677 22.546928 10.249757 22.483135 10.283590 22.436318
C 10.317424 22.389502 10.344572 22.347701 10.364506 22.320289
C 10.373832 22.307466 10.382684 22.300137 10.385880 22.297388
C 10.386125 22.297193 10.387250 22.295998 10.387407 22.295861
L 10.398094 22.291281
L 10.425575 22.262273
C 11.389168 21.287438 12.821426 20.930578 14.155336 20.369149
C 15.786469 19.806023 17.569217 19.507554 19.166009 18.651596
L 19.188911 18.639382
L 19.210285 18.621062
C 19.200781 18.629335 19.230646 18.607408 19.268299 18.585947
C 19.305953 18.564487 19.352643 18.539400 19.405704 18.497398
C 19.432234 18.476397 19.462481 18.451999 19.492727 18.405795
C 19.522971 18.359592 19.552719 18.277637 19.537001 18.192055
C 19.521284 18.106474 19.469810 18.045823 19.425551 18.010376
C 19.404425 17.993457 19.383599 17.986494 19.362955 17.975262
C 18.815682 17.425344 18.824935 16.497602 19.005705 15.711146
C 19.005949 15.710184 19.005460 15.709055 19.005705 15.708092
C 19.225982 14.973631 19.599113 14.243079 19.744634 13.407335
C 19.745172 13.404243 19.745633 13.401270 19.746161 13.398175
C 20.180469 11.334832 20.016746 9.111318 19.101888 7.184451
C 18.826357 6.392910 18.767276 5.462756 19.158376 4.746290
L 19.164483 4.735603
L 19.169063 4.723389
C 19.174850 4.709673 19.213727 4.660360 19.271353 4.608885
C 19.328978 4.557411 19.396813 4.511665 19.468299 4.425681
L 19.642344 4.216521
L 19.414864 4.066902
C 18.338321 3.352509 17.088367 3.078947 15.938537 2.715761
L 15.933957 2.714234
L 15.929377 2.714234
C 14.903584 2.437821 13.898032 2.108955 12.912591 1.711183
L 12.911065 1.709657
C 11.969754 1.332639 10.991867 1.023536 10.343132 0.341722
L 10.326339 0.323401
L 10.306491 0.309660
C 10.348816 0.339361 10.299296 0.294023 10.265270 0.236378
C 10.248257 0.207556 10.229589 0.175432 10.202676 0.138669
C 10.175761 0.101906 10.156169 0.035478 10.013363 0.005844
C 9.990765 0.001156 9.970686 -0.000165 9.953821 -0.000262
z
M 9.808783 0.427218
C 9.809264 0.427874 9.811639 0.432016 9.813363 0.434851
C 9.812912 0.435412 9.812288 0.435816 9.811836 0.436378
C 9.807527 0.429676 9.807480 0.425437 9.808783 0.427218
z
M 10.040843 2.034847
C 10.466039 2.050209 10.786074 2.633858 10.538552 2.996677
L 10.530918 3.005837
L 10.526339 3.016523
C 10.310788 3.410146 9.622752 3.393480 9.428631 2.987517
L 9.424051 2.978355
L 9.419471 2.969195
C 9.198228 2.590470 9.509240 2.052460 9.937027 2.036373
C 9.950662 2.035860 9.965860 2.035851 9.979774 2.036373
L 9.988934 2.036373
L 9.999623 2.036373
C 10.023941 2.035314 10.037430 2.034719 10.040843 2.034847
z
M 5.259177 3.892856
C 4.798330 4.256135 4.440957 4.742513 4.275973 5.321860
C 4.009758 5.325951 3.732762 5.343609 3.456128 5.425677
C 3.452879 5.426444 3.450201 5.427944 3.446967 5.428730
C 3.444940 5.429342 3.442889 5.429642 3.440861 5.430258
C 3.068415 5.522244 2.788642 5.737964 2.563001 5.993615
C 2.572083 5.585238 2.530101 5.173752 2.408803 4.773771
C 2.435754 4.762906 2.442529 4.760431 2.483612 4.744763
C 2.484687 4.744470 2.485590 4.743549 2.486666 4.743237
C 3.415012 4.472923 4.339886 4.190782 5.259177 3.892856
z
M 14.766022 3.897437
C 15.727464 4.181997 16.683374 4.458503 17.602655 4.814991
C 17.503365 5.190690 17.450047 5.576797 17.446931 5.966133
C 16.989697 5.532172 16.367774 5.287519 15.732431 5.285219
C 15.580358 4.722665 15.218220 4.241729 14.766022 3.897437
z
M 8.450008 4.001254
C 8.642775 4.024269 8.810139 4.125626 8.978251 4.285222
C 9.153129 4.451242 9.316922 4.672162 9.486647 4.876060
L 9.489700 4.880641
L 9.492754 4.883694
C 9.527509 4.922528 9.581160 5.002524 9.636264 5.086747
C 9.691369 5.170970 9.738870 5.257436 9.839317 5.340181
L 10.042370 5.508120
L 10.195041 5.294380
C 10.563197 4.774863 10.922560 4.244636 11.428626 4.018048
C 11.814461 3.983324 12.226440 4.274061 12.732439 4.465375
C 13.241065 4.711789 13.760682 4.934026 14.118695 5.273006
C 14.334968 5.606616 14.290672 6.103102 14.413350 6.639414
L 14.459152 6.836360
L 14.662205 6.828727
C 15.295251 6.801916 15.900078 6.650118 16.327850 6.898956
C 16.953478 7.726093 17.348552 8.737451 17.564487 9.767650
C 17.564683 9.768637 17.564292 9.769717 17.564487 9.770703
C 17.965470 11.776259 17.538891 13.954772 16.359910 15.624123
C 16.005761 15.861970 15.468825 15.778503 14.918692 15.752367
C 14.833008 15.724465 14.742266 15.707939 14.643885 15.743207
C 14.522363 15.786770 14.449874 15.899186 14.422511 15.979847
C 14.368068 16.140339 14.385613 16.265860 14.378236 16.340152
C 14.378198 16.340543 14.378276 16.341297 14.378236 16.341678
C 14.352422 16.588641 14.315506 16.850691 14.234726 17.059234
C 14.153782 17.268195 14.044890 17.414797 13.849994 17.498927
L 13.833200 17.506560
L 13.819460 17.514194
C 13.160749 17.915027 12.454136 18.248502 11.727861 18.511138
L 11.718701 18.512665
L 11.711068 18.517245
C 11.536004 18.594591 11.411504 18.556417 11.242367 18.445489
C 11.074518 18.335408 10.900577 18.146249 10.747712 17.975262
C 10.746534 17.973890 10.745836 17.972054 10.744658 17.970682
C 10.546516 17.739277 10.362665 17.487727 10.185880 17.228699
L 9.996569 16.949311
L 9.790463 17.218012
C 9.386959 17.744528 9.048646 18.308329 8.540084 18.537092
C 8.169011 18.569900 7.768158 18.295411 7.282072 18.106559
L 7.282072 18.105032
C 6.762972 17.862674 6.245178 17.617559 5.840854 17.279080
C 5.581062 16.941692 5.534970 16.452511 5.540092 15.963053
L 5.543145 15.718779
L 5.298871 15.715726
C 4.966926 15.711139 4.645826 15.769837 4.355363 15.784429
C 4.081637 15.798178 3.849119 15.772331 3.646967 15.659237
C 2.489095 14.055772 2.035931 11.961287 2.366055 10.007345
C 2.556009 8.898474 2.967022 7.811243 3.628647 6.915750
C 4.004736 6.685368 4.561814 6.813104 5.147727 6.825674
C 5.190828 6.836103 5.236627 6.843406 5.289711 6.836360
C 5.360490 6.826967 5.438771 6.784989 5.486657 6.731017
C 5.582431 6.623074 5.578890 6.527919 5.581314 6.457735
C 5.583736 6.387552 5.578564 6.327589 5.578260 6.285218
C 5.578077 6.258734 5.583295 6.239872 5.582840 6.237888
L 5.593527 6.214988
L 5.596581 6.172240
C 5.618825 5.928362 5.662743 5.668857 5.750778 5.463845
C 5.838814 5.258833 5.956673 5.113560 6.156884 5.031785
L 6.175205 5.024151
L 6.190472 5.014991
C 6.834091 4.628016 7.525043 4.306075 8.231687 4.048582
C 8.324020 4.025339 8.395903 4.006338 8.450008 4.001254
z
M 2.512619 16.559998
C 2.963318 17.015557 3.593396 17.279678 4.240859 17.285187
C 4.411138 17.853413 4.791166 18.331917 5.248490 18.676024
C 4.261414 18.386143 3.276061 18.115664 2.333993 17.761522
C 2.435133 17.379085 2.499223 16.973440 2.512619 16.559998
z
M 17.460670 16.592060
C 17.455450 16.986017 17.494980 17.382041 17.619448 17.764575
C 16.699744 18.101973 15.746403 18.383837 14.788922 18.676024
C 15.237804 18.317824 15.585609 17.838396 15.747698 17.271447
C 16.040852 17.262645 16.348844 17.235531 16.651512 17.129463
C 16.657076 17.127514 16.662751 17.126880 16.668307 17.124883
L 16.668307 17.123356
C 17.004731 17.024916 17.257361 16.825758 17.460670 16.592060
z
M 10.040843 19.359990
C 10.466038 19.375352 10.786074 19.959003 10.538552 20.321820
L 10.530918 20.330981
L 10.524812 20.343194
C 10.309847 20.738615 9.623298 20.719485 9.430158 20.312660
L 9.425578 20.303499
L 9.419471 20.294339
C 9.198227 19.915612 9.509240 19.377605 9.937027 19.361517
C 9.950662 19.361005 9.965860 19.360995 9.979774 19.361517
L 9.988934 19.361517
L 9.999623 19.361517
C 10.023935 19.360452 10.037424 19.359864 10.040843 19.359990
z
Z		"/>
		<style type="text/css"><![CDATA[
			.fill {
				stroke: none;
			}
			.fill.default {
				fill: url(#default-fill);
			}
			.fill.hover {
				fill: url(#hover-fill);
			}
			.fill.active {
				fill: url(#active-fill);
			}
			.stroke {
				fill: none;
				stroke-width: 4;
				stroke-linejoin: round;
			}
			.stroke.default {
				stroke: url(#default-stroke)
			}
			.stroke.hover {
				stroke: url(#hover-stroke)
			}
			.stroke.active {
				stroke: url(#active-stroke)
			}
		]]></style>
	</defs>
	<rect x="-2" y="-2" width="100%" height="100%" r="0" rx="0" ry="0" fill="white" stroke="none" opacity="0"/>
	<g transform="translate(0,0)">
		<g transform="scale(1)">
			<use id="stroke" xlink:href="#path" stroke="url(#active-stroke)" fill="none"/>
			<use id="fill" xlink:href="#path" stroke="none" fill="url(#active-fill)"/>
		</g>
	</g>
</svg>
