<svg height="28" version="1.1" width="28" xmlns="http://www.w3.org/2000/svg" viewBox="-4 -4 40 40">
	<path fill="none" stroke="#ffffff" stroke-width="6" stroke-linejoin="round" opacity="0" class="stroke" d="M20.1,4.039c-0.681,1.677-2.32,2.862-4.24,2.862c-1.921,0-3.56-1.185-4.24-2.862L1.238,8.442l2.921,6.884l3.208-1.361V28h17.099V14.015l3.093,1.312l2.922-6.884L20.1,4.039z"/>
	<path fill="#000000" stroke="none" opacity="1" class="fill" d="M20.1,4.039c-0.681,1.677-2.32,2.862-4.24,2.862c-1.921,0-3.56-1.185-4.24-2.862L1.238,8.442l2.921,6.884l3.208-1.361V28h17.099V14.015l3.093,1.312l2.922-6.884L20.1,4.039z"/>
</svg>
