<svg height="28" version="1.1" width="28" xmlns="http://www.w3.org/2000/svg" viewBox="-4 -4 40 40">
	<path fill="none" stroke="#ffffff" stroke-width="6" stroke-linejoin="round" opacity="0" class="stroke" d="M23.295,22.567h-7.213c-2.125,0-4.103-2.215-4.103-4.736v-1.829h11.232c1.817,0,3.291-1.469,3.291-3.281c0-1.813-1.474-3.282-3.291-3.282H11.979V6.198c0-1.835-1.375-3.323-3.192-3.323c-1.816,0-3.29,1.488-3.29,3.323v11.633c0,6.23,4.685,11.274,10.476,11.274h7.211c1.818,0,3.318-1.463,3.318-3.298S25.112,22.567,23.295,22.567z"/>
	<path fill="#000000" stroke="none" opacity="1" class="fill" d="M23.295,22.567h-7.213c-2.125,0-4.103-2.215-4.103-4.736v-1.829h11.232c1.817,0,3.291-1.469,3.291-3.281c0-1.813-1.474-3.282-3.291-3.282H11.979V6.198c0-1.835-1.375-3.323-3.192-3.323c-1.816,0-3.29,1.488-3.29,3.323v11.633c0,6.23,4.685,11.274,10.476,11.274h7.211c1.818,0,3.318-1.463,3.318-3.298S25.112,22.567,23.295,22.567z"/>
</svg>
