<svg height="28" version="1.1" width="28" xmlns="http://www.w3.org/2000/svg" viewBox="-4 -4 40 40">
	<path fill="none" stroke="#ffffff" stroke-width="6" stroke-linejoin="round" opacity="0" class="stroke" d="M12.981,9.073V6.817l-12.106,6.99l12.106,6.99v-2.422c3.285-0.002,9.052,0.28,9.052,2.269c0,2.78-6.023,4.263-6.023,4.263v2.132c0,0,13.53,0.463,13.53-9.823C29.54,9.134,17.952,8.831,12.981,9.073z"/>
	<path fill="#000000" stroke="none" opacity="1" class="fill" d="M12.981,9.073V6.817l-12.106,6.99l12.106,6.99v-2.422c3.285-0.002,9.052,0.28,9.052,2.269c0,2.78-6.023,4.263-6.023,4.263v2.132c0,0,13.53,0.463,13.53-9.823C29.54,9.134,17.952,8.831,12.981,9.073z"/>
</svg>
