<svg height="28" version="1.1" width="28" xmlns="http://www.w3.org/2000/svg" viewBox="-4 -4 40 40">
	<path fill="none" stroke="#ffffff" stroke-width="6" stroke-linejoin="round" opacity="0" class="stroke" d="M20.375,12.833h-2.209V10c0,0,0,0,0-0.001c0-2.389,1.945-4.333,4.334-4.333c2.391,0,4.335,1.944,4.335,4.333c0,0,0,0,0,0v2.834h2V9.999h-0.001c-0.001-3.498-2.836-6.333-6.334-6.333S16.166,6.502,16.166,10v2.833H3.125V25h17.25V12.833z"/>
	<path fill="#000000" stroke="none" opacity="1" class="fill" d="M20.375,12.833h-2.209V10c0,0,0,0,0-0.001c0-2.389,1.945-4.333,4.334-4.333c2.391,0,4.335,1.944,4.335,4.333c0,0,0,0,0,0v2.834h2V9.999h-0.001c-0.001-3.498-2.836-6.333-6.334-6.333S16.166,6.502,16.166,10v2.833H3.125V25h17.25V12.833z"/>
</svg>
