<svg height="28" version="1.1" width="28" xmlns="http://www.w3.org/2000/svg" viewBox="-4 -4 40 40">
	<path fill="none" stroke="#ffffff" stroke-width="6" stroke-linejoin="round" opacity="0" class="stroke" d="M29.225,23.567l-3.778-6.542c-1.139-1.972-3.002-5.2-4.141-7.172l-3.778-6.542c-1.14-1.973-3.003-1.973-4.142,0L9.609,9.853c-1.139,1.972-3.003,5.201-4.142,7.172L1.69,23.567c-1.139,1.974-0.207,3.587,2.071,3.587h23.391C29.432,27.154,30.363,25.541,29.225,23.567zM16.536,24.58h-2.241v-2.151h2.241V24.58zM16.428,20.844h-2.023l-0.201-9.204h2.407L16.428,20.844z"/>
	<path fill="#000000" stroke="none" opacity="1" class="fill" d="M29.225,23.567l-3.778-6.542c-1.139-1.972-3.002-5.2-4.141-7.172l-3.778-6.542c-1.14-1.973-3.003-1.973-4.142,0L9.609,9.853c-1.139,1.972-3.003,5.201-4.142,7.172L1.69,23.567c-1.139,1.974-0.207,3.587,2.071,3.587h23.391C29.432,27.154,30.363,25.541,29.225,23.567zM16.536,24.58h-2.241v-2.151h2.241V24.58zM16.428,20.844h-2.023l-0.201-9.204h2.407L16.428,20.844z"/>
</svg>
