<svg height="28" version="1.1" width="28" xmlns="http://www.w3.org/2000/svg" viewBox="-4 -4 40 40">
	<path fill="none" stroke="#ffffff" stroke-width="6" stroke-linejoin="round" opacity="0" class="stroke" d="M26.834,14.693c1.816-2.088,2.181-4.938,1.193-7.334l-3.646,4.252l-3.594-0.699L19.596,7.45l3.637-4.242c-2.502-0.63-5.258,0.13-7.066,2.21c-1.907,2.193-2.219,5.229-1.039,7.693L5.624,24.04c-1.011,1.162-0.888,2.924,0.274,3.935c1.162,1.01,2.924,0.888,3.935-0.274l9.493-10.918C21.939,17.625,24.918,16.896,26.834,14.693z"/>
	<path fill="#000000" stroke="none" opacity="1" class="fill" d="M26.834,14.693c1.816-2.088,2.181-4.938,1.193-7.334l-3.646,4.252l-3.594-0.699L19.596,7.45l3.637-4.242c-2.502-0.63-5.258,0.13-7.066,2.21c-1.907,2.193-2.219,5.229-1.039,7.693L5.624,24.04c-1.011,1.162-0.888,2.924,0.274,3.935c1.162,1.01,2.924,0.888,3.935-0.274l9.493-10.918C21.939,17.625,24.918,16.896,26.834,14.693z"/>
</svg>
